<?xml version="1.0" standalone="no"?>
<!DOCTYPE svg PUBLIC "-//W3C//DTD SVG 1.1//EN" "http://www.w3.org/Graphics/SVG/1.1/DTD/svg11.dtd" >
<svg xmlns="http://www.w3.org/2000/svg" xmlns:xlink="http://www.w3.org/1999/xlink" version="1.1">
<metadata>
Created by FontForge 20161003 at Mon Mar 27 20:25:15 2017
 By www-data
Enigmatic Unicode (c)2002 by Starving-4 Entertainment, dart@puzzlers.org This font is licensed under the terms of the Design Science Licence: http://dsl.org/copyleft/dsl.txt
</metadata>
<defs>
<font id="EnigmaU_2" horiz-adv-x="1300" >
  <font-face 
    font-family="EnigmaU_2"
    font-weight="400"
    font-stretch="normal"
    units-per-em="2400"
    panose-1="2 0 0 0 0 0 0 0 0 0"
    ascent="1920"
    descent="-480"
    x-height="1300"
    cap-height="1800"
    bbox="-400 -540 2620 2425"
    underline-thickness="48"
    underline-position="-236"
    unicode-range="U+0020-F002"
  />
<missing-glyph horiz-adv-x="1990" 
d="M1100 -215v1165q0 175 220 175t220 -175v-100h250v150q0 325 -345 325t-345 -200v725h-250v-725q0 200 -425 200t-425 -325v-700q0 -325 425 -325t425 200v-275q0 -175 -175 -175v-200h175q250 0 250 260zM850 950v-600q0 -175 -300 -175t-300 175v600q0 175 300 175
t300 -175zM975 1450q-115 0 -115 112.5t115 112.5t115 -112.5t-115 -112.5z" />
    <glyph glyph-name=".notdef" horiz-adv-x="1990" 
d="M1100 -215v1165q0 175 220 175t220 -175v-100h250v150q0 325 -345 325t-345 -200v725h-250v-725q0 200 -425 200t-425 -325v-700q0 -325 425 -325t425 200v-275q0 -175 -175 -175v-200h175q250 0 250 260zM850 950v-600q0 -175 -300 -175t-300 175v600q0 175 300 175
t300 -175zM975 1450q-115 0 -115 112.5t115 112.5t115 -112.5t-115 -112.5z" />
    <glyph glyph-name=".null" horiz-adv-x="0" 
 />
    <glyph glyph-name="nonmarkingreturn" horiz-adv-x="390" 
 />
    <glyph glyph-name="space" unicode=" " horiz-adv-x="600" 
 />
    <glyph glyph-name="exclam" unicode="!" horiz-adv-x="450" 
d="M225 375l25 1425h-250l35 -1425h190zM125 0q125 0 125 125t-125 125t-125 -125t125 -125z" />
    <glyph glyph-name="exclam" unicode="&#x1c3;" horiz-adv-x="450" 
d="M225 375l25 1425h-250l35 -1425h190zM125 0q125 0 125 125t-125 125t-125 -125t125 -125z" />
    <glyph glyph-name="quotedbl" unicode="&#x22;" horiz-adv-x="850" 
d="M500 1500h50q80 150 100 250q0 150 -125 150t-125 -150q20 -100 100 -250zM100 1500h50q80 150 100 250q0 150 -125 150t-125 -150q20 -100 100 -250z" />
    <glyph glyph-name="numbersign" unicode="#" horiz-adv-x="1650" 
d="M100 0h250l90 400h350l-90 -400h250l90 400h210v150h-180l160 700h220v150h-190l90 400h-250l-90 -400h-350l90 400h-250l-90 -400h-210v-150h175l-150 -700h-225v-150h190zM475 550l150 700h350l-155 -700h-345z" />
    <glyph glyph-name="dollar" unicode="$" horiz-adv-x="1400" 
d="M735 1060v465q275 0 275 -175v-100h250v150q0 325 -525 325v125h-150v-125q-525 0 -525 -325v-225q0 -250 480 -325l45 -7v-493q-275 0 -275 175v100h-250v-150q0 -325 525 -325v-175h150v175q525 0 525 325v200q0 300 -480 375zM310 1275v75q0 175 275 175v-445l-45 7
q-230 38 -230 188zM735 820l30 -7q235 -38 230 -188v-100q0 -175 -260 -175v470z" />
    <glyph glyph-name="percent" unicode="%" horiz-adv-x="1800" 
d="M1600 650q0 225 -375 225t-375 -225v-450q0 -225 375 -225t375 225v450zM1425 250q0 -125 -200 -125t-200 125v350q0 125 200 125t200 -125v-350zM1325 1800l-1325 -1800h275l1325 1800h-275zM750 1600q0 225 -375 225t-375 -225v-450q0 -225 375 -225t375 225v450z
M575 1200q0 -125 -200 -125t-200 125v350q0 125 200 125t200 -125v-350z" />
    <glyph glyph-name="ampersand" unicode="&#x26;" horiz-adv-x="1700" 
d="M685 1625q-335 0 -335 -170v-30q0 -74 74 -174l791 -896q33 57 35 145v250h250v-350q-2 -140 -94 -240l127 -160h-309l-28 32q-171 -72 -496 -57q-700 0 -700 475v450q0 225 225 225q-125 122 -125 275v100q0 325 573 325q627 0 627 -325v-250h-250v200q0 175 -365 175z
M250 500q0 -325 450 -325q205 0 330 45l-630 705q-150 75 -150 -125v-300z" />
    <glyph glyph-name="quotesingle" unicode="'" horiz-adv-x="450" 
d="M0 1675q0 125 125 125t125 -125q0 -275 -250 -275v75q125 0 125 75q-125 0 -125 125z" />
    <glyph glyph-name="parenleft" unicode="(" horiz-adv-x="825" 
d="M625 2000q-625 -100 -625 -1100t625 -1100v200q-375 150 -375 900t375 900v200z" />
    <glyph glyph-name="parenright" unicode=")" horiz-adv-x="825" 
d="M0 -200q625 100 625 1100t-625 1100v-200q375 -150 375 -900t-375 -900v-200z" />
    <glyph glyph-name="asterisk" unicode="*" horiz-adv-x="1064" 
d="M337 1431l-187 130l34 104l228 -5l66 218h109l66 -219l228 5l34 -104l-188 -130l75 -216l-88 -64l-182 139l-181 -138l-89 64z" />
    <glyph glyph-name="plus" unicode="+" horiz-adv-x="1200" 
d="M400 400v400h-400v200h400v400h200v-400h400v-200h-400v-400h-200z" />
    <glyph glyph-name="comma" unicode="," horiz-adv-x="450" 
d="M125 0q0 -175 -125 -175v-75q250 0 250 375q0 125 -125 125t-125 -125t125 -125z" />
    <glyph glyph-name="hyphen" unicode="-" horiz-adv-x="1200" 
d="M0 800v200h1000v-200h-1000z" />
    <glyph glyph-name="hyphen" unicode="&#x2010;" horiz-adv-x="1200" 
d="M0 800v200h1000v-200h-1000z" />
    <glyph glyph-name="period" unicode="." horiz-adv-x="546" 
d="M272 -4q123 0 123 127q0 128 -123 128t-123 -128q0 -127 123 -127z" />
    <glyph glyph-name="slash" unicode="/" horiz-adv-x="1099" 
d="M1200 1850l-1050 -1900h-250l1050 1900h250z" />
    <glyph glyph-name="zero" unicode="0" horiz-adv-x="1400" 
d="M890 350q0 -175 -290 -175t-290 175v1100q0 175 290 175t290 -175v-1100zM1140 1500q0 325 -540 325t-540 -325v-1200q0 -325 540 -325t540 325v1200z" />
    <glyph glyph-name="one" unicode="1" horiz-adv-x="1400" 
d="M330 1650v-200h290v-1450h250v1800h-250q0 -150 -290 -150z" />
    <glyph glyph-name="two" unicode="2" horiz-adv-x="1400" 
d="M950 1250v200q0 175 -352 175q-348 0 -348 -175v-200h-250v250q0 325 600 325t600 -325v-300q0 -250 -480 -325l-240 -37q-230 -38 -230 -188v-450h950v-200h-1200v700q0 250 480 325l240 37q230 38 230 188z" />
    <glyph glyph-name="three" unicode="3" horiz-adv-x="1400" 
d="M250 1450v-200h-250v250q0 325 600 325t600 -325v-250q0 -300 -250 -300q250 0 250 -300v-350q0 -325 -600 -325t-600 325v250h250v-200q0 -175 350 -175t350 175v350q0 150 -200 150h-350v200h350q200 0 200 150v250q0 175 -350 175t-350 -175z" />
    <glyph glyph-name="three" unicode="&#x417;" horiz-adv-x="1400" 
d="M250 1450v-200h-250v250q0 325 600 325t600 -325v-250q0 -300 -250 -300q250 0 250 -300v-350q0 -325 -600 -325t-600 325v250h250v-200q0 -175 350 -175t350 175v350q0 150 -200 150h-350v200h350q200 0 200 150v250q0 175 -350 175t-350 -175z" />
    <glyph glyph-name="four" unicode="4" horiz-adv-x="1400" 
d="M1200 550h-110v1250h-250l-840 -1250v-200h840v-350h250v350h110v200zM240 550l600 885v-885h-600z" />
    <glyph glyph-name="five" unicode="5" horiz-adv-x="1400" 
d="M0 1800v-950h250v100q0 175 350 175t350 -175v-600q0 -175 -350 -175t-350 175v200h-250v-250q0 -325 600 -325t600 325v700q0 325 -475 325t-475 -200v475h950v200h-1200z" />
    <glyph glyph-name="six" unicode="6" horiz-adv-x="1400" 
d="M0 300v1200q0 325 600 325t600 -325v-250h-250v200q0 175 -350 175t-350 -175v-525q0 200 475 200t475 -325v-500q0 -325 -600 -325t-600 325zM250 750v-400q0 -175 350 -175t350 175v400q0 175 -350 175t-350 -175z" />
    <glyph glyph-name="seven" unicode="7" horiz-adv-x="1400" 
d="M50 1800v-200h912q-401 -292 -535.5 -666.5t-238.5 -933.5h252q40 291 181.5 767.5t528.5 792.5v240h-1100z" />
    <glyph glyph-name="eight" unicode="8" horiz-adv-x="1400" 
d="M250 950q-250 0 -250 -300v-350q0 -325 600 -325t600 325v350q0 300 -250 300q250 0 250 300v250q0 325 -600 325t-600 -325v-250q0 -300 250 -300zM250 1200v250q0 175 350 175t350 -175v-250q0 -150 -350 -150t-350 150zM950 700v-350q0 -175 -350 -175t-350 175v350
q0 150 350 150t350 -150z" />
    <glyph glyph-name="nine" unicode="9" horiz-adv-x="1400" 
d="M1200 1500v-1200q0 -325 -600 -325t-600 325v250h250v-200q0 -175 350 -175t350 175v525q0 -200 -475 -200t-475 325v500q0 325 600 325t600 -325zM950 1050v400q0 175 -350 175t-350 -175v-400q0 -175 350 -175t350 175z" />
    <glyph glyph-name="colon" unicode=":" horiz-adv-x="450" 
d="M125 750q125 0 125 125t-125 125t-125 -125t125 -125zM125 0q125 0 125 125t-125 125t-125 -125t125 -125z" />
    <glyph glyph-name="semicolon" unicode=";" horiz-adv-x="450" 
d="M125 750q125 0 125 125t-125 125t-125 -125t125 -125zM125 0q0 -175 -125 -175v-75q250 0 250 375q0 125 -125 125t-125 -125t125 -125z" />
    <glyph glyph-name="semicolon" unicode="&#x37e;" horiz-adv-x="450" 
d="M125 750q125 0 125 125t-125 125t-125 -125t125 -125zM125 0q0 -175 -125 -175v-75q250 0 250 375q0 125 -125 125t-125 -125t125 -125z" />
    <glyph glyph-name="less" unicode="&#x3c;" horiz-adv-x="1200" 
d="M800 250l200 100l-700 550l700 550l-200 100l-800 -650z" />
    <glyph glyph-name="equal" unicode="=" horiz-adv-x="1350" 
d="M1200 600v200h-1050v-200h1050zM1200 1000v200h-1050v-200h1050z" />
    <glyph glyph-name="greater" unicode="&#x3e;" horiz-adv-x="1200" 
d="M200 1550l-200 -100l700 -550l-700 -550l200 -100l800 650z" />
    <glyph glyph-name="question" unicode="?" horiz-adv-x="1400" 
d="M950 1175v275q0 175 -359 175q-341 0 -341 -175v-200h-250v250q0 325 593 325q607 0 607 -325v-350q0 -244 -243 -292l-216 -66q-91 -26 -91 -92v-150h-250v187q5 188 192 240l223 58q135 55 135 140zM525 0q125 0 125 125t-125 125t-125 -125t125 -125z" />
    <glyph glyph-name="at" unicode="@" horiz-adv-x="1800" 
d="M740 375q-390 0 -390 325v40q0 310 450 310q200 0 200 120q0 130 -200 130t-200 -175h-250v50q0 325 450 325t450 -325v-550q0 -75 50 -75t50 75v625q0 375 -550 375t-550 -375v-700q0 -350 550 -350h550v-200h-550q-800 0 -800 500v800q0 525 800 525t800 -525v-700
q0 -216 -300 -225q-300 25 -300 200q0 -200 -260 -200zM800 850q-200 0 -200 -125q0 -150 200 -150t200 236v129q0 -90 -200 -90z" />
    <glyph glyph-name="A" unicode="A" horiz-adv-x="1620" 
d="M610 1800h280l610 -1800h-300l-160 500h-580l-160 -500h-300zM975 700l-225 720l-225 -720h450z" />
    <glyph glyph-name="A" unicode="&#x410;" horiz-adv-x="1620" 
d="M610 1800h280l610 -1800h-300l-160 500h-580l-160 -500h-300zM975 700l-225 720l-225 -720h450z" />
    <glyph glyph-name="A" unicode="&#x391;" horiz-adv-x="1620" 
d="M610 1800h280l610 -1800h-300l-160 500h-580l-160 -500h-300zM975 700l-225 720l-225 -720h450z" />
    <glyph glyph-name="B" unicode="B" horiz-adv-x="1400" 
d="M0 0h850q350 0 350 300v350q0 300 -300 300q300 0 300 250v300q0 300 -350 300h-850v-1800zM250 1050v550h500q200 0 200 -150v-250q0 -150 -200 -150h-500zM950 700v-350q0 -150 -200 -150h-500v650h500q200 0 200 -150z" />
    <glyph glyph-name="B" unicode="&#x412;" horiz-adv-x="1400" 
d="M0 0h850q350 0 350 300v350q0 300 -300 300q300 0 300 250v300q0 300 -350 300h-850v-1800zM250 1050v550h500q200 0 200 -150v-250q0 -150 -200 -150h-500zM950 700v-350q0 -150 -200 -150h-500v650h500q200 0 200 -150z" />
    <glyph glyph-name="B" unicode="&#x392;" horiz-adv-x="1400" 
d="M0 0h850q350 0 350 300v350q0 300 -300 300q300 0 300 250v300q0 300 -350 300h-850v-1800zM250 1050v550h500q200 0 200 -150v-250q0 -150 -200 -150h-500zM950 700v-350q0 -150 -200 -150h-500v650h500q200 0 200 -150z" />
    <glyph glyph-name="C" unicode="C" horiz-adv-x="1400" 
d="M1200 300q0 -325 -600 -325t-600 325v1200q0 325 600 325t600 -325v-250h-250v200q0 175 -350 175t-350 -175v-1100q0 -175 350 -175t350 175v200h250v-250z" />
    <glyph glyph-name="C" unicode="&#x421;" horiz-adv-x="1400" 
d="M1200 300q0 -325 -600 -325t-600 325v1200q0 325 600 325t600 -325v-250h-250v200q0 175 -350 175t-350 -175v-1100q0 -175 350 -175t350 175v200h250v-250z" />
    <glyph glyph-name="C" unicode="&#x3f9;" horiz-adv-x="1400" 
d="M1200 300q0 -325 -600 -325t-600 325v1200q0 325 600 325t600 -325v-250h-250v200q0 175 -350 175t-350 -175v-1100q0 -175 350 -175t350 175v200h250v-250z" />
    <glyph glyph-name="D" unicode="D" horiz-adv-x="1400" 
d="M0 1800h850q350 0 350 -300v-1200q0 -300 -350 -300h-850v1800zM750 200q200 0 200 150v1100q0 150 -200 150h-500v-1400h500z" />
    <glyph glyph-name="E" unicode="E" horiz-adv-x="1200" 
d="M250 1600v-575h625v-200h-625v-625h750v-200h-1000v1800h1000v-200h-750z" />
    <glyph glyph-name="E" unicode="&#x415;" horiz-adv-x="1200" 
d="M250 1600v-575h625v-200h-625v-625h750v-200h-1000v1800h1000v-200h-750z" />
    <glyph glyph-name="E" unicode="&#x395;" horiz-adv-x="1200" 
d="M250 1600v-575h625v-200h-625v-625h750v-200h-1000v1800h1000v-200h-750z" />
    <glyph glyph-name="F" unicode="F" horiz-adv-x="1200" 
d="M250 1600v-575h625v-200h-625v-825h-250v1800h1000v-200h-750z" />
    <glyph glyph-name="F" unicode="&#x3dc;" horiz-adv-x="1200" 
d="M250 1600v-575h625v-200h-625v-825h-250v1800h1000v-200h-750z" />
    <glyph glyph-name="G" unicode="G" horiz-adv-x="1400" 
d="M1200 0h-113l-78 175q-59 -200 -409 -200q-600 0 -600 325v1200q0 325 600 325t600 -325v-250h-250v200q0 175 -350 175t-350 -175v-1100q0 -175 350 -175t350 175v450h-492v200h742v-1000z" />
    <glyph glyph-name="H" unicode="H" 
d="M250 1800v-800h600v800h250v-1800h-250v800h-600v-800h-250v1800h250z" />
    <glyph glyph-name="H" unicode="&#x41d;" 
d="M250 1800v-800h600v800h250v-1800h-250v800h-600v-800h-250v1800h250z" />
    <glyph glyph-name="H" unicode="&#x397;" 
d="M250 1800v-800h600v800h250v-1800h-250v800h-600v-800h-250v1800h250z" />
    <glyph glyph-name="I" unicode="I" horiz-adv-x="650" 
d="M0 0v200h100v1400h-100v200h450v-200h-100v-1400h100v-200h-450z" />
    <glyph glyph-name="I" unicode="&#x4c0;" horiz-adv-x="650" 
d="M0 0v200h100v1400h-100v200h450v-200h-100v-1400h100v-200h-450z" />
    <glyph glyph-name="I" unicode="&#x406;" horiz-adv-x="650" 
d="M0 0v200h100v1400h-100v200h450v-200h-100v-1400h100v-200h-450z" />
    <glyph glyph-name="I" unicode="&#x399;" horiz-adv-x="650" 
d="M0 0v200h100v1400h-100v200h450v-200h-100v-1400h100v-200h-450z" />
    <glyph glyph-name="J" unicode="J" horiz-adv-x="1250" 
d="M1050 300q0 -325 -525 -325t-525 325v250h250v-200q0 -175 275 -175t275 175v1450h250v-1500z" />
    <glyph glyph-name="J" unicode="&#x408;" horiz-adv-x="1250" 
d="M1050 300q0 -325 -525 -325t-525 325v250h250v-200q0 -175 275 -175t275 175v1450h250v-1500z" />
    <glyph glyph-name="K" unicode="K" 
d="M0 0v1800h250v-754l567 754h289l-518 -723l567 -1077h-295l-435 868l-175 -237v-631h-250z" />
    <glyph glyph-name="K" unicode="&#x39a;" 
d="M0 0v1800h250v-754l567 754h289l-518 -723l567 -1077h-295l-435 868l-175 -237v-631h-250z" />
    <glyph glyph-name="L" unicode="L" horiz-adv-x="1200" 
d="M0 0v1800h250v-1600h750v-200h-1000z" />
    <glyph glyph-name="M" unicode="M" horiz-adv-x="1800" 
d="M1600 0h-250v1300l-425 -1300h-250l-425 1300v-1300h-250v1800h350l450 -1375l450 1375h350v-1800z" />
    <glyph glyph-name="M" unicode="&#x41c;" horiz-adv-x="1800" 
d="M1600 0h-250v1300l-425 -1300h-250l-425 1300v-1300h-250v1800h350l450 -1375l450 1375h350v-1800z" />
    <glyph glyph-name="M" unicode="&#x39c;" horiz-adv-x="1800" 
d="M1600 0h-250v1300l-425 -1300h-250l-425 1300v-1300h-250v1800h350l450 -1375l450 1375h350v-1800z" />
    <glyph glyph-name="N" unicode="N" 
d="M300 1800l550 -1300v1300h250v-1800h-300l-550 1300v-1300h-250v1800h300z" />
    <glyph glyph-name="N" unicode="&#x39d;" 
d="M300 1800l550 -1300v1300h250v-1800h-300l-550 1300v-1300h-250v1800h300z" />
    <glyph glyph-name="O" unicode="O" horiz-adv-x="1400" 
d="M950 1450q0 175 -350 175t-350 -175v-1100q0 -175 350 -175t350 175v1100zM1200 300q0 -325 -600 -325t-600 325v1200q0 325 600 325t600 -325v-1200z" />
    <glyph glyph-name="O" unicode="&#x41e;" horiz-adv-x="1400" 
d="M950 1450q0 175 -350 175t-350 -175v-1100q0 -175 350 -175t350 175v1100zM1200 300q0 -325 -600 -325t-600 325v1200q0 325 600 325t600 -325v-1200z" />
    <glyph glyph-name="O" unicode="&#x39f;" horiz-adv-x="1400" 
d="M950 1450q0 175 -350 175t-350 -175v-1100q0 -175 350 -175t350 175v1100zM1200 300q0 -325 -600 -325t-600 325v1200q0 325 600 325t600 -325v-1200z" />
    <glyph glyph-name="P" unicode="P" horiz-adv-x="1400" 
d="M-2 1800h752q450 0 450 -350v-400q0 -350 -450 -350h-500v-700h-251zM650 900q300 0 300 200v300q0 200 -300 200h-400v-700h400z" />
    <glyph glyph-name="P" unicode="&#x420;" horiz-adv-x="1400" 
d="M-2 1800h752q450 0 450 -350v-400q0 -350 -450 -350h-500v-700h-251zM650 900q300 0 300 200v300q0 200 -300 200h-400v-700h400z" />
    <glyph glyph-name="P" unicode="&#x3a1;" horiz-adv-x="1400" 
d="M-2 1800h752q450 0 450 -350v-400q0 -350 -450 -350h-500v-700h-251zM650 900q300 0 300 200v300q0 200 -300 200h-400v-700h400z" />
    <glyph glyph-name="Q" unicode="Q" horiz-adv-x="1400" 
d="M950 350q2 -60 -46 -104l-272 275l-194 -59l282 -281q-65 -7 -120 -6q-350 0 -350 175v1100q0 175 350 175t350 -175v-1100zM1200 1500q0 325 -600 325t-600 -325v-1200q0 -325 600 -325q170 0 300 23l105 -103l200 55l-126 124q125 88 121 226v1200z" />
    <glyph glyph-name="R" unicode="R" horiz-adv-x="1400" 
d="M0 1800h800q400 0 400 -300v-300q0 -300 -250 -300q250 0 250 -300v-500q0 -100 100 -100h-250q-100 0 -100 100v550q0 150 -200 150h-500v-800h-250v1800zM750 1000q200 0 200 150v300q0 150 -200 150h-500v-600h500z" />
    <glyph glyph-name="S" unicode="S" horiz-adv-x="1400" 
d="M480 1112l240 -37q480 -75 480 -375v-400q0 -325 -600 -325t-600 325v250h250v-200q0 -175 350 -175t350 175v300q5 150 -230 188l-240 37q-480 75 -480 325v300q0 325 600 325t600 -325v-250h-250v200q0 175 -350 175t-350 -175v-150q0 -150 230 -188z" />
    <glyph glyph-name="S" unicode="&#x405;" horiz-adv-x="1400" 
d="M480 1112l240 -37q480 -75 480 -375v-400q0 -325 -600 -325t-600 325v250h250v-200q0 -175 350 -175t350 175v300q5 150 -230 188l-240 37q-480 75 -480 325v300q0 325 600 325t600 -325v-250h-250v200q0 175 -350 175t-350 -175v-150q0 -150 230 -188z" />
    <glyph glyph-name="T" unicode="T" horiz-adv-x="1450" 
d="M500 0v1600h-500v200h1250v-200h-500v-1600h-250z" />
    <glyph glyph-name="T" unicode="&#x422;" horiz-adv-x="1450" 
d="M500 0v1600h-500v200h1250v-200h-500v-1600h-250z" />
    <glyph glyph-name="T" unicode="&#x3a4;" horiz-adv-x="1450" 
d="M500 0v1600h-500v200h1250v-200h-500v-1600h-250z" />
    <glyph glyph-name="U" unicode="U" horiz-adv-x="1400" 
d="M1200 300q0 -325 -600 -325t-600 325v1500h250v-1450q0 -175 350 -175t350 175v1450h250v-1500z" />
    <glyph glyph-name="V" unicode="V" horiz-adv-x="1620" 
d="M1500 1800h-300l-450 -1420l-450 1420h-300l610 -1800h280z" />
    <glyph glyph-name="W" unicode="W" horiz-adv-x="2180" 
d="M830 0l200 1020l200 -1020h300l530 1800h-280l-400 -1420l-200 1420h-300l-200 -1420l-400 1420h-280l530 -1800h300z" />
    <glyph glyph-name="X" unicode="X" horiz-adv-x="1599" 
d="M565 900l-565 900h290l450 -735l450 735h290l-565 -900l565 -900h-290l-450 735l-450 -735h-290z" />
    <glyph glyph-name="X" unicode="&#x425;" horiz-adv-x="1599" 
d="M565 900l-565 900h290l450 -735l450 735h290l-565 -900l565 -900h-290l-450 735l-450 -735h-290z" />
    <glyph glyph-name="X" unicode="&#x3a7;" horiz-adv-x="1599" 
d="M565 900l-565 900h290l450 -735l450 735h290l-565 -900l565 -900h-290l-450 735l-450 -735h-290z" />
    <glyph glyph-name="Y" unicode="Y" horiz-adv-x="1570" 
d="M850 650v-650h-250v650l-600 1150h300l425 -900l425 900h300z" />
    <glyph glyph-name="Y" unicode="&#x4ae;" horiz-adv-x="1570" 
d="M850 650v-650h-250v650l-600 1150h300l425 -900l425 900h300z" />
    <glyph glyph-name="Y" unicode="&#x3a5;" horiz-adv-x="1570" 
d="M850 650v-650h-250v650l-600 1150h300l425 -900l425 900h300z" />
    <glyph glyph-name="Z" unicode="Z" horiz-adv-x="1250" 
d="M275 200h775v-200h-1050v200l775 1400h-775v200h1050v-200z" />
    <glyph glyph-name="Z" unicode="&#x396;" horiz-adv-x="1250" 
d="M275 200h775v-200h-1050v200l775 1400h-775v200h1050v-200z" />
    <glyph glyph-name="bracketleft" unicode="[" horiz-adv-x="700" 
d="M500 1800v200h-500v-2200h500v200h-250v1800h250z" />
    <glyph glyph-name="backslash" unicode="\" horiz-adv-x="1275" 
d="M-3 1846l1015 -1910h266l-1030 1910h-251z" />
    <glyph glyph-name="bracketright" unicode="]" horiz-adv-x="700" 
d="M0 0v-200h500v2200h-500v-200h250v-1800h-250z" />
    <glyph glyph-name="asciicircum" unicode="^" horiz-adv-x="900" 
d="M375 1800l325 -550h-100l-250 250l-250 -250h-98l323 550h50z" />
    <glyph glyph-name="underscore" unicode="_" horiz-adv-x="1400" 
d="M1400 -250v100h-1400v-100h1400z" />
    <glyph glyph-name="grave" unicode="`" horiz-adv-x="450" 
d="M250 1675q0 125 -125 125t-125 -125q0 -275 250 -275v75q-125 0 -125 75q125 0 125 125z" />
    <glyph glyph-name="a" unicode="a" horiz-adv-x="1200" 
d="M440 -25q-440 0 -440 325v170q0 310 500 310q250 0 250 120v50q0 175 -250 175q-215 0 -215 -175v-100h-250v150q0 325 465 325q500 0 500 -325v-825q0 -175 100 -175h-250q-100 0 -100 175q0 -200 -310 -200zM500 580q-250 0 -250 -160v-70q0 -175 250 -175t250 236v259
q0 -90 -250 -90z" />
    <glyph glyph-name="a" unicode="&#x430;" horiz-adv-x="1200" 
d="M440 -25q-440 0 -440 325v170q0 310 500 310q250 0 250 120v50q0 175 -250 175q-215 0 -215 -175v-100h-250v150q0 325 465 325q500 0 500 -325v-825q0 -175 100 -175h-250q-100 0 -100 175q0 -200 -310 -200zM500 580q-250 0 -250 -160v-70q0 -175 250 -175t250 236v259
q0 -90 -250 -90z" />
    <glyph glyph-name="b" unicode="b" 
d="M0 0v1850h250v-725q0 200 425 200t425 -325v-700q0 -325 -425 -325t-425 200v-175h-250zM250 950v-600q0 -175 300 -175t300 175v600q0 175 -300 175t-300 -175z" />
    <glyph glyph-name="c" unicode="c" 
d="M1100 300q0 -325 -550 -325t-550 325v700q0 325 550 325t550 -325v-200h-250v150q0 175 -300 175t-300 -175v-600q0 -175 300 -175t300 175v150h250v-200z" />
    <glyph glyph-name="c" unicode="&#x441;" 
d="M1100 300q0 -325 -550 -325t-550 325v700q0 325 550 325t550 -325v-200h-250v150q0 175 -300 175t-300 -175v-600q0 -175 300 -175t300 175v150h250v-200z" />
    <glyph glyph-name="c" unicode="&#x3f2;" 
d="M1100 300q0 -325 -550 -325t-550 325v700q0 325 550 325t550 -325v-200h-250v150q0 175 -300 175t-300 -175v-600q0 -175 300 -175t300 175v150h250v-200z" />
    <glyph glyph-name="d" unicode="d" 
d="M850 0v175q0 -200 -425 -200t-425 325v700q0 325 425 325t425 -200v725h250v-1850h-250zM550 1125q-300 0 -300 -175v-600q0 -175 300 -175t300 175v600q0 175 -300 175z" />
    <glyph glyph-name="e" unicode="e" 
d="M550 1325q550 0 550 -325v-450h-850v-200q0 -175 300 -175t300 175v100h250v-150q0 -325 -550 -325t-550 325v700q0 325 550 325zM850 750v200q0 175 -300 175t-300 -175v-200h600z" />
    <glyph glyph-name="e" unicode="&#x435;" 
d="M550 1325q550 0 550 -325v-450h-850v-200q0 -175 300 -175t300 175v100h250v-150q0 -325 -550 -325t-550 325v700q0 325 550 325zM850 750v200q0 175 -300 175t-300 -175v-200h600z" />
    <glyph glyph-name="f" unicode="f" horiz-adv-x="840" 
d="M390 0v1100h250v200h-250v200q0 150 250 150v200h-236q-264 0 -264 -300v-250h-140v-200h140v-1100h250z" />
    <glyph glyph-name="g" unicode="g" 
d="M1100 1300v-1500q0 -275 -550 -275t-550 275v125h250v-75q0 -125 300 -125t300 125v325q0 -200 -425 -200t-425 325v700q0 325 425 325t425 -200v175h250zM850 350v600q0 175 -300 175t-300 -175v-600q0 -175 300 -175t300 175z" />
    <glyph glyph-name="h" unicode="h" 
d="M0 1850h250v-725q0 200 425 200t425 -325v-1000h-250v950q0 175 -300 175t-300 -175v-950h-250v1850z" />
    <glyph glyph-name="h" unicode="&#x4bb;" 
d="M0 1850h250v-725q0 200 425 200t425 -325v-1000h-250v950q0 175 -300 175t-300 -175v-950h-250v1850z" />
    <glyph glyph-name="i" unicode="i" horiz-adv-x="450" 
d="M250 1300v-1300h-250v1300h250zM125 1550q-145 0 -145 137.5t145 137.5t145 -137.5t-145 -137.5z" />
    <glyph glyph-name="i" unicode="&#x456;" horiz-adv-x="450" 
d="M250 1300v-1300h-250v1300h250zM125 1550q-145 0 -145 137.5t145 137.5t145 -137.5t-145 -137.5z" />
    <glyph glyph-name="j" unicode="j" horiz-adv-x="450" 
d="M250 1300v-1515q0 -260 -251 -260h-179l1 200q179 0 179 175v1400h250zM125 1550q-145 0 -145 137.5t145 137.5t145 -137.5t-145 -137.5z" />
    <glyph glyph-name="j" unicode="&#x458;" horiz-adv-x="450" 
d="M250 1300v-1515q0 -260 -251 -260h-179l1 200q179 0 179 175v1400h250zM125 1550q-145 0 -145 137.5t145 137.5t145 -137.5t-145 -137.5z" />
    <glyph glyph-name="j" unicode="&#x3f3;" horiz-adv-x="450" 
d="M250 1300v-1515q0 -260 -251 -260h-179l1 200q179 0 179 175v1400h250zM125 1550q-145 0 -145 137.5t145 137.5t145 -137.5t-145 -137.5z" />
    <glyph glyph-name="k" unicode="k" horiz-adv-x="1200" 
d="M0 0v1850h250v-1204l462 654h289l-404 -587l421 -713h-287l-293 484l-188 -265v-219h-250z" />
    <glyph glyph-name="l" unicode="l" horiz-adv-x="450" 
d="M0 0v1850h250v-1850h-250z" />
    <glyph glyph-name="m" unicode="m" horiz-adv-x="1910" 
d="M0 0h250v950q0 175 240 175t240 -175v-950h250v950q0 175 240 175t240 -175v-950h250v1000q0 325 -342 325t-413 -160q-55 160 -380 160t-325 -200v175h-250v-1300z" />
    <glyph glyph-name="n" unicode="n" 
d="M0 1300h250v-175q0 200 425 200t425 -325v-1000h-250v950q0 175 -300 175t-300 -175v-950h-250v1300z" />
    <glyph glyph-name="o" unicode="o" 
d="M850 950q0 175 -300 175t-300 -175v-600q0 -175 300 -175t300 175v600zM1100 300q0 -325 -550 -325t-550 325v700q0 325 550 325t550 -325v-700z" />
    <glyph glyph-name="o" unicode="&#x43e;" 
d="M850 950q0 175 -300 175t-300 -175v-600q0 -175 300 -175t300 175v600zM1100 300q0 -325 -550 -325t-550 325v700q0 325 550 325t550 -325v-700z" />
    <glyph glyph-name="o" unicode="&#x3bf;" 
d="M850 950q0 175 -300 175t-300 -175v-600q0 -175 300 -175t300 175v600zM1100 300q0 -325 -550 -325t-550 325v700q0 325 550 325t550 -325v-700z" />
    <glyph glyph-name="p" unicode="p" 
d="M250 1300v-175q0 200 425 200t425 -325v-700q0 -325 -425 -325t-425 200v-650h-250v1775h250zM550 175q300 0 300 175v600q0 175 -300 175t-300 -175v-600q0 -175 300 -175z" />
    <glyph glyph-name="p" unicode="&#x440;" 
d="M250 1300v-175q0 200 425 200t425 -325v-700q0 -325 -425 -325t-425 200v-650h-250v1775h250zM550 175q300 0 300 175v600q0 175 -300 175t-300 -175v-600q0 -175 300 -175z" />
    <glyph glyph-name="q" unicode="q" 
d="M1100 1300v-1775h-250v650q0 -200 -415 -200t-435 325v700q25 325 437.5 325t412.5 -200v175h250zM850 350v600q0 175 -300 175t-300 -175v-600q0 -175 300 -175t300 175z" />
    <glyph glyph-name="r" unicode="r" horiz-adv-x="1140" 
d="M0 1300h250v-175q0 200 345 200t345 -325v-150h-250v100q0 175 -220 175t-220 -175v-950h-250v1300z" />
    <glyph glyph-name="s" unicode="s" 
d="M275 892v58q0 175 275 175t275 -175v-100h250v150q0 325 -525 325t-525 -325v-125q0 -304 525 -325q300 -18 300 -125v-75q0 -175 -300 -175t-300 175v100h-250v-150q0 -325 550 -325t550 325v175q0 277 -550 300q-275 12 -275 117z" />
    <glyph glyph-name="s" unicode="&#x455;" 
d="M275 892v58q0 175 275 175t275 -175v-100h250v150q0 325 -525 325t-525 -325v-125q0 -304 525 -325q300 -18 300 -125v-75q0 -175 -300 -175t-300 175v100h-250v-150q0 -325 550 -325t550 325v175q0 277 -550 300q-275 12 -275 117z" />
    <glyph glyph-name="t" unicode="t" horiz-adv-x="840" 
d="M390 1700v-400h250v-200h-250v-700q0 -200 250 -200v-200h-250q-250 0 -250 300v800h-140v200h140v400h250z" />
    <glyph glyph-name="u" unicode="u" 
d="M1100 0h-250v175q0 -200 -425 -200t-425 325v1000h250v-950q0 -175 300 -175t300 175v950h250v-1300z" />
    <glyph glyph-name="v" unicode="v" horiz-adv-x="1380" 
d="M780 0h-300l-480 1300h300l330 -1010l330 1010h300z" />
    <glyph glyph-name="w" unicode="w" horiz-adv-x="1520" 
d="M290 0l-290 1300h250l170 -840l155 840h250l145 -840l180 840h250l-290 -1300h-250l-160 730l-160 -730h-250z" />
    <glyph glyph-name="x" unicode="x" horiz-adv-x="1290" 
d="M0 0l465 635l-465 665h290l295 -515l295 515h290l-465 -665l465 -635h-290l-295 465l-295 -465h-290z" />
    <glyph glyph-name="x" unicode="&#x445;" horiz-adv-x="1290" 
d="M0 0l465 635l-465 665h290l295 -515l295 515h290l-465 -665l465 -635h-290l-295 465l-295 -465h-290z" />
    <glyph glyph-name="y" unicode="y" horiz-adv-x="1400" 
d="M691 -216q-83 -259 -285 -259h-186v200h154q87 0 121 124l47 151l-542 1300h300l350 -1008l330 1008h300z" />
    <glyph glyph-name="y" unicode="&#x443;" horiz-adv-x="1400" 
d="M691 -216q-83 -259 -285 -259h-186v200h154q87 0 121 124l47 151l-542 1300h300l350 -1008l330 1008h300z" />
    <glyph glyph-name="z" unicode="z" horiz-adv-x="1200" 
d="M290 200h710v-200h-1000v200l710 900h-710v200h1000v-200z" />
    <glyph glyph-name="braceleft" unicode="{" horiz-adv-x="800" 
d="M550 2000q-400 0 -400 -350v-500q0 -150 -150 -150v-200q150 0 150 -150v-500q0 -350 400 -350h50v200h-50q-150 0 -150 100v600q0 200 -150 200q150 0 150 200v600q0 100 150 100h50v200h-50z" />
    <glyph glyph-name="bar" unicode="|" horiz-adv-x="350" 
d="M150 2200v-2650h-150v2650h150z" />
    <glyph glyph-name="braceright" unicode="}" horiz-adv-x="800" 
d="M50 -200q400 0 400 350v500q0 150 150 150v200q-150 0 -150 150v500q0 350 -400 350h-50v-200h50q150 0 150 -100v-600q0 -200 150 -200q-150 0 -150 -200v-600q0 -100 -150 -100h-50v-200h50z" />
    <glyph glyph-name="asciitilde" unicode="~" horiz-adv-x="1350" 
d="M350 900q-125 0 -125 -100v-50h-225v50q0 300 400 300q200 0 237.5 -100t162.5 -100t125 100v50h225v-50q0 -300 -400 -300q-200 0 -237.5 100t-162.5 100z" />
    <glyph glyph-name="nonbreakingspace" unicode="&#xa0;" horiz-adv-x="498" 
 />
    <glyph glyph-name="exclamdown" unicode="&#xa1;" horiz-adv-x="450" 
d="M25 925l-25 -1425h250l-35 1425h-190zM125 1300q-125 0 -125 -125t125 -125t125 125t-125 125z" />
    <glyph glyph-name="cent" unicode="&#xa2;" 
d="M1100 550q0 -325 -425 -325v-225h-250v225q-425 0 -425 325v700q0 325 425 325v225h250v-225q425 0 425 -325v-200h-250v150q0 175 -300 175t-300 -175v-600q0 -175 300 -175t300 175v150h250v-200z" />
    <glyph glyph-name="sterling" unicode="&#xa3;" horiz-adv-x="1550" 
d="M1350 0h-1350v200q200 0 200 236v364h-200v200h200v514q0 311 585 311q565 0 565 -311v-264h-250v196q0 179 -313 179q-337 0 -337 -185v-440h500v-200h-500v-289q0 -311 -148 -311h1048v-200z" />
    <glyph glyph-name="currency" unicode="&#xa4;" horiz-adv-x="1500" 
d="M1200 300q0 -325 -600 -325t-600 325v350h-100v150h100v200h-100v150h100v350q0 325 600 325t600 -325v-250h-250v200q0 175 -350 175t-350 -175v-300h550l-50 -150h-500v-200h450l-50 -150h-400v-300q0 -175 350 -175t350 175v200h250v-250z" />
    <glyph glyph-name="currency" unicode="&#x20ac;" horiz-adv-x="1500" 
d="M1200 300q0 -325 -600 -325t-600 325v350h-100v150h100v200h-100v150h100v350q0 325 600 325t600 -325v-250h-250v200q0 175 -350 175t-350 -175v-300h550l-50 -150h-500v-200h450l-50 -150h-400v-300q0 -175 350 -175t350 175v200h250v-250z" />
    <glyph glyph-name="yen" unicode="&#xa5;" horiz-adv-x="1568" 
d="M850 650v-50h200v-100h-200v-100h200v-100h-200v-300h-250v300h-200v100h200v100h-200v100h200v50l-600 1150h300l425 -900l425 900h300z" />
    <glyph glyph-name="brokenbar" unicode="&#xa6;" horiz-adv-x="432" 
d="M282 699v-1136h-132v1136h132zM282 2234v-1125h-132v1125h132z" />
    <glyph glyph-name="section" unicode="&#xa7;" horiz-adv-x="1400" 
d="M600 -375q-600 0 -600 250v150h250v-50q0 -150 350 -150t350 150v100q0 130 -350 200q-600 120 -600 350v200q0 215 185 280q-185 105 -185 270v200q0 250 600 250t600 -250v-150h-250v50q0 150 -350 150t-350 -150v-100q0 -95 350 -200q600 -165 600 -350v-200
q0 -215 -185 -280q190 -95 185 -270v-200q0 -250 -600 -250zM725 455q225 20 225 170v100q0 145 -350 250l-115 30q-235 -30 -235 -180v-100q0 -180 350 -250z" />
    <glyph glyph-name="dieresis" unicode="&#xa8;" horiz-adv-x="950" 
d="M0 1775q0 125 125 125t125 -125t-125 -125t-125 125zM500 1775q0 125 125 125t125 -125t-125 -125t-125 125z" />
    <glyph glyph-name="copyright" unicode="&#xa9;" horiz-adv-x="1790" 
d="M1200 782h-250v-127q0 -155 -200 -155t-200 194v417q0 189 200 189t200 -189v-122l250 1v189q0 321 -450 321t-450 -315v-598q0 -287 450 -287t450 297v185zM1250 470q0 -295 -500 -295t-500 301v856q0 293 500 293t500 -291v-864zM1500 1398q0 427 -750 427t-750 -479
v-866q0 -505 750 -505t750 479v944z" />
    <glyph glyph-name="ordfeminine" unicode="&#xaa;" horiz-adv-x="740" 
d="M220 1087.5q-220 0 -220 162.5v85q0 155 250 155q125 0 125 60v25q0 87.5 -125 87.5q-107.5 0 -107.5 -87.5v-50h-125v75q0 162.5 232.5 162.5q250 0 250 -162.5v-412.5q0 -87.5 50 -87.5h-125q-50 0 -50 87.5q0 -100 -155 -100zM250 1390q-125 0 -125 -80v-35
q0 -87.5 125 -87.5t125 118v129.5q0 -45 -125 -45zM-90 860.01v140.002h700.012v-140.002h-700.012z" />
    <glyph glyph-name="guillemotleft" unicode="&#xab;" horiz-adv-x="1200" 
d="M422 582v196l-203 120l203 114v208l-422 -264v-100zM902 582v196l-203 120l203 114v208l-422 -264v-100z" />
    <glyph glyph-name="logicalnot" unicode="&#xac;" horiz-adv-x="1505" 
d="M1353 1345v-630h-240v400h-960v230h1200v0z" />
    <glyph glyph-name="SoftHyphen" unicode="&#xad;" horiz-adv-x="889" 
d="M744 785v220h-600v-220h600z" />
    <glyph glyph-name="registered" unicode="&#xae;" horiz-adv-x="1790" 
d="M1250 470q0 -295 -515 -295q-485 0 -485 301v856q0 293 491 293q509 0 509 -291v-864zM1500 1398q0 427 -759 427q-741 0 -741 -479v-866q0 -505 739 -505q761 0 761 479v944zM300 400h250v350h273q127 0 127 -101v-139q0 -110 90 -110h229q-69 0 -69 109v184
q0 157 -169 157q169 0 169 179v143q0 228 -309 228h-591v-1000zM550 950v250h275q125 0 125 -56v-102q0 -92 -131 -92h-269z" />
    <glyph glyph-name="macron" unicode="&#xaf;" horiz-adv-x="1000" 
d="M0 1650v100h800v-100h-800z" />
    <glyph glyph-name="macron" unicode="&#x2c9;" horiz-adv-x="1000" 
d="M0 1650v100h800v-100h-800z" />
    <glyph glyph-name="degree" unicode="&#xb0;" horiz-adv-x="1000" 
d="M800 1550q0 250 -400 250t-400 -250v-300q0 -250 400 -250t400 250v300zM600 1300q0 -150 -200 -150t-200 150v200q0 150 200 150t200 -150v-200z" />
    <glyph glyph-name="plusminus" unicode="&#xb1;" horiz-adv-x="1100" 
d="M400 600v400h-400v200h400v400h200v-400h400v-200h-400v-400h-200zM0 200v200h1000v-200h-1000z" />
    <glyph glyph-name="twosuperior" unicode="&#xb2;" horiz-adv-x="1000" 
d="M550 1550q0 75 -150 75t-150 -75v-50h-250v100q0 225 400 225t400 -225v-100q0 -200 -400 -250q-150 -25 -150 -150h550v-200h-800v293q0 205 400 257q150 25 150 100z" />
    <glyph glyph-name="threesuperior" unicode="&#xb3;" horiz-adv-x="1050" 
d="M425 1625q175 0 175 -100t-125 -100h-150v-150h150q125 0 125 -100t-175 -100t-175 112l-250 -1v-92q0 -219 425 -219t425 275q0 200 -174 200q174 0 174 200q0 275 -425 275t-425 -254v-80l250 -1q0 135 175 135z" />
    <glyph glyph-name="acute" unicode="&#xb4;" horiz-adv-x="600" 
d="M0 1600l125 300h275l-250 -300h-150z" />
    <glyph glyph-name="acute" unicode="&#x384;" horiz-adv-x="600" 
d="M0 1600l125 300h275l-250 -300h-150z" />
    <glyph glyph-name="acute" unicode="&#x2ca;" horiz-adv-x="600" 
d="M0 1600l125 300h275l-250 -300h-150z" />
    <glyph glyph-name="mu" unicode="&#xb5;" horiz-adv-x="1550" 
d="M0 1300h250v-950q0 -175 300 -175t300 175v950h250v-1000q75 -180 300 0v-250q-230 -160 -350 100q0 -175 -400 -175t-400 200v-650h-250v1775z" />
    <glyph glyph-name="mu" unicode="&#x3bc;" horiz-adv-x="1550" 
d="M0 1300h250v-950q0 -175 300 -175t300 175v950h250v-1000q75 -180 300 0v-250q-230 -160 -350 100q0 -175 -400 -175t-400 200v-650h-250v1775z" />
    <glyph glyph-name="paragraph" unicode="&#xb6;" horiz-adv-x="1400" 
d="M1201 0h-251v1600h-100v-1600h-250v700h-150q-450 0 -450 350v400q0 350 450 350h752z" />
    <glyph glyph-name="periodcentered" unicode="&#xb7;" horiz-adv-x="550" 
d="M272 676q123 0 123 127q0 128 -123 128t-123 -128q0 -127 123 -127z" />
    <glyph glyph-name="periodcentered" unicode="&#x2219;" horiz-adv-x="550" 
d="M272 676q123 0 123 127q0 128 -123 128t-123 -128q0 -127 123 -127z" />
    <glyph glyph-name="periodcentered" unicode="&#x387;" horiz-adv-x="550" 
d="M272 676q123 0 123 127q0 128 -123 128t-123 -128q0 -127 123 -127z" />
    <glyph glyph-name="cedilla" unicode="&#xb8;" horiz-adv-x="650" 
d="M275 50v-197q0 47 87.5 47t87.5 -111v-127q0 -112 -225 -112t-225 112v58l100 1v-33q0 -63 125 -63t125 65v85q0 50 -37.5 50t-37.5 -40v-35h-100v300h100z" />
    <glyph glyph-name="onesuperior" unicode="&#xb9;" horiz-adv-x="650" 
d="M0 1650v-200h200v-550h250v900h-250q0 -150 -200 -150z" />
    <glyph glyph-name="ordmasculine" unicode="&#xba;" horiz-adv-x="760" 
d="M425 1575q0 87.5 -150 87.5t-150 -87.5v-300q0 -87.5 150 -87.5t150 87.5v300zM550 1250q0 -162.5 -275 -162.5t-275 162.5v350q0 162.5 275 162.5t275 -162.5v-350zM-70 860.01v140.002h700.012v-140.002h-700.012z" />
    <glyph glyph-name="guillemotright" unicode="&#xbb;" horiz-adv-x="1200" 
d="M628 582v196l203 120l-203 114v208l422 -264v-100zM148 582v196l203 120l-203 114v208l422 -264v-100z" />
    <glyph glyph-name="onequarter" unicode="&#xbc;" horiz-adv-x="1750" 
d="M1600 1850l-1275 -1900h-175l1275 1900h175zM365 1775v-100h145v-725h125v900h-125q0 -75 -145 -75zM1500 225h-55v625h-125l-420 -625v-100h420v-175h125v175h55v100zM1020 225l300 442.5v-442.5h-300z" />
    <glyph glyph-name="onehalf" unicode="&#xbd;" horiz-adv-x="1750" 
d="M1600 1850l-1275 -1900h-175l1275 1900h175zM365 1775v-100h145v-725h125v900h-125q0 -75 -145 -75zM1475 545v100q0 87.5 -176 87.5q-174 0 -174 -87.5v-100h-125v125q0 162.5 300 162.5t300 -162.5v-150q0 -125 -240 -162.5l-120 -18.5q-115 -19 -115 -94v-225h475
v-100h-600v350q0 125 240 162.5l120 18.5q115 19 115 94z" />
    <glyph glyph-name="threequarters" unicode="&#xbe;" horiz-adv-x="1750" 
d="M1600 1850l-1275 -1900h-175l1275 1900h175zM275 1675v-100h-125v125q0 162.5 300 162.5t300 -162.5v-125q0 -150 -125 -150q125 0 125 -150v-175q0 -162.5 -300 -162.5t-300 162.5v125h125v-100q0 -87.5 175 -87.5t175 87.5v175q0 75 -100 75h-175v100h175q100 0 100 75
v125q0 87.5 -175 87.5t-175 -87.5zM1500 225h-55v625h-125l-420 -625v-100h420v-175h125v175h55v100zM1020 225l300 442.5v-442.5h-300z" />
    <glyph glyph-name="questiondown" unicode="&#xbf;" horiz-adv-x="1400" 
d="M250 125v-275q0 -175 359 -175q341 0 341 175v200h250v-250q0 -325 -593 -325q-607 0 -607 325v350q0 244 243 292l216 66q91 26 91 92v150h250v-187q-5 -188 -192 -240l-223 -58q-135 -55 -135 -140zM675 1300q-125 0 -125 -125t125 -125t125 125t-125 125z" />
    <glyph glyph-name="Agrave" unicode="&#xc0;" horiz-adv-x="1620" 
d="M610 1800h280l610 -1800h-300l-160 500h-580l-160 -500h-300zM975 700l-225 720l-225 -720h450zM675 1900l-250 300h300l100 -300h-150z" />
    <glyph glyph-name="Aacute" unicode="&#xc1;" horiz-adv-x="1620" 
d="M610 1800h280l610 -1800h-300l-160 500h-580l-160 -500h-300zM975 700l-225 720l-225 -720h450zM675 1900l125 300h275l-250 -300h-150z" />
    <glyph glyph-name="Acircumflex" unicode="&#xc2;" horiz-adv-x="1620" 
d="M610 1800h280l610 -1800h-300l-160 500h-580l-160 -500h-300zM975 700l-225 720l-225 -720h450zM769 2206l281 -192l-94 -113l-206 150l-206 -150l-92 113l279 192h38z" />
    <glyph glyph-name="Atilde" unicode="&#xc3;" horiz-adv-x="1620" 
d="M610 1800h280l610 -1800h-300l-160 500h-580l-160 -500h-300zM975 700l-225 720l-225 -720h450zM987.5 2000q112.5 0 112.5 100v50h150v-50q0 -250 -300 -250q-125 0 -200 75t-187.5 75t-112.5 -100v-50h-150v50q0 250 300 250q125 0 200 -75t187.5 -75z" />
    <glyph glyph-name="Adieresis" unicode="&#xc4;" horiz-adv-x="1620" 
d="M610 1800h280l610 -1800h-300l-160 500h-580l-160 -500h-300zM975 700l-225 720l-225 -720h450zM375 2075q0 125 125 125t125 -125t-125 -125t-125 125zM875 2075q0 125 125 125t125 -125t-125 -125t-125 125z" />
    <glyph glyph-name="Adieresis" unicode="&#x4d2;" horiz-adv-x="1620" 
d="M610 1800h280l610 -1800h-300l-160 500h-580l-160 -500h-300zM975 700l-225 720l-225 -720h450zM375 2075q0 125 125 125t125 -125t-125 -125t-125 125zM875 2075q0 125 125 125t125 -125t-125 -125t-125 125z" />
    <glyph glyph-name="Aring" unicode="&#xc5;" horiz-adv-x="1620" 
d="M610 1800h280l610 -1800h-300l-160 500h-580l-160 -500h-300zM975 700l-225 720l-225 -720h450zM950 1975q0 -150 -200 -150t-200 150v100q0 150 200 150t200 -150v-100zM850 2050q0 75 -100 75t-100 -75v-50q0 -75 100 -75t100 75v50z" />
    <glyph glyph-name="AE" unicode="&#xc6;" horiz-adv-x="2110" 
d="M1200 1600v-575h625v-200h-625v-625h750v-200h-1000v350h-470l-180 -350h-300l950 1800h1000v-200h-750zM580 550h370v750z" />
    <glyph glyph-name="AE" unicode="&#x4d4;" horiz-adv-x="2110" 
d="M1200 1600v-575h625v-200h-625v-625h750v-200h-1000v350h-470l-180 -350h-300l950 1800h1000v-200h-750zM580 550h370v750z" />
    <glyph glyph-name="Ccedilla" unicode="&#xc7;" horiz-adv-x="1400" 
d="M1200 300q0 -325 -600 -325t-600 325v1200q0 325 600 325t600 -325v-250h-250v200q0 175 -350 175t-350 -175v-1100q0 -175 350 -175t350 175v200h250v-250zM625 50v-197q0 47 87.5 47t87.5 -111v-127q0 -112 -225 -112t-225 112v58l100 1v-33q0 -63 125 -63t125 65v85
q0 50 -37.5 50t-37.5 -40v-35h-100v300h100z" />
    <glyph glyph-name="Egrave" unicode="&#xc8;" horiz-adv-x="1200" 
d="M250 1600v-575h625v-200h-625v-625h750v-200h-1000v1800h1000v-200h-750zM450 1900l-250 300h300l100 -300h-150z" />
    <glyph glyph-name="Egrave" unicode="&#x400;" horiz-adv-x="1200" 
d="M250 1600v-575h625v-200h-625v-625h750v-200h-1000v1800h1000v-200h-750zM450 1900l-250 300h300l100 -300h-150z" />
    <glyph glyph-name="Eacute" unicode="&#xc9;" horiz-adv-x="1200" 
d="M250 1600v-575h625v-200h-625v-625h750v-200h-1000v1800h1000v-200h-750zM400 1900l125 300h275l-250 -300h-150z" />
    <glyph glyph-name="Ecircumflex" unicode="&#xca;" horiz-adv-x="1200" 
d="M250 1600v-575h625v-200h-625v-625h750v-200h-1000v1800h1000v-200h-750zM519 2156l281 -192l-94 -113l-206 150l-206 -150l-92 113l279 192h38z" />
    <glyph glyph-name="Edieresis" unicode="&#xcb;" horiz-adv-x="1200" 
d="M250 1600v-575h625v-200h-625v-625h750v-200h-1000v1800h1000v-200h-750zM150 2075q0 125 125 125t125 -125t-125 -125t-125 125zM650 2075q0 125 125 125t125 -125t-125 -125t-125 125z" />
    <glyph glyph-name="Edieresis" unicode="&#x401;" horiz-adv-x="1200" 
d="M250 1600v-575h625v-200h-625v-625h750v-200h-1000v1800h1000v-200h-750zM150 2075q0 125 125 125t125 -125t-125 -125t-125 125zM650 2075q0 125 125 125t125 -125t-125 -125t-125 125z" />
    <glyph glyph-name="Igrave" unicode="&#xcc;" horiz-adv-x="650" 
d="M0 0v200h100v1400h-100v200h450v-200h-100v-1400h100v-200h-450zM150 1900l-250 300h300l100 -300h-150z" />
    <glyph glyph-name="Iacute" unicode="&#xcd;" horiz-adv-x="650" 
d="M0 0v200h100v1400h-100v200h450v-200h-100v-1400h100v-200h-450zM150 1900l125 300h275l-250 -300h-150z" />
    <glyph glyph-name="Icircumflex" unicode="&#xce;" horiz-adv-x="650" 
d="M0 0v200h100v1400h-100v200h450v-200h-100v-1400h100v-200h-450zM244 2156l281 -192l-94 -113l-206 150l-206 -150l-92 113l279 192h38z" />
    <glyph glyph-name="Idieresis" unicode="&#xcf;" horiz-adv-x="650" 
d="M0 0v200h100v1400h-100v200h450v-200h-100v-1400h100v-200h-450zM-150 2075q0 125 125 125t125 -125t-125 -125t-125 125zM350 2075q0 125 125 125t125 -125t-125 -125t-125 125z" />
    <glyph glyph-name="Idieresis" unicode="&#x407;" horiz-adv-x="650" 
d="M0 0v200h100v1400h-100v200h450v-200h-100v-1400h100v-200h-450zM-150 2075q0 125 125 125t125 -125t-125 -125t-125 125zM350 2075q0 125 125 125t125 -125t-125 -125t-125 125z" />
    <glyph glyph-name="Idieresis" unicode="&#x3aa;" horiz-adv-x="650" 
d="M0 0v200h100v1400h-100v200h450v-200h-100v-1400h100v-200h-450zM-150 2075q0 125 125 125t125 -125t-125 -125t-125 125zM350 2075q0 125 125 125t125 -125t-125 -125t-125 125z" />
    <glyph glyph-name="Eth" unicode="&#xd0;" horiz-adv-x="1550" 
d="M0 1800h850q350 0 350 -300v-1200q0 -300 -350 -300h-850v800h-200v200h200v800zM750 200q200 0 200 150v1100q0 150 -200 150h-500v-600h200v-200h-200v-600h500z" />
    <glyph glyph-name="Eth" unicode="&#x189;" horiz-adv-x="1550" 
d="M0 1800h850q350 0 350 -300v-1200q0 -300 -350 -300h-850v800h-200v200h200v800zM750 200q200 0 200 150v1100q0 150 -200 150h-500v-600h200v-200h-200v-600h500z" />
    <glyph glyph-name="Eth" unicode="&#x110;" horiz-adv-x="1550" 
d="M0 1800h850q350 0 350 -300v-1200q0 -300 -350 -300h-850v800h-200v200h200v800zM750 200q200 0 200 150v1100q0 150 -200 150h-500v-600h200v-200h-200v-600h500z" />
    <glyph glyph-name="Ntilde" unicode="&#xd1;" 
d="M300 1800l550 -1300v1300h250v-1800h-300l-550 1300v-1300h-250v1800h300zM787.5 2000q112.5 0 112.5 100v50h150v-50q0 -250 -300 -250q-125 0 -200 75t-187.5 75t-112.5 -100v-50h-150v50q0 250 300 250q125 0 200 -75t187.5 -75z" />
    <glyph glyph-name="Ograve" unicode="&#xd2;" horiz-adv-x="1400" 
d="M950 1450q0 175 -350 175t-350 -175v-1100q0 -175 350 -175t350 175v1100zM1200 300q0 -325 -600 -325t-600 325v1200q0 325 600 325t600 -325v-1200zM550 1900l-250 300h300l100 -300h-150z" />
    <glyph glyph-name="Oacute" unicode="&#xd3;" horiz-adv-x="1400" 
d="M950 1450q0 175 -350 175t-350 -175v-1100q0 -175 350 -175t350 175v1100zM1200 300q0 -325 -600 -325t-600 325v1200q0 325 600 325t600 -325v-1200zM500 1900l125 300h275l-250 -300h-150z" />
    <glyph glyph-name="Ocircumflex" unicode="&#xd4;" horiz-adv-x="1400" 
d="M950 1450q0 175 -350 175t-350 -175v-1100q0 -175 350 -175t350 175v1100zM1200 300q0 -325 -600 -325t-600 325v1200q0 325 600 325t600 -325v-1200zM619 2156l281 -192l-94 -113l-206 150l-206 -150l-92 113l279 192h38z" />
    <glyph glyph-name="Otilde" unicode="&#xd5;" horiz-adv-x="1400" 
d="M950 1450q0 175 -350 175t-350 -175v-1100q0 -175 350 -175t350 175v1100zM1200 300q0 -325 -600 -325t-600 325v1200q0 325 600 325t600 -325v-1200zM837.5 2000q112.5 0 112.5 100v50h150v-50q0 -250 -300 -250q-125 0 -200 75t-187.5 75t-112.5 -100v-50h-150v50
q0 250 300 250q125 0 200 -75t187.5 -75z" />
    <glyph glyph-name="Odieresis" unicode="&#xd6;" horiz-adv-x="1400" 
d="M950 1450q0 175 -350 175t-350 -175v-1100q0 -175 350 -175t350 175v1100zM1200 300q0 -325 -600 -325t-600 325v1200q0 325 600 325t600 -325v-1200zM225 2075q0 125 125 125t125 -125t-125 -125t-125 125zM725 2075q0 125 125 125t125 -125t-125 -125t-125 125z" />
    <glyph glyph-name="Odieresis" unicode="&#x4e6;" horiz-adv-x="1400" 
d="M950 1450q0 175 -350 175t-350 -175v-1100q0 -175 350 -175t350 175v1100zM1200 300q0 -325 -600 -325t-600 325v1200q0 325 600 325t600 -325v-1200zM225 2075q0 125 125 125t125 -125t-125 -125t-125 125zM725 2075q0 125 125 125t125 -125t-125 -125t-125 125z" />
    <glyph glyph-name="multiply" unicode="&#xd7;" horiz-adv-x="1200" 
d="M111 1430l389 -389l389 389l141 -141l-389 -389l389 -389l-141 -141l-389 389l-389 -389l-141 141l389 389l-389 389z" />
    <glyph glyph-name="Oslash" unicode="&#xd8;" horiz-adv-x="1400" 
d="M250 350q0 -175 350 -175t350 175v620l-700 -400v-220zM1200 300q0 -325 -600 -325t-600 325v120l-65 -30l-110 190l175 105v815q0 325 600 325t600 -325v-130l65 35l125 -180l-190 -110v-815zM955 1450q0 175 -350 175t-350 -175v-620l700 400v220z" />
    <glyph glyph-name="Ugrave" unicode="&#xd9;" horiz-adv-x="1400" 
d="M1200 300q0 -325 -600 -325t-600 325v1500h250v-1450q0 -175 350 -175t350 175v1450h250v-1500zM550 1900l-250 300h300l100 -300h-150z" />
    <glyph glyph-name="Uacute" unicode="&#xda;" horiz-adv-x="1400" 
d="M1200 300q0 -325 -600 -325t-600 325v1500h250v-1450q0 -175 350 -175t350 175v1450h250v-1500zM500 1900l125 300h275l-250 -300h-150z" />
    <glyph glyph-name="Ucircumflex" unicode="&#xdb;" horiz-adv-x="1400" 
d="M1200 300q0 -325 -600 -325t-600 325v1500h250v-1450q0 -175 350 -175t350 175v1450h250v-1500zM619 2156l281 -192l-94 -113l-206 150l-206 -150l-92 113l279 192h38z" />
    <glyph glyph-name="Udieresis" unicode="&#xdc;" horiz-adv-x="1400" 
d="M1200 300q0 -325 -600 -325t-600 325v1500h250v-1450q0 -175 350 -175t350 175v1450h250v-1500zM225 2075q0 125 125 125t125 -125t-125 -125t-125 125zM725 2075q0 125 125 125t125 -125t-125 -125t-125 125z" />
    <glyph glyph-name="Yacute" unicode="&#xdd;" horiz-adv-x="1570" 
d="M850 650v-650h-250v650l-600 1150h300l425 -900l425 900h300zM650 1900l125 300h275l-250 -300h-150z" />
    <glyph glyph-name="Thorn" unicode="&#xde;" horiz-adv-x="1400" 
d="M0 1800h250v-300h500q450 0 450 -350v-400q0 -350 -450 -350h-500v-400h-250v1800zM650 600q300 0 300 200v300q0 200 -300 200h-400v-700h400z" />
    <glyph glyph-name="germandbls" unicode="&#xdf;" horiz-adv-x="1400" 
d="M623 1625q327 0 327 -225v-100q0 -200 -300 -200h-222l2 -200h220q300 0 300 -200v-350q0 -175 -150 -175t-150 175h-250v-50q0 -325 400 -325t400 325v450q0 250 -350 250q350 0 350 250v200q0 375 -565 375q-585 0 -585 -375v-1021h-100v-189l100 1v-241h250v1400
q0 225 323 225z" />
    <glyph glyph-name="agrave" unicode="&#xe0;" horiz-adv-x="1200" 
d="M440 -25q-440 0 -440 325v170q0 310 500 310q250 0 250 120v50q0 175 -250 175q-215 0 -215 -175v-100h-250v150q0 325 465 325q500 0 500 -325v-825q0 -175 100 -175h-250q-100 0 -100 175q0 -200 -310 -200zM500 580q-250 0 -250 -160v-70q0 -175 250 -175t250 236v259
q0 -90 -250 -90zM450 1400l-250 300h300l100 -300h-150z" />
    <glyph glyph-name="aacute" unicode="&#xe1;" horiz-adv-x="1200" 
d="M440 -25q-440 0 -440 325v170q0 310 500 310q250 0 250 120v50q0 175 -250 175q-215 0 -215 -175v-100h-250v150q0 325 465 325q500 0 500 -325v-825q0 -175 100 -175h-250q-100 0 -100 175q0 -200 -310 -200zM500 580q-250 0 -250 -160v-70q0 -175 250 -175t250 236v259
q0 -90 -250 -90zM400 1400l125 300h275l-250 -300h-150z" />
    <glyph glyph-name="acircumflex" unicode="&#xe2;" horiz-adv-x="1200" 
d="M440 -25q-440 0 -440 325v170q0 310 500 310q250 0 250 120v50q0 175 -250 175q-215 0 -215 -175v-100h-250v150q0 325 465 325q500 0 500 -325v-825q0 -175 100 -175h-250q-100 0 -100 175q0 -200 -310 -200zM500 580q-250 0 -250 -160v-70q0 -175 250 -175t250 236v259
q0 -90 -250 -90zM519 1806l281 -192l-94 -113l-206 150l-206 -150l-92 113l279 192h38z" />
    <glyph glyph-name="atilde" unicode="&#xe3;" horiz-adv-x="1200" 
d="M440 -25q-440 0 -440 325v170q0 310 500 310q250 0 250 120v50q0 175 -250 175q-215 0 -215 -175v-100h-250v150q0 325 465 325q500 0 500 -325v-825q0 -175 100 -175h-250q-100 0 -100 175q0 -200 -310 -200zM500 580q-250 0 -250 -160v-70q0 -175 250 -175t250 236v259
q0 -90 -250 -90zM737.5 1600q112.5 0 112.5 100v50h150v-50q0 -250 -300 -250q-125 0 -200 75t-187.5 75t-112.5 -100v-50h-150v50q0 250 300 250q125 0 200 -75t187.5 -75z" />
    <glyph glyph-name="adieresis" unicode="&#xe4;" horiz-adv-x="1200" 
d="M440 -25q-440 0 -440 325v170q0 310 500 310q250 0 250 120v50q0 175 -250 175q-215 0 -215 -175v-100h-250v150q0 325 465 325q500 0 500 -325v-825q0 -175 100 -175h-250q-100 0 -100 175q0 -200 -310 -200zM500 580q-250 0 -250 -160v-70q0 -175 250 -175t250 236v259
q0 -90 -250 -90zM150 1575q0 125 125 125t125 -125t-125 -125t-125 125zM650 1575q0 125 125 125t125 -125t-125 -125t-125 125z" />
    <glyph glyph-name="adieresis" unicode="&#x4d3;" horiz-adv-x="1200" 
d="M440 -25q-440 0 -440 325v170q0 310 500 310q250 0 250 120v50q0 175 -250 175q-215 0 -215 -175v-100h-250v150q0 325 465 325q500 0 500 -325v-825q0 -175 100 -175h-250q-100 0 -100 175q0 -200 -310 -200zM500 580q-250 0 -250 -160v-70q0 -175 250 -175t250 236v259
q0 -90 -250 -90zM150 1575q0 125 125 125t125 -125t-125 -125t-125 125zM650 1575q0 125 125 125t125 -125t-125 -125t-125 125z" />
    <glyph glyph-name="aring" unicode="&#xe5;" horiz-adv-x="1200" 
d="M440 -25q-440 0 -440 325v170q0 310 500 310q250 0 250 120v50q0 175 -250 175q-215 0 -215 -175v-100h-250v150q0 325 465 325q500 0 500 -325v-825q0 -175 100 -175h-250q-100 0 -100 175q0 -200 -310 -200zM500 580q-250 0 -250 -160v-70q0 -175 250 -175t250 236v259
q0 -90 -250 -90zM700 1525q0 -150 -200 -150t-200 150v100q0 150 200 150t200 -150v-100zM600 1600q0 75 -100 75t-100 -75v-50q0 -75 100 -75t100 75v50z" />
    <glyph glyph-name="ae" unicode="&#xe6;" horiz-adv-x="2050" 
d="M1600 750v200q0 175 -300 175t-300 -175v-200h600zM440 -25q-440 0 -440 325v170q0 310 500 310q250 0 250 120v50q0 175 -250 175q-215 0 -215 -175v-100h-250v150q0 325 465 325q275 0 375 -125q100 125 425 125q550 0 550 -325v-450h-850v-150q0 -225 300 -225
t300 175v100h250v-150q0 -325 -550 -325q-375 0 -425 200q-50 -200 -435 -200zM500 580q-250 0 -250 -160v-70q0 -175 250 -175t250 236v259q0 -90 -250 -90z" />
    <glyph glyph-name="ae" unicode="&#x4d5;" horiz-adv-x="2050" 
d="M1600 750v200q0 175 -300 175t-300 -175v-200h600zM440 -25q-440 0 -440 325v170q0 310 500 310q250 0 250 120v50q0 175 -250 175q-215 0 -215 -175v-100h-250v150q0 325 465 325q275 0 375 -125q100 125 425 125q550 0 550 -325v-450h-850v-150q0 -225 300 -225
t300 175v100h250v-150q0 -325 -550 -325q-375 0 -425 200q-50 -200 -435 -200zM500 580q-250 0 -250 -160v-70q0 -175 250 -175t250 236v259q0 -90 -250 -90z" />
    <glyph glyph-name="ccedilla" unicode="&#xe7;" 
d="M1100 300q0 -325 -550 -325t-550 325v700q0 325 550 325t550 -325v-200h-250v150q0 175 -300 175t-300 -175v-600q0 -175 300 -175t300 175v150h250v-200zM575 50v-197q0 47 87.5 47t87.5 -111v-127q0 -112 -225 -112t-225 112v58l100 1v-33q0 -63 125 -63t125 65v85
q0 50 -37.5 50t-37.5 -40v-35h-100v300h100z" />
    <glyph glyph-name="egrave" unicode="&#xe8;" 
d="M550 1325q550 0 550 -325v-450h-850v-200q0 -175 300 -175t300 175v100h250v-150q0 -325 -550 -325t-550 325v700q0 325 550 325zM850 750v200q0 175 -300 175t-300 -175v-200h600zM500 1400l-250 300h300l100 -300h-150z" />
    <glyph glyph-name="egrave" unicode="&#x450;" 
d="M550 1325q550 0 550 -325v-450h-850v-200q0 -175 300 -175t300 175v100h250v-150q0 -325 -550 -325t-550 325v700q0 325 550 325zM850 750v200q0 175 -300 175t-300 -175v-200h600zM500 1400l-250 300h300l100 -300h-150z" />
    <glyph glyph-name="eacute" unicode="&#xe9;" 
d="M550 1325q550 0 550 -325v-450h-850v-200q0 -175 300 -175t300 175v100h250v-150q0 -325 -550 -325t-550 325v700q0 325 550 325zM850 750v200q0 175 -300 175t-300 -175v-200h600zM400 1400l125 300h275l-250 -300h-150z" />
    <glyph glyph-name="ecircumflex" unicode="&#xea;" 
d="M550 1325q550 0 550 -325v-450h-850v-200q0 -175 300 -175t300 175v100h250v-150q0 -325 -550 -325t-550 325v700q0 325 550 325zM850 750v200q0 175 -300 175t-300 -175v-200h600zM569 1806l281 -192l-94 -113l-206 150l-206 -150l-92 113l279 192h38z" />
    <glyph glyph-name="edieresis" unicode="&#xeb;" 
d="M550 1325q550 0 550 -325v-450h-850v-200q0 -175 300 -175t300 175v100h250v-150q0 -325 -550 -325t-550 325v700q0 325 550 325zM850 750v200q0 175 -300 175t-300 -175v-200h600zM175 1575q0 125 125 125t125 -125t-125 -125t-125 125zM675 1575q0 125 125 125
t125 -125t-125 -125t-125 125z" />
    <glyph glyph-name="edieresis" unicode="&#x451;" 
d="M550 1325q550 0 550 -325v-450h-850v-200q0 -175 300 -175t300 175v100h250v-150q0 -325 -550 -325t-550 325v700q0 325 550 325zM850 750v200q0 175 -300 175t-300 -175v-200h600zM175 1575q0 125 125 125t125 -125t-125 -125t-125 125zM675 1575q0 125 125 125
t125 -125t-125 -125t-125 125z" />
    <glyph glyph-name="igrave" unicode="&#xec;" horiz-adv-x="450" 
d="M0 1300v-1300h250v1300h-250zM50 1400l-250 300h300l100 -300h-150z" />
    <glyph glyph-name="iacute" unicode="&#xed;" horiz-adv-x="450" 
d="M0 1300v-1300h250v1300h-250zM50 1400l125 300h275l-250 -300h-150z" />
    <glyph glyph-name="icircumflex" unicode="&#xee;" horiz-adv-x="450" 
d="M0 1300v-1300h250v1300h-250zM144 1756l281 -192l-94 -113l-206 150l-206 -150l-92 113l279 192h38z" />
    <glyph glyph-name="idieresis" unicode="&#xef;" horiz-adv-x="450" 
d="M0 1300v-1300h250v1300h-250zM-250 1625q0 125 125 125t125 -125t-125 -125t-125 125zM250 1625q0 125 125 125t125 -125t-125 -125t-125 125z" />
    <glyph glyph-name="idieresis" unicode="&#x457;" horiz-adv-x="450" 
d="M0 1300v-1300h250v1300h-250zM-250 1625q0 125 125 125t125 -125t-125 -125t-125 125zM250 1625q0 125 125 125t125 -125t-125 -125t-125 125z" />
    <glyph glyph-name="eth" unicode="&#xf0;" horiz-adv-x="1450" 
d="M606 1050q-356 0 -356 -200v-450q0 -225 365 -225q385 0 385 225v450q0 200 -394 200zM602 -25q-602 0 -602 325v650q0 300 604 300q287 0 396 -171v171q0 90 -35 150l-215 -125l-70 115l200 108q-180 102 -478 102h-224v200h235q537 0 693 -170l149 100l70 -105
l-147 -97q72 -88 72 -201v-1027q0 -325 -648 -325z" />
    <glyph glyph-name="ntilde" unicode="&#xf1;" 
d="M0 1300h250v-175q0 200 425 200t425 -325v-1000h-250v950q0 175 -300 175t-300 -175v-950h-250v1300zM762.5 1650q112.5 0 112.5 100v50h150v-50q0 -250 -300 -250q-125 0 -200 75t-187.5 75t-112.5 -100v-50h-150v50q0 250 300 250q125 0 200 -75t187.5 -75z" />
    <glyph glyph-name="ograve" unicode="&#xf2;" 
d="M850 950q0 175 -300 175t-300 -175v-600q0 -175 300 -175t300 175v600zM1100 300q0 -325 -550 -325t-550 325v700q0 325 550 325t550 -325v-700zM500 1400l-250 300h300l100 -300h-150z" />
    <glyph glyph-name="oacute" unicode="&#xf3;" 
d="M850 950q0 175 -300 175t-300 -175v-600q0 -175 300 -175t300 175v600zM1100 300q0 -325 -550 -325t-550 325v700q0 325 550 325t550 -325v-700zM500 1400l125 300h275l-250 -300h-150z" />
    <glyph glyph-name="oacute" unicode="&#x3cc;" 
d="M850 950q0 175 -300 175t-300 -175v-600q0 -175 300 -175t300 175v600zM1100 300q0 -325 -550 -325t-550 325v700q0 325 550 325t550 -325v-700zM500 1400l125 300h275l-250 -300h-150z" />
    <glyph glyph-name="ocircumflex" unicode="&#xf4;" 
d="M850 950q0 175 -300 175t-300 -175v-600q0 -175 300 -175t300 175v600zM1100 300q0 -325 -550 -325t-550 325v700q0 325 550 325t550 -325v-700zM569 1806l281 -192l-94 -113l-206 150l-206 -150l-92 113l279 192h38z" />
    <glyph glyph-name="otilde" unicode="&#xf5;" 
d="M850 950q0 175 -300 175t-300 -175v-600q0 -175 300 -175t300 175v600zM1100 300q0 -325 -550 -325t-550 325v700q0 325 550 325t550 -325v-700zM762.5 1650q112.5 0 112.5 100v50h150v-50q0 -250 -300 -250q-125 0 -200 75t-187.5 75t-112.5 -100v-50h-150v50
q0 250 300 250q125 0 200 -75t187.5 -75z" />
    <glyph glyph-name="odieresis" unicode="&#xf6;" 
d="M850 950q0 175 -300 175t-300 -175v-600q0 -175 300 -175t300 175v600zM1100 300q0 -325 -550 -325t-550 325v700q0 325 550 325t550 -325v-700zM175 1575q0 125 125 125t125 -125t-125 -125t-125 125zM675 1575q0 125 125 125t125 -125t-125 -125t-125 125z" />
    <glyph glyph-name="odieresis" unicode="&#x4e7;" 
d="M850 950q0 175 -300 175t-300 -175v-600q0 -175 300 -175t300 175v600zM1100 300q0 -325 -550 -325t-550 325v700q0 325 550 325t550 -325v-700zM175 1575q0 125 125 125t125 -125t-125 -125t-125 125zM675 1575q0 125 125 125t125 -125t-125 -125t-125 125z" />
    <glyph glyph-name="divide" unicode="&#xf7;" horiz-adv-x="1200" 
d="M1000 800v200h-1000v-200h1000zM500 350q150 0 150 150t-150 150t-150 -150t150 -150zM500 1150q150 0 150 150t-150 150t-150 -150t150 -150z" />
    <glyph glyph-name="oslash" unicode="&#xf8;" 
d="M1100 300q0 -325 -550 -325q-300 0 -450 98l-60 -53l-160 120l120 120v740q0 325 550 325q365 -5 445 -108l65 63l170 -120l-130 -125v-735zM550 175q300 0 300 175v445l-565 -540q25 -80 265 -80zM550 1125q-300 0 -300 -175v-450l565 545q-25 80 -265 80z" />
    <glyph glyph-name="ugrave" unicode="&#xf9;" 
d="M1100 0h-250v175q0 -200 -425 -200t-425 325v1000h250v-950q0 -175 300 -175t300 175v950h250v-1300zM500 1400l-250 300h300l100 -300h-150z" />
    <glyph glyph-name="uacute" unicode="&#xfa;" 
d="M1100 0h-250v175q0 -200 -425 -200t-425 325v1000h250v-950q0 -175 300 -175t300 175v950h250v-1300zM400 1400l125 300h275l-250 -300h-150z" />
    <glyph glyph-name="ucircumflex" unicode="&#xfb;" 
d="M1100 0h-250v175q0 -200 -425 -200t-425 325v1000h250v-950q0 -175 300 -175t300 175v950h250v-1300zM569 1856l281 -192l-94 -113l-206 150l-206 -150l-92 113l279 192h38z" />
    <glyph glyph-name="udieresis" unicode="&#xfc;" 
d="M1100 0h-250v175q0 -200 -425 -200t-425 325v1000h250v-950q0 -175 300 -175t300 175v950h250v-1300zM175 1575q0 125 125 125t125 -125t-125 -125t-125 125zM675 1575q0 125 125 125t125 -125t-125 -125t-125 125z" />
    <glyph glyph-name="yacute" unicode="&#xfd;" horiz-adv-x="1400" 
d="M691 -216q-83 -259 -285 -259h-186v200h154q87 0 121 124l47 151l-542 1300h300l350 -1008l330 1008h300zM550 1400l125 300h275l-250 -300h-150z" />
    <glyph glyph-name="thorn" unicode="&#xfe;" 
d="M0 1800v-2275h250v650q0 -200 425 -200t425 325v700q0 325 -425 325t-425 -200v675h-250zM250 350v600q0 175 300 175t300 -175v-600q0 -175 -300 -175t-300 175z" />
    <glyph glyph-name="ydieresis" unicode="&#xff;" horiz-adv-x="1400" 
d="M691 -216q-83 -259 -285 -259h-186v200h154q87 0 121 124l47 151l-542 1300h300l350 -1008l330 1008h300zM260 1575q0 125 125 125t125 -125t-125 -125t-125 125zM760 1575q0 125 125 125t125 -125t-125 -125t-125 125z" />
    <glyph glyph-name="ydieresis" unicode="&#x4f1;" horiz-adv-x="1400" 
d="M691 -216q-83 -259 -285 -259h-186v200h154q87 0 121 124l47 151l-542 1300h300l350 -1008l330 1008h300zM260 1575q0 125 125 125t125 -125t-125 -125t-125 125zM760 1575q0 125 125 125t125 -125t-125 -125t-125 125z" />
    <glyph glyph-name="Amacron" unicode="&#x100;" horiz-adv-x="1620" 
d="M610 1800h280l610 -1800h-300l-160 500h-580l-160 -500h-300zM975 700l-225 720l-225 -720h450zM350 1950v100h800v-100h-800z" />
    <glyph glyph-name="amacron" unicode="&#x101;" horiz-adv-x="1200" 
d="M440 -25q-440 0 -440 325v170q0 310 500 310q250 0 250 120v50q0 175 -250 175q-215 0 -215 -175v-100h-250v150q0 325 465 325q500 0 500 -325v-825q0 -175 100 -175h-250q-100 0 -100 175q0 -200 -310 -200zM500 580q-250 0 -250 -160v-70q0 -175 250 -175t250 236v259
q0 -90 -250 -90zM100 1550v100h800v-100h-800z" />
    <glyph glyph-name="Abreve" unicode="&#x102;" horiz-adv-x="1620" 
d="M610 1800h280l610 -1800h-300l-160 500h-580l-160 -500h-300zM975 700l-225 720l-225 -720h450zM350 2100v50h150q0 -150 250 -150t250 150h150v-50q0 -250 -400 -250t-400 250z" />
    <glyph glyph-name="Abreve" unicode="&#x4d0;" horiz-adv-x="1620" 
d="M610 1800h280l610 -1800h-300l-160 500h-580l-160 -500h-300zM975 700l-225 720l-225 -720h450zM350 2100v50h150q0 -150 250 -150t250 150h150v-50q0 -250 -400 -250t-400 250z" />
    <glyph glyph-name="abreve" unicode="&#x103;" horiz-adv-x="1200" 
d="M440 -25q-440 0 -440 325v170q0 310 500 310q250 0 250 120v50q0 175 -250 175q-215 0 -215 -175v-100h-250v150q0 325 465 325q500 0 500 -325v-825q0 -175 100 -175h-250q-100 0 -100 175q0 -200 -310 -200zM500 580q-250 0 -250 -160v-70q0 -175 250 -175t250 236v259
q0 -90 -250 -90zM100 1700v50h150q0 -150 250 -150t250 150h150v-50q0 -250 -400 -250t-400 250z" />
    <glyph glyph-name="abreve" unicode="&#x4d1;" horiz-adv-x="1200" 
d="M440 -25q-440 0 -440 325v170q0 310 500 310q250 0 250 120v50q0 175 -250 175q-215 0 -215 -175v-100h-250v150q0 325 465 325q500 0 500 -325v-825q0 -175 100 -175h-250q-100 0 -100 175q0 -200 -310 -200zM500 580q-250 0 -250 -160v-70q0 -175 250 -175t250 236v259
q0 -90 -250 -90zM100 1700v50h150q0 -150 250 -150t250 150h150v-50q0 -250 -400 -250t-400 250z" />
    <glyph glyph-name="Aogonek" unicode="&#x104;" horiz-adv-x="1620" 
d="M610 1800h280l610 -1800h-300l-160 500h-580l-160 -500h-300zM975 700l-225 720l-225 -720h450zM1430 0q-150 -185 255 -350h-380q-295 165 -55 350h180z" />
    <glyph glyph-name="aogonek" unicode="&#x105;" horiz-adv-x="1200" 
d="M440 -25q-440 0 -440 325v170q0 310 500 310q250 0 250 120v50q0 175 -250 175q-215 0 -215 -175v-100h-250v150q0 325 465 325q500 0 500 -325v-825q0 -175 100 -175h-250q-100 0 -100 175q0 -200 -310 -200zM500 580q-250 0 -250 -160v-70q0 -175 250 -175t250 236v259
q0 -90 -250 -90zM580 0q-150 -185 255 -350h-380q-295 165 -55 350h180z" />
    <glyph glyph-name="Cacute" unicode="&#x106;" horiz-adv-x="1400" 
d="M1200 300q0 -325 -600 -325t-600 325v1200q0 325 600 325t600 -325v-250h-250v200q0 175 -350 175t-350 -175v-1100q0 -175 350 -175t350 175v200h250v-250zM500 1900l125 300h275l-250 -300h-150z" />
    <glyph glyph-name="cacute" unicode="&#x107;" 
d="M1100 300q0 -325 -550 -325t-550 325v700q0 325 550 325t550 -325v-200h-250v150q0 175 -300 175t-300 -175v-600q0 -175 300 -175t300 175v150h250v-200zM450 1400l125 300h275l-250 -300h-150z" />
    <glyph glyph-name="Ccircumflex" unicode="&#x108;" horiz-adv-x="1400" 
d="M1200 300q0 -325 -600 -325t-600 325v1200q0 325 600 325t600 -325v-250h-250v200q0 175 -350 175t-350 -175v-1100q0 -175 350 -175t350 175v200h250v-250zM619 2206l281 -192l-94 -113l-206 150l-206 -150l-92 113l279 192h38z" />
    <glyph glyph-name="ccircumflex" unicode="&#x109;" 
d="M1100 300q0 -325 -550 -325t-550 325v700q0 325 550 325t550 -325v-200h-250v150q0 175 -300 175t-300 -175v-600q0 -175 300 -175t300 175v150h250v-200zM569 1706l281 -192l-94 -113l-206 150l-206 -150l-92 113l279 192h38z" />
    <glyph glyph-name="Cdotabove" unicode="&#x10a;" horiz-adv-x="1400" 
d="M1200 300q0 -325 -600 -325t-600 325v1200q0 325 600 325t600 -325v-250h-250v200q0 175 -350 175t-350 -175v-1100q0 -175 350 -175t350 175v200h250v-250zM746 2041q-8 -140 -147 -144q-134 0 -146 140q0 135 146 143q143 -4 147 -139z" />
    <glyph glyph-name="cdot" unicode="&#x10b;" 
d="M1100 300q0 -325 -550 -325t-550 325v700q0 325 550 325t550 -325v-200h-250v150q0 175 -300 175t-300 -175v-600q0 -175 300 -175t300 175v150h250v-200zM696 1641q-8 -140 -147 -144q-134 0 -146 140q0 135 146 143q143 -4 147 -139z" />
    <glyph glyph-name="Ccaron" unicode="&#x10c;" horiz-adv-x="1400" 
d="M1200 300q0 -325 -600 -325t-600 325v1200q0 325 600 325t600 -325v-250h-250v200q0 175 -350 175t-350 -175v-1100q0 -175 350 -175t350 175v200h250v-250zM525 1900l-275 300h200l150 -225l150 225h200l-275 -300h-150z" />
    <glyph glyph-name="ccaron" unicode="&#x10d;" 
d="M1100 300q0 -325 -550 -325t-550 325v700q0 325 550 325t550 -325v-200h-250v150q0 175 -300 175t-300 -175v-600q0 -175 300 -175t300 175v150h250v-200zM475 1400l-275 300h200l150 -225l150 225h200l-275 -300h-150z" />
    <glyph glyph-name="Dcaron" unicode="&#x10e;" horiz-adv-x="1400" 
d="M0 1800h850q350 0 350 -300v-1200q0 -300 -350 -300h-850v1800zM750 200q200 0 200 150v1100q0 150 -200 150h-500v-1400h500zM525 1850l-275 300h200l150 -225l150 225h200l-275 -300h-150z" />
    <glyph glyph-name="dcaron" unicode="&#x10f;" 
d="M850 0v175q0 -200 -425 -200t-425 325v700q0 325 425 325t425 -200v725h250v-1850h-250zM550 1125q-300 0 -300 -175v-600q0 -175 300 -175t300 175v600q0 175 -300 175zM1200 1875q0 125 125 125t125 -125q0 -275 -250 -275v75q125 0 125 75q-125 0 -125 125z" />
    <glyph glyph-name="dstroke" unicode="&#x111;" 
d="M850 0v175q0 -200 -425 -200t-425 325v700q0 325 425 325t425 -200v375h-350v150h350v200h250v-200h100v-150h-100v-1500h-250zM550 1125q-300 0 -300 -175v-600q0 -175 300 -175t300 175v600q0 175 -300 175z" />
    <glyph glyph-name="Emacron" unicode="&#x112;" horiz-adv-x="1200" 
d="M250 1600v-575h625v-200h-625v-625h750v-200h-1000v1800h1000v-200h-750zM100 1950v100h800v-100h-800z" />
    <glyph glyph-name="emacron" unicode="&#x113;" 
d="M550 1325q550 0 550 -325v-450h-850v-200q0 -175 300 -175t300 175v100h250v-150q0 -325 -550 -325t-550 325v700q0 325 550 325zM850 750v200q0 175 -300 175t-300 -175v-200h600zM150 1550v100h800v-100h-800z" />
    <glyph glyph-name="Ebreve" unicode="&#x114;" horiz-adv-x="1200" 
d="M250 1600v-575h625v-200h-625v-625h750v-200h-1000v1800h1000v-200h-750zM100 2100v50h150q0 -150 250 -150t250 150h150v-50q0 -250 -400 -250t-400 250z" />
    <glyph glyph-name="Ebreve" unicode="&#x4d6;" horiz-adv-x="1200" 
d="M250 1600v-575h625v-200h-625v-625h750v-200h-1000v1800h1000v-200h-750zM100 2100v50h150q0 -150 250 -150t250 150h150v-50q0 -250 -400 -250t-400 250z" />
    <glyph glyph-name="ebreve" unicode="&#x115;" 
d="M550 1325q550 0 550 -325v-450h-850v-200q0 -175 300 -175t300 175v100h250v-150q0 -325 -550 -325t-550 325v700q0 325 550 325zM850 750v200q0 175 -300 175t-300 -175v-200h600zM150 1700v50h150q0 -150 250 -150t250 150h150v-50q0 -250 -400 -250t-400 250z" />
    <glyph glyph-name="ebreve" unicode="&#x4d7;" 
d="M550 1325q550 0 550 -325v-450h-850v-200q0 -175 300 -175t300 175v100h250v-150q0 -325 -550 -325t-550 325v700q0 325 550 325zM850 750v200q0 175 -300 175t-300 -175v-200h600zM150 1700v50h150q0 -150 250 -150t250 150h150v-50q0 -250 -400 -250t-400 250z" />
    <glyph glyph-name="Edotabove" unicode="&#x116;" horiz-adv-x="1200" 
d="M250 1600v-575h625v-200h-625v-625h750v-200h-1000v1800h1000v-200h-750zM646 1991q-8 -140 -147 -144q-134 0 -146 140q0 135 146 143q143 -4 147 -139z" />
    <glyph glyph-name="edotabove" unicode="&#x117;" 
d="M550 1325q550 0 550 -325v-450h-850v-200q0 -175 300 -175t300 175v100h250v-150q0 -325 -550 -325t-550 325v700q0 325 550 325zM850 750v200q0 175 -300 175t-300 -175v-200h600zM696 1641q-8 -140 -147 -144q-134 0 -146 140q0 135 146 143q143 -4 147 -139z" />
    <glyph glyph-name="Eogonek" unicode="&#x118;" horiz-adv-x="1200" 
d="M250 1600v-575h625v-200h-625v-625h750v-200h-1000v1800h1000v-200h-750zM580 0q-150 -185 255 -350h-380q-295 165 -55 350h180z" />
    <glyph glyph-name="eogonek" unicode="&#x119;" 
d="M550 1325q550 0 550 -325v-450h-850v-200q0 -175 300 -175t300 175v100h250v-150q0 -325 -550 -325t-550 325v700q0 325 550 325zM850 750v200q0 175 -300 175t-300 -175v-200h600zM680 0q-150 -185 255 -350h-380q-295 165 -55 350h180z" />
    <glyph glyph-name="Ecaron" unicode="&#x11a;" horiz-adv-x="1200" 
d="M250 1600v-575h625v-200h-625v-625h750v-200h-1000v1800h1000v-200h-750zM425 1850l-275 300h200l150 -225l150 225h200l-275 -300h-150z" />
    <glyph glyph-name="ecaron" unicode="&#x11b;" 
d="M550 1325q550 0 550 -325v-450h-850v-200q0 -175 300 -175t300 175v100h250v-150q0 -325 -550 -325t-550 325v700q0 325 550 325zM850 750v200q0 175 -300 175t-300 -175v-200h600zM475 1400l-275 300h200l150 -225l150 225h200l-275 -300h-150z" />
    <glyph glyph-name="Gcircumflex" unicode="&#x11c;" horiz-adv-x="1400" 
d="M1200 0h-113l-78 175q-59 -200 -409 -200q-600 0 -600 325v1200q0 325 600 325t600 -325v-250h-250v200q0 175 -350 175t-350 -175v-1100q0 -175 350 -175t350 175v450h-492v200h742v-1000zM619 2206l281 -192l-94 -113l-206 150l-206 -150l-92 113l279 192h38z" />
    <glyph glyph-name="gcircumflex" unicode="&#x11d;" 
d="M1100 1300v-1500q0 -275 -550 -275t-550 275v125h250v-75q0 -125 300 -125t300 125v325q0 -200 -425 -200t-425 325v700q0 325 425 325t425 -200v175h250zM850 350v600q0 175 -300 175t-300 -175v-600q0 -175 300 -175t300 175zM569 1706l281 -192l-94 -113l-206 150
l-206 -150l-92 113l279 192h38z" />
    <glyph glyph-name="Gbreve" unicode="&#x11e;" horiz-adv-x="1400" 
d="M1200 0h-113l-78 175q-59 -200 -409 -200q-600 0 -600 325v1200q0 325 600 325t600 -325v-250h-250v200q0 175 -350 175t-350 -175v-1100q0 -175 350 -175t350 175v450h-492v200h742v-1000zM200 2150v50h150q0 -150 250 -150t250 150h150v-50q0 -250 -400 -250t-400 250z
" />
    <glyph glyph-name="gbreve" unicode="&#x11f;" 
d="M1100 1300v-1500q0 -275 -550 -275t-550 275v125h250v-75q0 -125 300 -125t300 125v325q0 -200 -425 -200t-425 325v700q0 325 425 325t425 -200v175h250zM850 350v600q0 175 -300 175t-300 -175v-600q0 -175 300 -175t300 175zM150 1700v50h150q0 -150 250 -150t250 150
h150v-50q0 -250 -400 -250t-400 250z" />
    <glyph glyph-name="Gdotabove" unicode="&#x120;" horiz-adv-x="1400" 
d="M1200 0h-113l-78 175q-59 -200 -409 -200q-600 0 -600 325v1200q0 325 600 325t600 -325v-250h-250v200q0 175 -350 175t-350 -175v-1100q0 -175 350 -175t350 175v450h-492v200h742v-1000zM746 2041q-8 -140 -147 -144q-134 0 -146 140q0 135 146 143q143 -4 147 -139z
" />
    <glyph glyph-name="gdotabove" unicode="&#x121;" 
d="M1100 1300v-1500q0 -275 -550 -275t-550 275v125h250v-75q0 -125 300 -125t300 125v325q0 -200 -425 -200t-425 325v700q0 325 425 325t425 -200v175h250zM850 350v600q0 175 -300 175t-300 -175v-600q0 -175 300 -175t300 175zM696 1591q-8 -140 -147 -144
q-134 0 -146 140q0 135 146 143q143 -4 147 -139z" />
    <glyph glyph-name="Gcedilla" unicode="&#x122;" horiz-adv-x="1400" 
d="M1200 0h-113l-78 175q-59 -200 -409 -200q-600 0 -600 325v1200q0 325 600 325t600 -325v-250h-250v200q0 175 -350 175t-350 -175v-1100q0 -175 350 -175t350 175v450h-492v200h742v-1000zM625 50v-197q0 47 87.5 47t87.5 -111v-127q0 -112 -225 -112t-225 112v58l100 1
v-33q0 -63 125 -63t125 65v85q0 50 -37.5 50t-37.5 -40v-35h-100v300h100z" />
    <glyph glyph-name="gcedilla" unicode="&#x123;" 
d="M1100 1300v-1500q0 -275 -550 -275t-550 275v125h250v-75q0 -125 300 -125t300 125v325q0 -200 -425 -200t-425 325v700q0 325 425 325t425 -200v175h250zM850 350v600q0 175 -300 175t-300 -175v-600q0 -175 300 -175t300 175zM525 1650q0 75 125 75v75
q-250 0 -250 -275q0 -125 125 -125t125 125t-125 125z" />
    <glyph glyph-name="Hcircumflex" unicode="&#x124;" 
d="M250 1800v-800h600v800h250v-1800h-250v800h-600v-800h-250v1800h250zM569 2206l281 -192l-94 -113l-206 150l-206 -150l-92 113l279 192h38z" />
    <glyph glyph-name="hcircumflex" unicode="&#x125;" 
d="M0 1850h250v-725q0 200 425 200t425 -325v-1000h-250v950q0 175 -300 175t-300 -175v-950h-250v1850zM593.305 1906l196.704 -192l-65.8018 -113l-144.202 150l-144.202 -150l-64.4014 113l195.304 192h26.5996z" />
    <glyph glyph-name="Hstroke" unicode="&#x126;" 
d="M250 1800v-200h600v200h250v-200h100v-150h-100v-1450h-250v800h-600v-800h-250v1450h-100v150h100v200h250zM250 1000h600v450h-600v-450z" />
    <glyph glyph-name="hstroke" unicode="&#x127;" 
d="M0 1850h250v-250h350v-150h-350v-325q0 200 425 200t425 -325v-1000h-250v950q0 175 -300 175t-300 -175v-950h-250v1450h-100v150h100v250z" />
    <glyph glyph-name="Itilde" unicode="&#x128;" horiz-adv-x="650" 
d="M0 0v200h100v1400h-100v200h450v-200h-100v-1400h100v-200h-450zM381.259 2000q78.751 0 78.751 100v50h105.002v-50q0 -250 -210.004 -250q-87.501 0 -140.002 75t-131.253 75q-78.751 0 -78.751 -100v-50h-105.002v50q0 250 210.004 250q87.501 0 140.002 -75
t131.253 -75z" />
    <glyph glyph-name="itilde" unicode="&#x129;" horiz-adv-x="450" 
d="M0 1300v-1300h250v1300h-250zM243.75 1600q56.25 0 56.25 100v50h75v-50q0 -250 -150 -250q-62.5 0 -100 75t-93.75 75t-56.25 -100v-50h-75v50q0 250 150 250q62.5 0 100 -75t93.75 -75z" />
    <glyph glyph-name="Imacron" unicode="&#x12a;" horiz-adv-x="650" 
d="M0 0v200h100v1400h-100v200h450v-200h-100v-1400h100v-200h-450zM0 1900v100h453.613v-100h-453.613z" />
    <glyph glyph-name="imacron" unicode="&#x12b;" horiz-adv-x="450" 
d="M0 1300v-1300h250v1300h-250zM-100 1550v100h452.002v-100h-452.002z" />
    <glyph glyph-name="Ibreve" unicode="&#x12c;" horiz-adv-x="650" 
d="M0 0v200h100v1400h-100v200h450v-200h-100v-1400h100v-200h-450zM0 2100v50h84.75q0 -150 141.251 -150t141.251 150h84.75v-50q0 -250 -226.001 -250t-226.001 250z" />
    <glyph glyph-name="ibreve" unicode="&#x12d;" horiz-adv-x="450" 
d="M0 1300v-1300h250v1300h-250zM-100 1700v50h89.9961q0 -150 149.994 -150t149.994 150h89.9961v-50q0 -250 -239.99 -250t-239.99 250z" />
    <glyph glyph-name="Iogonek" unicode="&#x12e;" horiz-adv-x="650" 
d="M0 0v200h100v1400h-100v200h450v-200h-100v-1400h100v-200h-450zM330 0q-150 -185 255 -350h-380q-295 165 -55 350h180z" />
    <glyph glyph-name="iogonek" unicode="&#x12f;" horiz-adv-x="450" 
d="M250 1300v-1300h-250v1300h250zM125 1550q-145 0 -145 137.5t145 137.5t145 -137.5t-145 -137.5zM230 0q-150 -185 255 -350h-380q-295 165 -55 350h180z" />
    <glyph glyph-name="Idotabove" unicode="&#x130;" horiz-adv-x="650" 
d="M0 0v200h100v1400h-100v200h450v-200h-100v-1400h100v-200h-450zM371 1991q-8 -140 -147 -144q-134 0 -146 140q0 135 146 143q143 -4 147 -139z" />
    <glyph glyph-name="dotlessi" unicode="&#x131;" horiz-adv-x="450" 
d="M0 1300v-1300h250v1300h-250z" />
    <glyph glyph-name="IJ" unicode="&#x132;" horiz-adv-x="1900" 
d="M0 0v200h100v1400h-100v200h450v-200h-100v-1400h100v-200h-450zM1700 300q0 -325 -525 -325t-525 325v250h250v-200q0 -175 275 -175t275 175v1450h250v-1500z" />
    <glyph glyph-name="ij" unicode="&#x133;" horiz-adv-x="860" 
d="M250 1300v-1300h-250v1300h250zM125 1550q-145 0 -145 137.5t145 137.5t145 -137.5t-145 -137.5zM700 1300v-1515q0 -260 -251 -260h-179l1 200q179 0 179 175v1400h250zM575 1550q-145 0 -145 137.5t145 137.5t145 -137.5t-145 -137.5z" />
    <glyph glyph-name="Jcircumflex" unicode="&#x134;" horiz-adv-x="1250" 
d="M1050 300q0 -325 -525 -325t-525 325v250h250v-200q0 -175 275 -175t275 175v1450h250v-1500zM944 2106l281 -192l-94 -113l-206 150l-206 -150l-92 113l279 192h38z" />
    <glyph glyph-name="jcircumflex" unicode="&#x135;" horiz-adv-x="450" 
d="M250 1300v-1515q0 -260 -251 -260h-179l1 200q179 0 179 175v1400h250zM144 1756l281 -192l-94 -113l-206 150l-206 -150l-92 113l279 192h38z" />
    <glyph glyph-name="Kcedilla" unicode="&#x136;" 
d="M0 0v1800h250v-754l567 754h289l-518 -723l567 -1077h-295l-435 868l-175 -237v-631h-250zM400 -225q0 125 125 125t125 -125q0 -275 -250 -275v75q125 0 125 75q-125 0 -125 125z" />
    <glyph glyph-name="kcedilla" unicode="&#x137;" horiz-adv-x="1200" 
d="M0 0v1850h250v-1204l462 654h289l-404 -587l421 -713h-287l-293 484l-188 -265v-219h-250zM350 -225q0 125 125 125t125 -125q0 -275 -250 -275v75q125 0 125 75q-125 0 -125 125z" />
    <glyph glyph-name="kra" unicode="&#x138;" horiz-adv-x="1200" 
d="M0 0v1300h250v-550h120l342 550h289l-404 -637l421 -663h-287l-338 550h-143v-550h-250z" />
    <glyph glyph-name="Lacute" unicode="&#x139;" horiz-adv-x="1100" 
d="M0 0v1800h250v-1600h750v-200h-1000zM50 1900l125 300h275l-250 -300h-150z" />
    <glyph glyph-name="lacute" unicode="&#x13a;" horiz-adv-x="450" 
d="M0 0v1850h250v-1850h-250zM50 1900l125 300h275l-250 -300h-150z" />
    <glyph glyph-name="Lcedilla" unicode="&#x13b;" horiz-adv-x="1100" 
d="M0 0v1800h250v-1600h750v-200h-1000zM400 -225q0 125 125 125t125 -125q0 -275 -250 -275v75q125 0 125 75q-125 0 -125 125z" />
    <glyph glyph-name="lcedilla" unicode="&#x13c;" horiz-adv-x="450" 
d="M0 0v1850h250v-1850h-250zM0 -225q0 125 125 125t125 -125q0 -275 -250 -275v75q125 0 125 75q-125 0 -125 125z" />
    <glyph glyph-name="Lcaron" unicode="&#x13d;" horiz-adv-x="1100" 
d="M0 0v1800h250v-1600h750v-200h-1000zM750 1675q0 125 125 125t125 -125q0 -275 -250 -275v75q125 0 125 75q-125 0 -125 125z" />
    <glyph glyph-name="lcaron" unicode="&#x13e;" horiz-adv-x="850" 
d="M0 0v1850h250v-1850h-250zM400 1725q0 125 125 125t125 -125q0 -275 -250 -275v75q125 0 125 75q-125 0 -125 125z" />
    <glyph glyph-name="Ldotcenter" unicode="&#x13f;" horiz-adv-x="1100" 
d="M0 0v1800h250v-1600h750v-200h-1000zM996 991q-8 -140 -147 -144q-134 0 -146 140q0 135 146 143q143 -4 147 -139z" />
    <glyph glyph-name="ldotcenter" unicode="&#x140;" horiz-adv-x="850" 
d="M0 0v1850h250v-1850h-250zM646 941q-8 -140 -147 -144q-134 0 -146 140q0 135 146 143q143 -4 147 -139z" />
    <glyph glyph-name="Lslash" unicode="&#x141;" horiz-adv-x="1200" 
d="M0 0v795l-80 -45l-100 175l180 100v775h250v-635l90 60l100 -175l-190 -115v-735h750v-200h-1000z" />
    <glyph glyph-name="lslash" unicode="&#x142;" horiz-adv-x="450" 
d="M0 0v795l-80 -45l-100 175l180 100v825h250v-685l90 60l100 -175l-190 -115v-935h-250z" />
    <glyph glyph-name="Nacute" unicode="&#x143;" 
d="M300 1800l550 -1300v1300h250v-1800h-300l-550 1300v-1300h-250v1800h300zM450 1900l125 300h275l-250 -300h-150z" />
    <glyph glyph-name="nacute" unicode="&#x144;" 
d="M0 1300h250v-175q0 200 425 200t425 -325v-1000h-250v950q0 175 -300 175t-300 -175v-950h-250v1300zM450 1500l125 300h275l-250 -300h-150z" />
    <glyph glyph-name="Ncedilla" unicode="&#x145;" 
d="M300 1800l550 -1300v1300h250v-1800h-300l-550 1300v-1300h-250v1800h300zM450 -225q0 125 125 125t125 -125q0 -275 -250 -275v75q125 0 125 75q-125 0 -125 125z" />
    <glyph glyph-name="ncedilla" unicode="&#x146;" 
d="M0 1300h250v-175q0 200 425 200t425 -325v-1000h-250v950q0 175 -300 175t-300 -175v-950h-250v1300zM400 -225q0 125 125 125t125 -125q0 -275 -250 -275v75q125 0 125 75q-125 0 -125 125z" />
    <glyph glyph-name="Ncaron" unicode="&#x147;" 
d="M300 1800l550 -1300v1300h250v-1800h-300l-550 1300v-1300h-250v1800h300zM475 1900l-275 300h200l150 -225l150 225h200l-275 -300h-150z" />
    <glyph glyph-name="ncaron" unicode="&#x148;" 
d="M0 1300h250v-175q0 200 425 200t425 -325v-1000h-250v950q0 175 -300 175t-300 -175v-950h-250v1300zM475 1400l-275 300h200l150 -225l150 225h200l-275 -300h-150z" />
    <glyph glyph-name="apostrophen" unicode="&#x149;" horiz-adv-x="1600" 
d="M300 1300h250v-175q0 200 425 200t425 -325v-1000h-250v950q0 175 -300 175t-300 -175v-950h-250v1300zM0 1675q0 125 125 125t125 -125q0 -275 -250 -275v75q125 0 125 75q-125 0 -125 125z" />
    <glyph glyph-name="Eng" unicode="&#x14a;" 
d="M300 1800l550 -1300v1300h250v-1925q0 -350 -430 -350v200q180 0 180 150l-600 1425v-1300h-250v1800h300z" />
    <glyph glyph-name="eng" unicode="&#x14b;" 
d="M0 1300h250v-175q0 200 425 200t425 -325v-1100q0 -375 -420 -375v200q170 0 170 175v1050q0 175 -300 175t-300 -175v-950h-250v1300z" />
    <glyph glyph-name="Omacron" unicode="&#x14c;" horiz-adv-x="1400" 
d="M950 1450q0 175 -350 175t-350 -175v-1100q0 -175 350 -175t350 175v1100zM1200 300q0 -325 -600 -325t-600 325v1200q0 325 600 325t600 -325v-1200zM200 1950v100h800v-100h-800z" />
    <glyph glyph-name="omacron" unicode="&#x14d;" 
d="M850 950q0 175 -300 175t-300 -175v-600q0 -175 300 -175t300 175v600zM1100 300q0 -325 -550 -325t-550 325v700q0 325 550 325t550 -325v-700zM150 1500v100h800v-100h-800z" />
    <glyph glyph-name="Obreve" unicode="&#x14e;" horiz-adv-x="1400" 
d="M950 1450q0 175 -350 175t-350 -175v-1100q0 -175 350 -175t350 175v1100zM1200 300q0 -325 -600 -325t-600 325v1200q0 325 600 325t600 -325v-1200zM200 2150v50h150q0 -150 250 -150t250 150h150v-50q0 -250 -400 -250t-400 250z" />
    <glyph glyph-name="obreve" unicode="&#x14f;" 
d="M850 950q0 175 -300 175t-300 -175v-600q0 -175 300 -175t300 175v600zM1100 300q0 -325 -550 -325t-550 325v700q0 325 550 325t550 -325v-700zM150 1700v50h150q0 -150 250 -150t250 150h150v-50q0 -250 -400 -250t-400 250z" />
    <glyph glyph-name="Odblacute" unicode="&#x150;" horiz-adv-x="1400" 
d="M950 1450q0 175 -350 175t-350 -175v-1100q0 -175 350 -175t350 175v1100zM1200 300q0 -325 -600 -325t-600 325v1200q0 325 600 325t600 -325v-1200zM700 1900l125 300h250l-225 -300h-150zM350 1900l125 300h250l-225 -300h-150z" />
    <glyph glyph-name="odbleacute" unicode="&#x151;" 
d="M850 950q0 175 -300 175t-300 -175v-600q0 -175 300 -175t300 175v600zM1100 300q0 -325 -550 -325t-550 325v700q0 325 550 325t550 -325v-700zM650 1450l125 300h250l-225 -300h-150zM300 1450l125 300h250l-225 -300h-150z" />
    <glyph glyph-name="OE" unicode="&#x152;" horiz-adv-x="2150" 
d="M1200 1600v-575h625v-200h-625v-625h750v-200h-1000v100q-100 -125 -350 -125q-600 0 -600 325v1200q0 325 600 325q250 0 350 -125v100h1000v-200h-750zM950 1450q0 175 -350 175t-350 -175v-1100q0 -175 350 -175t350 175v1100z" />
    <glyph glyph-name="oe" unicode="&#x153;" horiz-adv-x="2150" 
d="M1400 1325q550 0 550 -325v-450h-850v-200q0 -175 300 -175t300 175v100h250v-150q0 -325 -550 -325q-325 0 -425 90q-100 -90 -425 -90q-550 0 -550 325v700q0 325 550 325q325 0 425 -90q100 90 425 90zM1700 750v200q0 175 -300 175t-300 -175v-200h600zM250 350
q0 -175 300 -175t300 175v600q0 175 -300 175t-300 -175v-600z" />
    <glyph glyph-name="Racute" unicode="&#x154;" horiz-adv-x="1400" 
d="M0 1800h800q400 0 400 -300v-300q0 -300 -250 -300q250 0 250 -300v-500q0 -100 100 -100h-250q-100 0 -100 100v550q0 150 -200 150h-500v-800h-250v1800zM750 1000q200 0 200 150v300q0 150 -200 150h-500v-600h500zM500 1900l125 300h275l-250 -300h-150z" />
    <glyph glyph-name="racute" unicode="&#x155;" horiz-adv-x="1140" 
d="M0 1300h250v-175q0 200 345 200t345 -325v-150h-250v100q0 175 -220 175t-220 -175v-950h-250v1300zM350 1500l125 300h275l-250 -300h-150z" />
    <glyph glyph-name="Rcedilla" unicode="&#x156;" horiz-adv-x="1400" 
d="M0 1800h800q400 0 400 -300v-300q0 -300 -250 -300q250 0 250 -300v-500q0 -100 100 -100h-250q-100 0 -100 100v550q0 150 -200 150h-500v-800h-250v1800zM750 1000q200 0 200 150v300q0 150 -200 150h-500v-600h500zM500 -225q0 125 125 125t125 -125q0 -275 -250 -275
v75q125 0 125 75q-125 0 -125 125z" />
    <glyph glyph-name="rcedilla" unicode="&#x157;" horiz-adv-x="1140" 
d="M0 1300h250v-175q0 200 345 200t345 -325v-150h-250v100q0 175 -220 175t-220 -175v-950h-250v1300zM300 -225q0 125 125 125t125 -125q0 -275 -250 -275v75q125 0 125 75q-125 0 -125 125z" />
    <glyph glyph-name="Rcaron" unicode="&#x158;" horiz-adv-x="1400" 
d="M0 1800h800q400 0 400 -300v-300q0 -300 -250 -300q250 0 250 -300v-500q0 -100 100 -100h-250q-100 0 -100 100v550q0 150 -200 150h-500v-800h-250v1800zM750 1000q200 0 200 150v300q0 150 -200 150h-500v-600h500zM500 1900l-275 300h200l150 -225l150 225h200
l-275 -300h-150z" />
    <glyph glyph-name="rcaron" unicode="&#x159;" horiz-adv-x="1140" 
d="M0 1300h250v-175q0 200 345 200t345 -325v-150h-250v100q0 175 -220 175t-220 -175v-950h-250v1300zM375 1400l-275 300h200l150 -225l150 225h200l-275 -300h-150z" />
    <glyph glyph-name="Sacute" unicode="&#x15a;" horiz-adv-x="1400" 
d="M480 1112l240 -37q480 -75 480 -375v-400q0 -325 -600 -325t-600 325v250h250v-200q0 -175 350 -175t350 175v300q5 150 -230 188l-240 37q-480 75 -480 325v300q0 325 600 325t600 -325v-250h-250v200q0 175 -350 175t-350 -175v-150q0 -150 230 -188zM500 1900l125 300
h275l-250 -300h-150z" />
    <glyph glyph-name="sacute" unicode="&#x15b;" 
d="M275 892v58q0 175 275 175t275 -175v-100h250v150q0 325 -525 325t-525 -325v-125q0 -304 525 -325q300 -18 300 -125v-75q0 -175 -300 -175t-300 175v100h-250v-150q0 -325 550 -325t550 325v175q0 277 -550 300q-275 12 -275 117zM475 1500l125 300h275l-250 -300h-150
z" />
    <glyph glyph-name="Scircumflex" unicode="&#x15c;" horiz-adv-x="1400" 
d="M480 1112l240 -37q480 -75 480 -375v-400q0 -325 -600 -325t-600 325v250h250v-200q0 -175 350 -175t350 175v300q5 150 -230 188l-240 37q-480 75 -480 325v300q0 325 600 325t600 -325v-250h-250v200q0 175 -350 175t-350 -175v-150q0 -150 230 -188zM619 2206
l281 -192l-94 -113l-206 150l-206 -150l-92 113l279 192h38z" />
    <glyph glyph-name="scircumflex" unicode="&#x15d;" 
d="M275 892v58q0 175 275 175t275 -175v-100h250v150q0 325 -525 325t-525 -325v-125q0 -304 525 -325q300 -18 300 -125v-75q0 -175 -300 -175t-300 175v100h-250v-150q0 -325 550 -325t550 325v175q0 277 -550 300q-275 12 -275 117zM569 1806l281 -192l-94 -113l-206 150
l-206 -150l-92 113l279 192h38z" />
    <glyph glyph-name="Scedilla" unicode="&#x15e;" horiz-adv-x="1400" 
d="M480 1112l240 -37q480 -75 480 -375v-400q0 -325 -600 -325t-600 325v250h250v-200q0 -175 350 -175t350 175v300q5 150 -230 188l-240 37q-480 75 -480 325v300q0 325 600 325t600 -325v-250h-250v200q0 175 -350 175t-350 -175v-150q0 -150 230 -188zM625 50v-197
q0 47 87.5 47t87.5 -111v-127q0 -112 -225 -112t-225 112v58l100 1v-33q0 -63 125 -63t125 65v85q0 50 -37.5 50t-37.5 -40v-35h-100v300h100z" />
    <glyph glyph-name="scedilla" unicode="&#x15f;" 
d="M275 892v58q0 175 275 175t275 -175v-100h250v150q0 325 -525 325t-525 -325v-125q0 -304 525 -325q300 -18 300 -125v-75q0 -175 -300 -175t-300 175v100h-250v-150q0 -325 550 -325t550 325v175q0 277 -550 300q-275 12 -275 117zM600 50v-197q0 47 87.5 47t87.5 -111
v-127q0 -112 -225 -112t-225 112v58l100 1v-33q0 -63 125 -63t125 65v85q0 50 -37.5 50t-37.5 -40v-35h-100v300h100z" />
    <glyph glyph-name="Scaron" unicode="&#x160;" horiz-adv-x="1400" 
d="M480 1112l240 -37q480 -75 480 -375v-400q0 -325 -600 -325t-600 325v250h250v-200q0 -175 350 -175t350 175v300q5 150 -230 188l-240 37q-480 75 -480 325v300q0 325 600 325t600 -325v-250h-250v200q0 175 -350 175t-350 -175v-150q0 -150 230 -188zM525 1850
l-275 300h200l150 -225l150 225h200l-275 -300h-150z" />
    <glyph glyph-name="scaron" unicode="&#x161;" 
d="M275 892v58q0 175 275 175t275 -175v-100h250v150q0 325 -525 325t-525 -325v-125q0 -304 525 -325q300 -18 300 -125v-75q0 -175 -300 -175t-300 175v100h-250v-150q0 -325 550 -325t550 325v175q0 277 -550 300q-275 12 -275 117zM475 1400l-275 300h200l150 -225
l150 225h200l-275 -300h-150z" />
    <glyph glyph-name="Tcedilla" unicode="&#x162;" horiz-adv-x="1450" 
d="M500 0v1600h-500v200h1250v-200h-500v-1600h-250zM675 50v-197q0 47 87.5 47t87.5 -111v-127q0 -112 -225 -112t-225 112v58l100 1v-33q0 -63 125 -63t125 65v85q0 50 -37.5 50t-37.5 -40v-35h-100v300h100z" />
    <glyph glyph-name="tcedilla" unicode="&#x163;" horiz-adv-x="900" 
d="M390 1700v-400h250v-200h-250v-700q0 -200 250 -200v-200h-250q-250 0 -250 300v800h-140v200h140v400h250zM575 50v-197q0 47 87.5 47t87.5 -111v-127q0 -112 -225 -112t-225 112v58l100 1v-33q0 -63 125 -63t125 65v85q0 50 -37.5 50t-37.5 -40v-35h-100v300h100z" />
    <glyph glyph-name="Tcaron" unicode="&#x164;" horiz-adv-x="1450" 
d="M500 0v1600h-500v200h1250v-200h-500v-1600h-250zM550 1850l-275 300h200l150 -225l150 225h200l-275 -300h-150z" />
    <glyph glyph-name="tcaron" unicode="&#x165;" horiz-adv-x="1100" 
d="M390 1700v-400h250v-200h-250v-700q0 -200 250 -200v-200h-250q-250 0 -250 300v800h-140v200h140v400h250zM650 1675q0 125 125 125t125 -125q0 -275 -250 -275v75q125 0 125 75q-125 0 -125 125z" />
    <glyph glyph-name="Tstroke" unicode="&#x166;" horiz-adv-x="1450" 
d="M500 0v825h-300v150h300v625h-500v200h1250v-200h-500v-625h300v-150h-300v-825h-250z" />
    <glyph glyph-name="tstroke" unicode="&#x167;" horiz-adv-x="840" 
d="M390 1700v-400h250v-200h-250v-350h250v-150h-250v-200q0 -200 250 -200v-200h-250q-250 0 -250 300v300h-140v150h140v350h-140v200h140v400h250z" />
    <glyph glyph-name="Utilde" unicode="&#x168;" horiz-adv-x="1400" 
d="M1200 300q0 -325 -600 -325t-600 325v1500h250v-1450q0 -175 350 -175t350 175v1450h250v-1500zM812.5 2000q112.5 0 112.5 100v50h150v-50q0 -250 -300 -250q-125 0 -200 75t-187.5 75t-112.5 -100v-50h-150v50q0 250 300 250q125 0 200 -75t187.5 -75z" />
    <glyph glyph-name="utilde" unicode="&#x169;" 
d="M1100 0h-250v175q0 -200 -425 -200t-425 325v1000h250v-950q0 -175 300 -175t300 175v950h250v-1300zM762.5 1600q112.5 0 112.5 100v50h150v-50q0 -250 -300 -250q-125 0 -200 75t-187.5 75t-112.5 -100v-50h-150v50q0 250 300 250q125 0 200 -75t187.5 -75z" />
    <glyph glyph-name="Umacron" unicode="&#x16a;" horiz-adv-x="1400" 
d="M1200 300q0 -325 -600 -325t-600 325v1500h250v-1450q0 -175 350 -175t350 175v1450h250v-1500zM200 1950v100h800v-100h-800z" />
    <glyph glyph-name="umacron" unicode="&#x16b;" 
d="M1100 0h-250v175q0 -200 -425 -200t-425 325v1000h250v-950q0 -175 300 -175t300 175v950h250v-1300zM150 1550v100h800v-100h-800z" />
    <glyph glyph-name="Ubreve" unicode="&#x16c;" horiz-adv-x="1400" 
d="M1200 300q0 -325 -600 -325t-600 325v1500h250v-1450q0 -175 350 -175t350 175v1450h250v-1500zM200 2100v50h150q0 -150 250 -150t250 150h150v-50q0 -250 -400 -250t-400 250z" />
    <glyph glyph-name="ubreve" unicode="&#x16d;" 
d="M1100 0h-250v175q0 -200 -425 -200t-425 325v1000h250v-950q0 -175 300 -175t300 175v950h250v-1300zM150 1700v50h150q0 -150 250 -150t250 150h150v-50q0 -250 -400 -250t-400 250z" />
    <glyph glyph-name="Uring" unicode="&#x16e;" horiz-adv-x="1400" 
d="M1200 300q0 -325 -600 -325t-600 325v1500h250v-1450q0 -175 350 -175t350 175v1450h250v-1500zM800 1975q0 -150 -200 -150t-200 150v100q0 150 200 150t200 -150v-100zM700 2050q0 75 -100 75t-100 -75v-50q0 -75 100 -75t100 75v50z" />
    <glyph glyph-name="uring" unicode="&#x16f;" 
d="M1100 0h-250v175q0 -200 -425 -200t-425 325v1000h250v-950q0 -175 300 -175t300 175v950h250v-1300zM750 1525q0 -150 -200 -150t-200 150v100q0 150 200 150t200 -150v-100zM650 1600q0 75 -100 75t-100 -75v-50q0 -75 100 -75t100 75v50z" />
    <glyph glyph-name="Udblacute" unicode="&#x170;" horiz-adv-x="1400" 
d="M1200 300q0 -325 -600 -325t-600 325v1500h250v-1450q0 -175 350 -175t350 175v1450h250v-1500zM700 1900l125 300h250l-225 -300h-150zM350 1900l125 300h250l-225 -300h-150z" />
    <glyph glyph-name="udbleacute" unicode="&#x171;" 
d="M1100 0h-250v175q0 -200 -425 -200t-425 325v1000h250v-950q0 -175 300 -175t300 175v950h250v-1300zM650 1500l125 300h250l-225 -300h-150zM300 1500l125 300h250l-225 -300h-150z" />
    <glyph glyph-name="Uogonek" unicode="&#x172;" horiz-adv-x="1400" 
d="M1200 300q0 -325 -600 -325t-600 325v1500h250v-1450q0 -175 350 -175t350 175v1450h250v-1500zM730 0q-150 -185 255 -350h-380q-295 165 -55 350h180z" />
    <glyph glyph-name="uogonek" unicode="&#x173;" 
d="M1100 0h-250v175q0 -200 -425 -200t-425 325v1000h250v-950q0 -175 300 -175t300 175v950h250v-1300zM580 0q-150 -185 255 -350h-380q-295 165 -55 350h180z" />
    <glyph glyph-name="Wcircumflex" unicode="&#x174;" horiz-adv-x="2180" 
d="M830 0l200 1020l200 -1020h300l530 1800h-280l-400 -1420l-200 1420h-300l-200 -1420l-400 1420h-280l530 -1800h300zM1044 2206l281 -192l-94 -113l-206 150l-206 -150l-92 113l279 192h38z" />
    <glyph glyph-name="wcircumflex" unicode="&#x175;" horiz-adv-x="1520" 
d="M290 0l-290 1300h250l170 -840l155 840h250l145 -840l180 840h250l-290 -1300h-250l-160 730l-160 -730h-250zM719 1806l281 -192l-94 -113l-206 150l-206 -150l-92 113l279 192h38z" />
    <glyph glyph-name="Ycircumflex" unicode="&#x176;" horiz-adv-x="1570" 
d="M850 650v-650h-250v650l-600 1150h300l425 -900l425 900h300zM744 2206l281 -192l-94 -113l-206 150l-206 -150l-92 113l279 192h38z" />
    <glyph glyph-name="ycircumflex" unicode="&#x177;" horiz-adv-x="1400" 
d="M691 -216q-83 -259 -285 -259h-186v200h154q87 0 121 124l47 151l-542 1300h300l350 -1008l330 1008h300zM669 1806l281 -192l-94 -113l-206 150l-206 -150l-92 113l279 192h38z" />
    <glyph glyph-name="Ydieresis" unicode="&#x178;" horiz-adv-x="1570" 
d="M850 650v-650h-250v650l-600 1150h300l425 -900l425 900h300zM350 2075q0 125 125 125t125 -125t-125 -125t-125 125zM850 2075q0 125 125 125t125 -125t-125 -125t-125 125z" />
    <glyph glyph-name="Ydieresis" unicode="&#x3ab;" horiz-adv-x="1570" 
d="M850 650v-650h-250v650l-600 1150h300l425 -900l425 900h300zM350 2075q0 125 125 125t125 -125t-125 -125t-125 125zM850 2075q0 125 125 125t125 -125t-125 -125t-125 125z" />
    <glyph glyph-name="Zacute" unicode="&#x179;" horiz-adv-x="1250" 
d="M275 200h775v-200h-1050v200l775 1400h-775v200h1050v-200zM400 1900l125 300h275l-250 -300h-150z" />
    <glyph glyph-name="zacute" unicode="&#x17a;" horiz-adv-x="1200" 
d="M290 200h710v-200h-1000v200l710 900h-710v200h1000v-200zM400 1500l125 300h275l-250 -300h-150z" />
    <glyph glyph-name="Zdotabove" unicode="&#x17b;" horiz-adv-x="1250" 
d="M275 200h775v-200h-1050v200l775 1400h-775v200h1050v-200zM696 1991q-8 -140 -147 -144q-134 0 -146 140q0 135 146 143q143 -4 147 -139z" />
    <glyph glyph-name="zdotabove" unicode="&#x17c;" horiz-adv-x="1200" 
d="M290 200h710v-200h-1000v200l710 900h-710v200h1000v-200zM646 1591q-8 -140 -147 -144q-134 0 -146 140q0 135 146 143q143 -4 147 -139z" />
    <glyph glyph-name="Zcaron" unicode="&#x17d;" horiz-adv-x="1250" 
d="M275 200h775v-200h-1050v200l775 1400h-775v200h1050v-200zM450 1850l-275 300h200l150 -225l150 225h200l-275 -300h-150z" />
    <glyph glyph-name="zcaron" unicode="&#x17e;" horiz-adv-x="1200" 
d="M290 200h710v-200h-1000v200l710 900h-710v200h1000v-200zM425 1400l-275 300h200l150 -225l150 225h200l-275 -300h-150z" />
    <glyph glyph-name="longs" unicode="&#x17f;" horiz-adv-x="590" 
d="M390 0v1500q0 150 250 150v200h-236q-264 0 -264 -300v-250h-140v-200h140v-1100h250z" />
    <glyph glyph-name="bstroke" unicode="&#x180;" 
d="M100 0v1500h-100v150h100v200h250v-200h350v-150h-350v-375q0 200 425 200t425 -325v-700q0 -325 -425 -325t-425 200v-175h-250zM350 950v-600q0 -175 300 -175t300 175v600q0 175 -300 175t-300 -175z" />
    <glyph glyph-name="Bhook" unicode="&#x181;" horiz-adv-x="1700" 
d="M0 1800h850q350 0 350 -300v-300q0 -250 -300 -250q300 0 300 -300v-350q0 -300 -350 -300h-850v1600q-150 0 -150 -200h-250q0 400 400 400zM750 1050q200 0 200 150v250q0 150 -200 150h-500v-550h500zM750 850h-500v-650h500q200 0 200 150v350q0 150 -200 150z" />
    <glyph glyph-name="Btopbar" unicode="&#x182;" horiz-adv-x="1400" 
d="M0 1800h1150v-200h-900v-450h600q350 0 350 -300v-550q0 -300 -350 -300h-850v1800zM750 950h-500v-750h500q200 0 200 150v450q0 150 -200 150z" />
    <glyph glyph-name="Btopbar" unicode="&#x411;" horiz-adv-x="1400" 
d="M0 1800h1150v-200h-900v-450h600q350 0 350 -300v-550q0 -300 -350 -300h-850v1800zM750 950h-500v-750h500q200 0 200 150v450q0 150 -200 150z" />
    <glyph glyph-name="btopbar" unicode="&#x183;" 
d="M100 0v1850h1050v-200h-800v-525q0 200 425 200t425 -325v-700q0 -325 -425 -325t-425 200v-175h-250zM350 950v-600q0 -175 300 -175t300 175v600q0 175 -300 175t-300 -175z" />
    <glyph glyph-name="ToneSix" unicode="&#x184;" horiz-adv-x="1400" 
d="M0 1500l-150 85l400 215v-650h600q350 0 350 -300v-550q0 -300 -350 -300h-850v1500zM750 950h-500v-750h500q200 0 200 150v450q0 150 -200 150z" />
    <glyph glyph-name="tonesix" unicode="&#x185;" 
d="M0 0v1550l-150 100l400 200v-725q0 200 425 200t425 -325v-700q0 -325 -425 -325t-425 200v-175h-250zM250 950v-600q0 -175 300 -175t300 175v600q0 175 -300 175t-300 -175z" />
    <glyph glyph-name="openO" unicode="&#x186;" horiz-adv-x="1400" 
d="M0 1500q0 325 600 325t600 -325v-1200q0 -325 -600 -325t-600 325v250h250v-200q0 -175 350 -175t350 175v1100q0 175 -350 175t-350 -175v-200h-250v250z" />
    <glyph glyph-name="Chook" unicode="&#x187;" horiz-adv-x="1400" 
d="M1200 300q0 -325 -600 -325t-600 325v1200q0 325 600 325q475 0 475 -325q0 325 275 325v-200q-150 0 -150 -225v-150h-250v150q0 225 -350 225t-350 -175v-1100q0 -175 350 -175t350 175v200h250v-250z" />
    <glyph glyph-name="chook" unicode="&#x188;" horiz-adv-x="1350" 
d="M1100 300q0 -325 -550 -325t-550 325v700q0 325 550 325q425 0 425 -325q0 325 275 325v-200q-150 0 -150 -225v-100h-250v100q0 225 -300 225t-300 -175v-600q0 -175 300 -175t300 175v150h250v-200z" />
    <glyph glyph-name="Dhook" unicode="&#x18a;" horiz-adv-x="1700" 
d="M0 1800h850q350 0 350 -300v-1200q0 -300 -350 -300h-850v1600q-150 0 -150 -200h-250q0 400 400 400zM750 200q200 0 200 150v1100q0 150 -200 150h-500v-1400h500z" />
    <glyph glyph-name="Dtopbar" unicode="&#x18b;" horiz-adv-x="1400" 
d="M1200 0h-850q-350 0 -350 300v550q0 300 350 300h600v450h-900v200h1150v-1800zM250 800v-450q0 -150 200 -150h500v750h-500q-200 0 -200 -150z" />
    <glyph glyph-name="dtopbar" unicode="&#x18c;" 
d="M950 0v175q0 -200 -425 -200t-425 325v700q0 325 425 325t425 -200v525h-800v200h1050v-1850h-250zM650 1125q-300 0 -300 -175v-600q0 -175 300 -175t300 175v600q0 175 -300 175z" />
    <glyph glyph-name="turneddelta" unicode="&#x18d;" 
d="M250 625q0 -175 300 -175t300 175v325q0 175 -300 175t-300 -175v-325zM0 1000q0 325 550 325t550 -325v-425q0 -275 -300 -305l49 -20q251 -100 251 -275v-175q0 -225 -550 -225t-550 244v201h250v-122q0 -123 300 -123t300 125v50q0 100 -175 150l-388 119
q-287 106 -287 356v425z" />
    <glyph glyph-name="revE" unicode="&#x18e;" horiz-adv-x="1200" 
d="M750 200v575h-625v200h625v625h-750v200h1000v-1800h-1000v200h750z" />
    <glyph glyph-name="Schwa" unicode="&#x18f;" horiz-adv-x="1400" 
d="M250 800v-450q0 -175 350 -175t350 175v450h-700zM0 1500q0 325 600 325t600 -325v-1200q0 -325 -600 -325t-600 325v700h950v450q0 175 -350 175t-350 -175v-200h-250v250z" />
    <glyph glyph-name="Schwa" unicode="&#x4d8;" horiz-adv-x="1400" 
d="M250 800v-450q0 -175 350 -175t350 175v450h-700zM0 1500q0 325 600 325t600 -325v-1200q0 -325 -600 -325t-600 325v700h950v450q0 175 -350 175t-350 -175v-200h-250v250z" />
    <glyph glyph-name="openE" unicode="&#x190;" horiz-adv-x="1400" 
d="M600 1625q-350 0 -350 -175v-250q0 -150 200 -150h350v-200h-350q-200 0 -200 -150v-350q0 -175 350 -175t350 175v200h250v-250q0 -325 -600 -325t-600 325v350q0 300 250 300q-250 0 -250 300v250q0 325 600 325t600 -325v-250h-250v200q0 175 -350 175z" />
    <glyph glyph-name="Fhook" unicode="&#x191;" horiz-adv-x="1500" 
d="M250 1600v-575h625v-200h-625v-825h-250v1600q-150 0 -150 -200h-250q0 400 400 400h1000v-200h-750z" />
    <glyph glyph-name="fhook" unicode="&#x192;" horiz-adv-x="840" 
d="M140 0v1100h-140v200h140v250q0 300 264 300h236v-200q-250 0 -250 -150v-200h250v-200h-250v-1100q0 -350 -400 -350v200q150 0 150 150z" />
    <glyph glyph-name="Ghook" unicode="&#x193;" horiz-adv-x="1450" 
d="M1200 0h-113l-78 175q-59 -200 -409 -200q-600 0 -600 325v1200q0 325 600 325q475 0 475 -325q0 325 275 325v-200q-150 0 -150 -225v-150h-250v150q0 225 -350 225t-350 -175v-1100q0 -175 350 -175t350 175v450h-492v200h742v-1000z" />
    <glyph glyph-name="latinGamma" unicode="&#x194;" horiz-adv-x="1620" 
d="M1500 1800h-300l-450 -1420l-450 1420h-300l650 -1675q-250 -575 100 -575t100 575zM750 -250q-50 0 0 200q50 -200 0 -200z" />
    <glyph glyph-name="hv" unicode="&#x195;" horiz-adv-x="2100" 
d="M0 1850h250v-725q0 200 425 200t425 -325v-800h200q350 0 350 150v950h250v-1000q0 -300 -600 -300h-450v950q0 175 -300 175t-300 -175v-950h-250v1850z" />
    <glyph glyph-name="latinIota" unicode="&#x196;" horiz-adv-x="1010" 
d="M250 1700v-1350q0 -175 180 -175t180 175v150h200v-250q0 -275 -380 -275q-430 0 -430 275v1450h250z" />
    <glyph glyph-name="Istroke" unicode="&#x197;" horiz-adv-x="650" 
d="M0 0v200h100v625h-200v150h200v625h-100v200h450v-200h-100v-625h200v-150h-200v-625h100v-200h-450z" />
    <glyph glyph-name="Khook" unicode="&#x198;" 
d="M0 0v1800h250v-754l408 542q159 212 304 212h144l-1 -200q-140 0 -231 -126l-286 -397l567 -1077h-295l-435 868l-175 -237v-631h-250z" />
    <glyph glyph-name="khook" unicode="&#x199;" horiz-adv-x="1200" 
d="M0 0v1400q0 450 400 450v-250q-150 0 -150 -200v-754l462 654h289l-404 -587l421 -713h-287l-293 484l-188 -265v-219h-250z" />
    <glyph glyph-name="lbar" unicode="&#x19a;" horiz-adv-x="650" 
d="M100 0v825h-200v150h200v875h250v-875h200v-150h-200v-825h-250z" />
    <glyph glyph-name="lambdastroke" unicode="&#x19b;" horiz-adv-x="1400" 
d="M1280 0h-300l-335 1008l-345 -1008h-300l537 1290l-278 -1l1 151h225l-35 85q-39 125 -126 125h-124v200h186q202 0 285 -259l54 -151h235l-2 -150h-173l191 -494z" />
    <glyph glyph-name="turnedm" unicode="&#x19c;" horiz-adv-x="1910" 
d="M1710 1800h-250v-1450q0 -175 -240 -175t-240 175v1450h-250v-1450q0 -175 -240 -175t-240 175v1450h-250v-1500q0 -325 342 -325t413 160q55 -160 380 -160t325 200v-175h250v1800z" />
    <glyph glyph-name="Nlefthook" unicode="&#x19d;" 
d="M300 1800l550 -1300v1300h250v-1800h-300l-550 1300v-1300q0 -350 -400 -350v200q150 0 150 150v1800h300z" />
    <glyph glyph-name="nlongrightleg" unicode="&#x19e;" 
d="M0 1300h250v-175q0 200 425 200t425 -325v-1450h-250v1400q0 175 -300 175t-300 -175v-950h-250v1300z" />
    <glyph glyph-name="nlongrightleg" unicode="&#x3b7;" 
d="M0 1300h250v-175q0 200 425 200t425 -325v-1450h-250v1400q0 175 -300 175t-300 -175v-950h-250v1300z" />
    <glyph glyph-name="Omiddletilde" unicode="&#x19f;" horiz-adv-x="1400" 
d="M950 800q-75 -75 -200 -77.5t-200 72.5t-187.5 65t-112.5 -110v-400q0 -175 350 -175t350 175v450zM1200 300q0 -325 -600 -325t-600 325v1200q0 325 600 325t600 -325v-1200zM250 1000q75 75 200 77.5t200 -72.5t187.5 -65t112.5 110v400q0 175 -350 175t-350 -175v-450
z" />
    <glyph glyph-name="Ohorn" unicode="&#x1a0;" horiz-adv-x="1600" 
d="M950 1450q0 175 -350 175t-350 -175v-1100q0 -175 350 -175t350 175v1100zM1200 300q0 -325 -600 -325t-600 325v1200q0 325 600 325t600 -325q100 0 100 300h200q0 -400 -300 -400v-1100z" />
    <glyph glyph-name="ohorn" unicode="&#x1a1;" horiz-adv-x="1500" 
d="M850 950q0 175 -300 175t-300 -175v-600q0 -175 300 -175t300 175v600zM1100 300q0 -325 -550 -325t-550 325v700q0 325 550 325t550 -325q100 0 100 300h200q0 -400 -300 -400v-600z" />
    <glyph glyph-name="OI" unicode="&#x1a2;" horiz-adv-x="1900" 
d="M1200 300q0 -325 -600 -325t-600 325v1200q0 325 600 325q475 0 475 -225q0 225 312.5 225t312.5 -325v-1700h100v-200h-450v200h100v1600q0 225 -125 225t-125 -225v-850v-250zM950 1450q0 175 -350 175t-350 -175v-1100q0 -175 350 -175t350 175v1100z" />
    <glyph glyph-name="oi" unicode="&#x1a3;" horiz-adv-x="1800" 
d="M1100 300q0 -325 -550 -325t-550 325v700q0 325 550 325q425 0 425 -225q0 225 312.5 225t312.5 -325v-1400h-250v1300q0 225 -125 225t-125 -225v-350v-250zM850 950q0 175 -300 175t-300 -175v-600q0 -175 300 -175t300 175v600z" />
    <glyph glyph-name="Phook" unicode="&#x1a4;" horiz-adv-x="1700" 
d="M0 1800h750q450 0 450 -350v-400q0 -350 -450 -350h-500v-700h-250v1600q-150 0 -150 -200h-250q0 400 400 400zM650 900q300 0 300 200v300q0 200 -300 200h-400v-700h400z" />
    <glyph glyph-name="phook" unicode="&#x1a5;" 
d="M400 1800v-200q-150 0 -150 -200v-275q0 200 425 200t425 -325v-700q0 -325 -425 -325t-425 200v-650h-250v1875q0 400 400 400zM550 175q300 0 300 175v600q0 175 -300 175t-300 -175v-600q0 -175 300 -175z" />
    <glyph glyph-name="YR" unicode="&#x1a6;" horiz-adv-x="1400" 
d="M0 2000h250v-200h550q400 0 400 -300v-300q0 -300 -250 -300q250 0 250 -300v-950q0 -100 100 -100h-250q-100 0 -100 100v1000q0 150 -200 150h-500v-800h-250v2000zM750 1000q200 0 200 150v300q0 150 -200 150h-500v-600h500z" />
    <glyph glyph-name="ToneTwo" unicode="&#x1a7;" horiz-adv-x="1400" 
d="M950 1300v150q0 175 -350 175t-350 -175v-200h-250v250q0 325 600 325t600 -325v-300q0 -250 -480 -325l-240 -37q-235 -38 -230 -188v-300q0 -175 350 -175t350 175v200h250v-250q0 -325 -600 -325t-600 325v400q0 300 480 375l240 37q230 38 230 188z" />
    <glyph glyph-name="ToneTwo" unicode="&#x3e8;" horiz-adv-x="1400" 
d="M950 1300v150q0 175 -350 175t-350 -175v-200h-250v250q0 325 600 325t600 -325v-300q0 -250 -480 -325l-240 -37q-235 -38 -230 -188v-300q0 -175 350 -175t350 175v200h250v-250q0 -325 -600 -325t-600 325v400q0 300 480 375l240 37q230 38 230 188z" />
    <glyph glyph-name="tonetwo" unicode="&#x1a8;" 
d="M850 892v58q0 175 -300 175t-300 -175v-100h-250v150q0 325 550 325t550 -325v-125q0 -304 -550 -324q-300 -19 -300 -128v-73q0 -175 300 -175t300 175v100h250v-150q0 -325 -550 -325t-550 325v175q0 277 550 300q300 12 300 117z" />
    <glyph glyph-name="Sigma" unicode="&#x1a9;" horiz-adv-x="1500" 
d="M0 0v250l610 685l-610 615v250h1300v-200h-1005l615 -620l-660 -730h1050v-250h-1300z" />
    <glyph glyph-name="Sigma" unicode="&#x3a3;" horiz-adv-x="1500" 
d="M0 0v250l610 685l-610 615v250h1300v-200h-1005l615 -620l-660 -730h1050v-250h-1300z" />
    <glyph glyph-name="reveshloop" unicode="&#x1aa;" horiz-adv-x="1450" 
d="M350 1100q-350 0 -350 362.5t350 362.5q400 0 400 -350v-1525q0 -175 150 -175t150 175v150h200v-200q0 -325 -350 -325q-400 0 -400 325v1250q-50 -50 -150 -50zM500 1462.5q0 162.5 -150 162.5t-150 -162.5t150 -162.5t150 162.5z" />
    <glyph glyph-name="tpalatalhook" unicode="&#x1ab;" horiz-adv-x="840" 
d="M390 1700v-400h250v-200h-250v-700q0 -200 250 -200v-200q0 -400 -400 -400v200q150 0 150 200q-250 0 -250 300v800h-140v200h140v400h250z" />
    <glyph glyph-name="Thook" unicode="&#x1ac;" horiz-adv-x="1410" 
d="M500 0v1600h-100q-150 0 -150 -250h-250q0 450 400 450h850v-200h-500v-1600h-250z" />
    <glyph glyph-name="thook" unicode="&#x1ad;" horiz-adv-x="840" 
d="M390 1400v-100h250v-200h-250v-700q0 -200 250 -200v-200h-250q-250 0 -250 300v800h-140v200h140v100q0 400 400 400v-200q-150 0 -150 -200z" />
    <glyph glyph-name="Tretroflexhook" unicode="&#x1ae;" horiz-adv-x="1370" 
d="M500 0v1600h-500v200h1250v-200h-500v-1600q0 -200 150 -200v-200q-400 0 -400 400z" />
    <glyph glyph-name="Uhorn" unicode="&#x1af;" horiz-adv-x="1600" 
d="M1200 300q0 -325 -600 -325t-600 325v1500h250v-1450q0 -175 350 -175t350 175v1450h250v-300q100 0 100 300h200q0 -400 -300 -400v-1100z" />
    <glyph glyph-name="uhook" unicode="&#x1b0;" horiz-adv-x="1500" 
d="M1100 0h-250v175q0 -200 -425 -200t-425 325v1000h250v-950q0 -175 300 -175t300 175v950h250v-300q100 0 100 300h200q0 -400 -300 -400v-900z" />
    <glyph glyph-name="latinUpsilon" unicode="&#x1b1;" horiz-adv-x="1400" 
d="M1200 300q0 -325 -600 -325t-600 325v1000q0 200 200 300h-200v200h500v-200q-250 0 -250 -350v-900q0 -175 350 -175t350 175v900q0 350 -250 350v200h500v-200h-200q200 -100 200 -300v-1000z" />
    <glyph glyph-name="Vhook" unicode="&#x1b2;" horiz-adv-x="1400" 
d="M1200 450q0 -450 -600 -450h-600v1800h250v-1600h350q350 0 350 300v1300h250v-1350z" />
    <glyph glyph-name="Yhook" unicode="&#x1b3;" horiz-adv-x="1585" 
d="M850 650v-650h-250v650l-600 1150h300l425 -900l319 675q106 225 431 225v-200q-128 0 -175 -88z" />
    <glyph glyph-name="Yhook" unicode="&#x3d2;" horiz-adv-x="1585" 
d="M850 650v-650h-250v650l-600 1150h300l425 -900l319 675q106 225 431 225v-200q-128 0 -175 -88z" />
    <glyph glyph-name="yhook" unicode="&#x1b4;" horiz-adv-x="1410" 
d="M691 -216q-83 -259 -285 -259h-186v200h154q87 0 121 124l47 151l-542 1300h300l350 -1008l248 756q82 252 402 252v-200q-99 0 -167 -179z" />
    <glyph glyph-name="Zstroke" unicode="&#x1b5;" horiz-adv-x="1250" 
d="M275 200h775v-200h-1050v200l332 600h-207v200h317l333 600h-775v200h1050v-200l-333 -600h208v-200h-318z" />
    <glyph glyph-name="zstroke" unicode="&#x1b6;" horiz-adv-x="1200" 
d="M290 200h710v-200h-1000v200l275 350h-150v200h310l275 350h-710v200h1000v-200l-275 -350h150v-200h-310z" />
    <glyph glyph-name="Ezh" unicode="&#x1b7;" horiz-adv-x="1400" 
d="M0 1600v200h1200v-200l-485 -455q485 0 485 -300v-1045q0 -275 -600 -275t-600 275v125h250v-75q0 -125 350 -125t350 125v945q0 150 -350 150q-150 0 -290 -145l-170 105l735 695h-875z" />
    <glyph glyph-name="revEzh" unicode="&#x1b8;" horiz-adv-x="1400" 
d="M325 1600l735 -695l-170 -105q-140 145 -290 145q-350 0 -350 -150v-945q0 -125 350 -125t350 125v75h250v-125q0 -275 -600 -275t-600 275v1045q0 300 485 300l-485 455v200h1200v-200h-875z" />
    <glyph glyph-name="revezh" unicode="&#x1b9;" 
d="M325 1100l635 -640l-170 -105q-140 145 -290 145q-250 0 -250 -150v-500q0 -125 300 -125t300 125v75h250v-125q0 -275 -550 -275t-550 275v600q0 300 385 300l-385 400v200h1100v-200h-775z" />
    <glyph glyph-name="ezhtail" unicode="&#x1ba;" 
d="M0 1100v200h1100v-200l-305 -295q305 -5 305 -305v-250q0 -275 -550 -275q-300 0 -300 -125t300 -125t300 125h250q0 -325 -550 -325t-550 325t550 325q300 0 300 125v150q0 150 -250 150q-95 0 -290 -145l-170 105l635 540h-775z" />
    <glyph glyph-name="Twostroke" unicode="&#x1bb;" horiz-adv-x="1400" 
d="M950 1250v200q0 175 -352 175q-348 0 -348 -175v-200h-250v250q0 325 600 325t600 -325v-300q5 -140 -150 -300h125v-200h-330q-180 -180 -595 -500h950v-200h-1200v250q325 260 530 450h-155v200h375q200 200 200 350z" />
    <glyph glyph-name="ToneFive" unicode="&#x1bc;" horiz-adv-x="1400" 
d="M1200 1800v-200h-950v-275h350q600 0 600 -325v-700q0 -325 -600 -325t-600 325v250h250v-200q0 -175 350 -175t350 175v600q0 175 -350 175h-600v675h1200z" />
    <glyph glyph-name="tonefive" unicode="&#x1bd;" 
d="M1100 1300v-200h-850v-200h300q550 0 550 -325v-275q0 -325 -550 -325t-550 325v150h250v-100q0 -175 300 -175t300 175v175q0 175 -300 175h-550v600h1100z" />
    <glyph glyph-name="invglottalstopstroke" unicode="&#x1be;" 
d="M550 750q550 -23 550 -300v-150q0 -325 -550 -325t-550 325v150h250v-100q0 -175 300 -175t300 175v48q0 109 -300 128q-410 20 -410 324v250h-140v200h140v400h250v-400h250v-175h-250v-258q0 -105 160 -117z" />
    <glyph glyph-name="wynn" unicode="&#x1bf;" 
d="M250 1300v-175q0 175 300 175h550v-450q0 -650 -850 -900v-425h-250v1775h250zM850 900v200h-300q-300 0 -300 -150v-800q620 250 600 750z" />
    <glyph glyph-name="dentalclick" unicode="&#x1c0;" horiz-adv-x="352" 
d="M150 1800v-1800h-150v1800h150z" />
    <glyph glyph-name="lateralclick" unicode="&#x1c1;" horiz-adv-x="700" 
d="M500 1800v-1800h-150v1800h150zM150 1800v-1800h-150v1800h150z" />
    <glyph glyph-name="alveolarclick" unicode="&#x1c2;" horiz-adv-x="750" 
d="M350 1800v-700h200v-150h-200v-100h200v-150h-200v-700h-150v700h-200v150h200v100h-200v150h200v700h150z" />
    <glyph glyph-name="DZcaron" unicode="&#x1c4;" horiz-adv-x="2650" 
d="M0 1800h850q350 0 350 -300v-1200q0 -300 -350 -300h-850v1800zM750 200q200 0 200 150v1100q0 150 -200 150h-500v-1400h500zM1675 200h775v-200h-1050v200l775 1400h-775v200h1050v-200zM1875 1850l-275 300h200l150 -225l150 225h200l-275 -300h-150z" />
    <glyph glyph-name="Dzcaron" unicode="&#x1c5;" horiz-adv-x="2600" 
d="M0 1800h850q350 0 350 -300v-1200q0 -300 -350 -300h-850v1800zM750 200q200 0 200 150v1100q0 150 -200 150h-500v-1400h500zM1690 200h710v-200h-1000v200l710 900h-710v200h1000v-200zM1825 1400l-275 300h200l150 -225l150 225h200l-275 -300h-150z" />
    <glyph glyph-name="dzcaron" unicode="&#x1c6;" horiz-adv-x="2500" 
d="M850 0v175q0 -200 -425 -200t-425 325v700q0 325 425 325t425 -200v725h250v-1850h-250zM550 1125q-300 0 -300 -175v-600q0 -175 300 -175t300 175v600q0 175 -300 175zM1590 200h710v-200h-1000v200l710 900h-710v200h1000v-200zM1725 1400l-275 300h200l150 -225
l150 225h200l-275 -300h-150z" />
    <glyph glyph-name="LJ" unicode="&#x1c7;" horiz-adv-x="2450" 
d="M0 0v1800h250v-1600h750v-200h-1000zM2250 300q0 -325 -525 -325t-525 325v250h250v-200q0 -175 275 -175t275 175v1450h250v-1500z" />
    <glyph glyph-name="Lj" unicode="&#x1c8;" horiz-adv-x="1650" 
d="M0 0v1800h250v-1600h750v-200h-1000zM1450 1300v-1515q0 -260 -251 -260h-179l1 200q179 0 179 175v1400h250zM1325 1550q-145 0 -145 137.5t145 137.5t145 -137.5t-145 -137.5z" />
    <glyph glyph-name="lj" unicode="&#x1c9;" horiz-adv-x="900" 
d="M0 0v1850h250v-1850h-250zM700 1300v-1515q0 -260 -251 -260h-179l1 200q179 0 179 175v1400h250zM575 1550q-145 0 -145 137.5t145 137.5t145 -137.5t-145 -137.5z" />
    <glyph glyph-name="NJ" unicode="&#x1ca;" horiz-adv-x="2550" 
d="M300 1800l550 -1300v1300h250v-1800h-300l-550 1300v-1300h-250v1800h300zM2350 300q0 -325 -525 -325t-525 325v250h250v-200q0 -175 275 -175t275 175v1450h250v-1500z" />
    <glyph glyph-name="Nj" unicode="&#x1cb;" horiz-adv-x="1750" 
d="M300 1800l550 -1300v1300h250v-1800h-300l-550 1300v-1300h-250v1800h300zM1550 1300v-1515q0 -260 -251 -260h-179l1 200q179 0 179 175v1400h250zM1425 1550q-145 0 -145 137.5t145 137.5t145 -137.5t-145 -137.5z" />
    <glyph glyph-name="nj" unicode="&#x1cc;" horiz-adv-x="1750" 
d="M0 1300h250v-175q0 200 425 200t425 -325v-1000h-250v950q0 175 -300 175t-300 -175v-950h-250v1300zM1550 1300v-1515q0 -260 -251 -260h-179l1 200q179 0 179 175v1400h250zM1425 1550q-145 0 -145 137.5t145 137.5t145 -137.5t-145 -137.5z" />
    <glyph glyph-name="Acaron" unicode="&#x1cd;" horiz-adv-x="1620" 
d="M610 1800h280l610 -1800h-300l-160 500h-580l-160 -500h-300zM975 700l-225 720l-225 -720h450zM675 1850l-275 300h200l150 -225l150 225h200l-275 -300h-150z" />
    <glyph glyph-name="acaron" unicode="&#x1ce;" horiz-adv-x="1200" 
d="M440 -25q-440 0 -440 325v170q0 310 500 310q250 0 250 120v50q0 175 -250 175q-215 0 -215 -175v-100h-250v150q0 325 465 325q500 0 500 -325v-825q0 -175 100 -175h-250q-100 0 -100 175q0 -200 -310 -200zM500 580q-250 0 -250 -160v-70q0 -175 250 -175t250 236v259
q0 -90 -250 -90zM425 1400l-275 300h200l150 -225l150 225h200l-275 -300h-150z" />
    <glyph glyph-name="Icaron" unicode="&#x1cf;" horiz-adv-x="650" 
d="M0 0v200h100v1400h-100v200h450v-200h-100v-1400h100v-200h-450zM150 1850l-275 300h200l150 -225l150 225h200l-275 -300h-150z" />
    <glyph glyph-name="icaron" unicode="&#x1d0;" horiz-adv-x="450" 
d="M0 1300v-1300h250v1300h-250zM50 1400l-275 300h200l150 -225l150 225h200l-275 -300h-150z" />
    <glyph glyph-name="Ocaron" unicode="&#x1d1;" horiz-adv-x="1400" 
d="M950 1450q0 175 -350 175t-350 -175v-1100q0 -175 350 -175t350 175v1100zM1200 300q0 -325 -600 -325t-600 325v1200q0 325 600 325t600 -325v-1200zM525 1850l-275 300h200l150 -225l150 225h200l-275 -300h-150z" />
    <glyph glyph-name="ocaron" unicode="&#x1d2;" 
d="M850 950q0 175 -300 175t-300 -175v-600q0 -175 300 -175t300 175v600zM1100 300q0 -325 -550 -325t-550 325v700q0 325 550 325t550 -325v-700zM475 1400l-275 300h200l150 -225l150 225h200l-275 -300h-150z" />
    <glyph glyph-name="Ucaron" unicode="&#x1d3;" horiz-adv-x="1400" 
d="M1200 300q0 -325 -600 -325t-600 325v1500h250v-1450q0 -175 350 -175t350 175v1450h250v-1500zM525 1850l-275 300h200l150 -225l150 225h200l-275 -300h-150z" />
    <glyph glyph-name="ucaron" unicode="&#x1d4;" 
d="M1100 0h-250v175q0 -200 -425 -200t-425 325v1000h250v-950q0 -175 300 -175t300 175v950h250v-1300zM475 1400l-275 300h200l150 -225l150 225h200l-275 -300h-150z" />
    <glyph glyph-name="Udiaeresismacron" unicode="&#x1d5;" horiz-adv-x="1400" 
d="M1200 300q0 -325 -600 -325t-600 325v1500h250v-1450q0 -175 350 -175t350 175v1450h250v-1500zM225 2075q0 125 125 125t125 -125t-125 -125t-125 125zM725 2075q0 125 125 125t125 -125t-125 -125t-125 125zM200 2250v100h800v-100h-800z" />
    <glyph glyph-name="udiaeresismacron" unicode="&#x1d6;" 
d="M1100 0h-250v175q0 -200 -425 -200t-425 325v1000h250v-950q0 -175 300 -175t300 175v950h250v-1300zM175 1575q0 125 125 125t125 -125t-125 -125t-125 125zM675 1575q0 125 125 125t125 -125t-125 -125t-125 125zM150 1750v100h800v-100h-800z" />
    <glyph glyph-name="Udiaeresisacute" unicode="&#x1d7;" horiz-adv-x="1400" 
d="M1200 300q0 -325 -600 -325t-600 325v1500h250v-1450q0 -175 350 -175t350 175v1450h250v-1500zM225 2075q0 125 125 125t125 -125t-125 -125t-125 125zM725 2075q0 125 125 125t125 -125t-125 -125t-125 125zM500 2100l125 300h275l-250 -300h-150z" />
    <glyph glyph-name="udiaeresisacute" unicode="&#x1d8;" 
d="M1100 0h-250v175q0 -200 -425 -200t-425 325v1000h250v-950q0 -175 300 -175t300 175v950h250v-1300zM175 1575q0 125 125 125t125 -125t-125 -125t-125 125zM675 1575q0 125 125 125t125 -125t-125 -125t-125 125zM475 1700l125 300h275l-250 -300h-150z" />
    <glyph glyph-name="Udiaeresiscaron" unicode="&#x1d9;" horiz-adv-x="1400" 
d="M1200 300q0 -325 -600 -325t-600 325v1500h250v-1450q0 -175 350 -175t350 175v1450h250v-1500zM225 2075q0 125 125 125t125 -125t-125 -125t-125 125zM725 2075q0 125 125 125t125 -125t-125 -125t-125 125zM525 2175l-275 225h200l150 -168.75l150 168.75h200
l-275 -225h-150z" />
    <glyph glyph-name="udiaeresiscaron" unicode="&#x1da;" 
d="M1100 0h-250v175q0 -200 -425 -200t-425 325v1000h250v-950q0 -175 300 -175t300 175v950h250v-1300zM175 1575q0 125 125 125t125 -125t-125 -125t-125 125zM675 1575q0 125 125 125t125 -125t-125 -125t-125 125zM475 1700l-275 300h200l150 -225l150 225h200
l-275 -300h-150z" />
    <glyph glyph-name="Udiaeresisgrave" unicode="&#x1db;" horiz-adv-x="1400" 
d="M1200 300q0 -325 -600 -325t-600 325v1500h250v-1450q0 -175 350 -175t350 175v1450h250v-1500zM225 2075q0 125 125 125t125 -125t-125 -125t-125 125zM725 2075q0 125 125 125t125 -125t-125 -125t-125 125zM550 2100l-250 300h300l100 -300h-150z" />
    <glyph glyph-name="udiaeresisgrave" unicode="&#x1dc;" 
d="M1100 0h-250v175q0 -200 -425 -200t-425 325v1000h250v-950q0 -175 300 -175t300 175v950h250v-1300zM175 1575q0 125 125 125t125 -125t-125 -125t-125 125zM675 1575q0 125 125 125t125 -125t-125 -125t-125 125zM500 1700l-250 300h300l100 -300h-150z" />
    <glyph glyph-name="schwa" unicode="&#x1dd;" 
d="M550 -25q-550 0 -550 325v450h850v200q0 175 -300 175t-300 -175v-100h-250v150q0 325 550 325t550 -325v-700q0 -325 -550 -325zM250 550v-200q0 -175 300 -175t300 175v200h-600z" />
    <glyph glyph-name="schwa" unicode="&#x4d9;" 
d="M550 -25q-550 0 -550 325v450h850v200q0 175 -300 175t-300 -175v-100h-250v150q0 325 550 325t550 -325v-700q0 -325 -550 -325zM250 550v-200q0 -175 300 -175t300 175v200h-600z" />
    <glyph glyph-name="schwa" unicode="&#x259;" 
d="M550 -25q-550 0 -550 325v450h850v200q0 175 -300 175t-300 -175v-100h-250v150q0 325 550 325t550 -325v-700q0 -325 -550 -325zM250 550v-200q0 -175 300 -175t300 175v200h-600z" />
    <glyph glyph-name="Adiaeresismacron" unicode="&#x1de;" horiz-adv-x="1620" 
d="M610 1800h280l610 -1800h-300l-160 500h-580l-160 -500h-300zM975 700l-225 720l-225 -720h450zM375 2075q0 125 125 125t125 -125t-125 -125t-125 125zM875 2075q0 125 125 125t125 -125t-125 -125t-125 125zM350 2250v100h800v-100h-800z" />
    <glyph glyph-name="adiaeresismacron" unicode="&#x1df;" horiz-adv-x="1200" 
d="M440 -25q-440 0 -440 325v170q0 310 500 310q250 0 250 120v50q0 175 -250 175q-215 0 -215 -175v-100h-250v150q0 325 465 325q500 0 500 -325v-825q0 -175 100 -175h-250q-100 0 -100 175q0 -200 -310 -200zM500 580q-250 0 -250 -160v-70q0 -175 250 -175t250 236v259
q0 -90 -250 -90zM150 1575q0 125 125 125t125 -125t-125 -125t-125 125zM650 1575q0 125 125 125t125 -125t-125 -125t-125 125zM125 1750v100h800v-100h-800z" />
    <glyph glyph-name="Adotmacron" unicode="&#x1e0;" horiz-adv-x="1620" 
d="M610 1800h280l610 -1800h-300l-160 500h-580l-160 -500h-300zM975 700l-225 720l-225 -720h450zM896 1991q-8 -140 -147 -144q-134 0 -146 140q0 135 146 143q143 -4 147 -139zM350 2200v100h800v-100h-800z" />
    <glyph glyph-name="adotmacron" unicode="&#x1e1;" horiz-adv-x="1200" 
d="M440 -25q-440 0 -440 325v170q0 310 500 310q250 0 250 120v50q0 175 -250 175q-215 0 -215 -175v-100h-250v150q0 325 465 325q500 0 500 -325v-825q0 -175 100 -175h-250q-100 0 -100 175q0 -200 -310 -200zM500 580q-250 0 -250 -160v-70q0 -175 250 -175t250 236v259
q0 -90 -250 -90zM646 1591q-8 -140 -147 -144q-134 0 -146 140q0 135 146 143q143 -4 147 -139zM100 1800v100h800v-100h-800z" />
    <glyph glyph-name="AEmacron" unicode="&#x1e2;" horiz-adv-x="2110" 
d="M1200 1600v-575h625v-200h-625v-625h750v-200h-1000v350h-470l-180 -350h-300l950 1800h1000v-200h-750zM580 550h370v750zM700 1950v100h800v-100h-800z" />
    <glyph glyph-name="aemacron" unicode="&#x1e3;" horiz-adv-x="2050" 
d="M1600 750v200q0 175 -300 175t-300 -175v-200h600zM440 -25q-440 0 -440 325v170q0 310 500 310q250 0 250 120v50q0 175 -250 175q-215 0 -215 -175v-100h-250v150q0 325 465 325q275 0 375 -125q100 125 425 125q550 0 550 -325v-450h-850v-150q0 -225 300 -225
t300 175v100h250v-150q0 -325 -550 -325q-375 0 -425 200q-50 -200 -435 -200zM500 580q-250 0 -250 -160v-70q0 -175 250 -175t250 236v259q0 -90 -250 -90zM475 1550v100h800v-100h-800z" />
    <glyph glyph-name="Gstroke" unicode="&#x1e4;" horiz-adv-x="1400" 
d="M1200 0h-113l-78 175q-59 -200 -409 -200q-600 0 -600 325v1200q0 325 600 325t600 -325v-250h-250v200q0 175 -350 175t-350 -175v-1100q0 -175 350 -175t350 175v150h-250v150h250v150h-492v200h742v-350h150v-150h-150v-500z" />
    <glyph glyph-name="gstroke" unicode="&#x1e5;" 
d="M1100 1300v-575h150v-150h-150v-775q0 -275 -550 -275t-550 275v125h250v-75q0 -125 300 -125t300 125v325q0 -200 -425 -200t-425 325v700q0 325 425 325t425 -200v175h250zM850 350v225h-250v150h250v225q0 175 -300 175t-300 -175v-600q0 -175 300 -175t300 175z" />
    <glyph glyph-name="Gcaron" unicode="&#x1e6;" horiz-adv-x="1400" 
d="M1200 0h-113l-78 175q-59 -200 -409 -200q-600 0 -600 325v1200q0 325 600 325t600 -325v-250h-250v200q0 175 -350 175t-350 -175v-1100q0 -175 350 -175t350 175v450h-492v200h742v-1000zM525 1850l-275 300h200l150 -225l150 225h200l-275 -300h-150z" />
    <glyph glyph-name="gcaron" unicode="&#x1e7;" 
d="M1100 1300v-1500q0 -275 -550 -275t-550 275v125h250v-75q0 -125 300 -125t300 125v325q0 -200 -425 -200t-425 325v700q0 325 425 325t425 -200v175h250zM850 350v600q0 175 -300 175t-300 -175v-600q0 -175 300 -175t300 175zM475 1400l-275 300h200l150 -225l150 225
h200l-275 -300h-150z" />
    <glyph glyph-name="Kcaron" unicode="&#x1e8;" 
d="M0 0v1800h250v-754l567 754h289l-518 -723l567 -1077h-295l-435 868l-175 -237v-631h-250zM425 1850l-275 300h200l150 -225l150 225h200l-275 -300h-150z" />
    <glyph glyph-name="kcaron" unicode="&#x1e9;" horiz-adv-x="1200" 
d="M0 0v1850h250v-1204l462 654h289l-404 -587l421 -713h-287l-293 484l-188 -265v-219h-250zM493.75 1500l-206.25 300h150l112.5 -225l112.5 225h150l-206.25 -300h-112.5z" />
    <glyph glyph-name="Oogonek" unicode="&#x1ea;" horiz-adv-x="1400" 
d="M950 1450q0 175 -350 175t-350 -175v-1100q0 -175 350 -175t350 175v1100zM1200 300q0 -325 -600 -325t-600 325v1200q0 325 600 325t600 -325v-1200zM730 0q-150 -185 255 -350h-380q-295 165 -55 350h180z" />
    <glyph glyph-name="oogonek" unicode="&#x1eb;" 
d="M850 950q0 175 -300 175t-300 -175v-600q0 -175 300 -175t300 175v600zM1100 300q0 -325 -550 -325t-550 325v700q0 325 550 325t550 -325v-700zM680 0q-150 -185 255 -350h-380q-295 165 -55 350h180z" />
    <glyph glyph-name="Oogonekmacron" unicode="&#x1ec;" horiz-adv-x="1400" 
d="M950 1450q0 175 -350 175t-350 -175v-1100q0 -175 350 -175t350 175v1100zM1200 300q0 -325 -600 -325t-600 325v1200q0 325 600 325t600 -325v-1200zM730 0q-150 -185 255 -350h-380q-295 165 -55 350h180zM200 1950v100h800v-100h-800z" />
    <glyph glyph-name="oogonekmacron" unicode="&#x1ed;" 
d="M850 950q0 175 -300 175t-300 -175v-600q0 -175 300 -175t300 175v600zM1100 300q0 -325 -550 -325t-550 325v700q0 325 550 325t550 -325v-700zM680 0q-150 -185 255 -350h-380q-295 165 -55 350h180zM150 1550v100h800v-100h-800z" />
    <glyph glyph-name="Ezhcaron" unicode="&#x1ee;" horiz-adv-x="1400" 
d="M0 1600v200h1200v-200l-485 -455q485 0 485 -300v-1045q0 -275 -600 -275t-600 275v125h250v-75q0 -125 350 -125t350 125v945q0 150 -350 150q-150 0 -290 -145l-170 105l735 695h-875zM525 1850l-275 300h200l150 -225l150 225h200l-275 -300h-150z" />
    <glyph glyph-name="ezhcaron" unicode="&#x1ef;" 
d="M0 1100v200h1100v-200l-385 -400q385 0 385 -300v-600q0 -275 -550 -275t-550 275v125h250v-75q0 -125 300 -125t300 125v500q0 150 -250 150q-150 0 -290 -145l-170 105l635 640h-775zM475 1500l-275 300h200l150 -225l150 225h200l-275 -300h-150z" />
    <glyph glyph-name="jcaron" unicode="&#x1f0;" horiz-adv-x="450" 
d="M250 1300v-1515q0 -260 -251 -260h-179l1 200q179 0 179 175v1400h250zM50 1400l-275 300h200l150 -225l150 225h200l-275 -300h-150z" />
    <glyph glyph-name="DZ" unicode="&#x1f1;" horiz-adv-x="2650" 
d="M0 1800h850q350 0 350 -300v-1200q0 -300 -350 -300h-850v1800zM750 200q200 0 200 150v1100q0 150 -200 150h-500v-1400h500zM1675 200h775v-200h-1050v200l775 1400h-775v200h1050v-200z" />
    <glyph glyph-name="Dz" unicode="&#x1f2;" horiz-adv-x="2600" 
d="M0 1800h850q350 0 350 -300v-1200q0 -300 -350 -300h-850v1800zM750 200q200 0 200 150v1100q0 150 -200 150h-500v-1400h500zM1690 200h710v-200h-1000v200l710 900h-710v200h1000v-200z" />
    <glyph glyph-name="dz" unicode="&#x1f3;" horiz-adv-x="2500" 
d="M850 0v175q0 -200 -425 -200t-425 325v700q0 325 425 325t425 -200v725h250v-1850h-250zM550 1125q-300 0 -300 -175v-600q0 -175 300 -175t300 175v600q0 175 -300 175zM1590 200h710v-200h-1000v200l710 900h-710v200h1000v-200z" />
    <glyph glyph-name="Gacute" unicode="&#x1f4;" horiz-adv-x="1400" 
d="M1200 0h-113l-78 175q-59 -200 -409 -200q-600 0 -600 325v1200q0 325 600 325t600 -325v-250h-250v200q0 175 -350 175t-350 -175v-1100q0 -175 350 -175t350 175v450h-492v200h742v-1000zM525 1900l125 300h275l-250 -300h-150z" />
    <glyph glyph-name="gacute" unicode="&#x1f5;" 
d="M1100 1300v-1500q0 -275 -550 -275t-550 275v125h250v-75q0 -125 300 -125t300 125v325q0 -200 -425 -200t-425 325v700q0 325 425 325t425 -200v175h250zM850 350v600q0 175 -300 175t-300 -175v-600q0 -175 300 -175t300 175zM450 1500l125 300h275l-250 -300h-150z
" />
    <glyph glyph-name="Hwair" unicode="&#x1f6;" horiz-adv-x="2100" 
d="M250 1800v-800h600v800h250v-1600h200q350 0 350 150v950h250v-1000q0 -300 -600 -300h-450v800h-600v-800h-250v1800h250z" />
    <glyph glyph-name="Wynn" unicode="&#x1f7;" horiz-adv-x="1400" 
d="M250 1800v-200q0 200 350 200h600v-950q0 -650 -950 -900v-425h-250v2275h250zM950 900v700h-350q-350 0 -350 -250v-1200q700 250 700 750z" />
    <glyph glyph-name="Ngrave" unicode="&#x1f8;" 
d="M300 1800l550 -1300v1300h250v-1800h-300l-550 1300v-1300h-250v1800h300zM450 1900l-250 300h300l100 -300h-150z" />
    <glyph glyph-name="ngrave" unicode="&#x1f9;" 
d="M0 1300h250v-175q0 200 425 200t425 -325v-1000h-250v950q0 175 -300 175t-300 -175v-950h-250v1300zM450 1500l-250 300h300l100 -300h-150z" />
    <glyph glyph-name="Aringacute" unicode="&#x1fa;" horiz-adv-x="1700" 
d="M610 1800h280l610 -1800h-300l-160 500h-580l-160 -500h-300zM975 700l-225 720l-225 -720h450zM950 1975q0 -150 -200 -150t-200 150v100q0 150 200 150t200 -150v-100zM850 2050q0 75 -100 75t-100 -75v-50q0 -75 100 -75t100 75v50zM650 2200l125 225h275l-250 -225
h-150z" />
    <glyph glyph-name="aringacute" unicode="&#x1fb;" horiz-adv-x="1200" 
d="M440 -25q-440 0 -440 325v170q0 310 500 310q250 0 250 120v50q0 175 -250 175q-215 0 -215 -175v-100h-250v150q0 325 465 325q500 0 500 -325v-825q0 -175 100 -175h-250q-100 0 -100 175q0 -200 -310 -200zM500 580q-250 0 -250 -160v-70q0 -175 250 -175t250 236v259
q0 -90 -250 -90zM700 1525q0 -150 -200 -150t-200 150v100q0 150 200 150t200 -150v-100zM600 1600q0 75 -100 75t-100 -75v-50q0 -75 100 -75t100 75v50zM425 1825l125 300h275l-250 -300h-150z" />
    <glyph glyph-name="AEacute" unicode="&#x1fc;" horiz-adv-x="2110" 
d="M1200 1600v-575h625v-200h-625v-625h750v-200h-1000v350h-470l-180 -350h-300l950 1800h1000v-200h-750zM580 550h370v750zM1000 1900l125 300h275l-250 -300h-150z" />
    <glyph glyph-name="aeacute" unicode="&#x1fd;" horiz-adv-x="2050" 
d="M1600 750v200q0 175 -300 175t-300 -175v-200h600zM440 -25q-440 0 -440 325v170q0 310 500 310q250 0 250 120v50q0 175 -250 175q-215 0 -215 -175v-100h-250v150q0 325 465 325q275 0 375 -125q100 125 425 125q550 0 550 -325v-450h-850v-150q0 -225 300 -225
t300 175v100h250v-150q0 -325 -550 -325q-375 0 -425 200q-50 -200 -435 -200zM500 580q-250 0 -250 -160v-70q0 -175 250 -175t250 236v259q0 -90 -250 -90zM800 1500l125 300h275l-250 -300h-150z" />
    <glyph glyph-name="Ostrokeacute" unicode="&#x1fe;" horiz-adv-x="1400" 
d="M250 350q0 -175 350 -175t350 175v620l-700 -400v-220zM1200 300q0 -325 -600 -325t-600 325v120l-65 -30l-110 190l175 105v815q0 325 600 325t600 -325v-130l65 35l125 -180l-190 -110v-815zM955 1450q0 175 -350 175t-350 -175v-620l700 400v220zM525 1900l125 300
h275l-250 -300h-150z" />
    <glyph glyph-name="ostrokeacute" unicode="&#x1ff;" 
d="M1100 300q0 -325 -550 -325q-300 0 -450 98l-60 -53l-160 120l120 120v740q0 325 550 325q365 -5 445 -108l65 63l170 -120l-130 -125v-735zM550 175q300 0 300 175v445l-565 -540q25 -80 265 -80zM550 1125q-300 0 -300 -175v-450l565 545q-25 80 -265 80zM450 1500
l125 300h275l-250 -300h-150z" />
    <glyph glyph-name="Adblgrave" unicode="&#x200;" horiz-adv-x="1620" 
d="M610 1800h280l610 -1800h-300l-160 500h-580l-160 -500h-300zM975 700l-225 720l-225 -720h450zM500 1900l-225 300h250l125 -300h-150zM850 1900l-225 300h250l125 -300h-150z" />
    <glyph glyph-name="adblgrave" unicode="&#x201;" horiz-adv-x="1200" 
d="M440 -25q-440 0 -440 325v170q0 310 500 310q250 0 250 120v50q0 175 -250 175q-215 0 -215 -175v-100h-250v150q0 325 465 325q500 0 500 -325v-825q0 -175 100 -175h-250q-100 0 -100 175q0 -200 -310 -200zM500 580q-250 0 -250 -160v-70q0 -175 250 -175t250 236v259
q0 -90 -250 -90zM275 1500l-225 300h250l125 -300h-150zM625 1500l-225 300h250l125 -300h-150z" />
    <glyph glyph-name="Ainvbreve" unicode="&#x202;" horiz-adv-x="1620" 
d="M610 1800h280l610 -1800h-300l-160 500h-580l-160 -500h-300zM975 700l-225 720l-225 -720h450zM1150 1900v-50h-150q0 150 -250 150t-250 -150h-150v50q0 250 400 250t400 -250z" />
    <glyph glyph-name="ainvbreve" unicode="&#x203;" horiz-adv-x="1200" 
d="M440 -25q-440 0 -440 325v170q0 310 500 310q250 0 250 120v50q0 175 -250 175q-215 0 -215 -175v-100h-250v150q0 325 465 325q500 0 500 -325v-825q0 -175 100 -175h-250q-100 0 -100 175q0 -200 -310 -200zM500 580q-250 0 -250 -160v-70q0 -175 250 -175t250 236v259
q0 -90 -250 -90zM900 1500v-50h-150q0 150 -250 150t-250 -150h-150v50q0 250 400 250t400 -250z" />
    <glyph glyph-name="Edblgrave" unicode="&#x204;" horiz-adv-x="1200" 
d="M250 1600v-575h625v-200h-625v-625h750v-200h-1000v1800h1000v-200h-750zM325 1900l-225 300h250l125 -300h-150zM675 1900l-225 300h250l125 -300h-150z" />
    <glyph glyph-name="edblgrave" unicode="&#x205;" 
d="M550 1325q550 0 550 -325v-450h-850v-200q0 -175 300 -175t300 175v100h250v-150q0 -325 -550 -325t-550 325v700q0 325 550 325zM850 750v200q0 175 -300 175t-300 -175v-200h600zM325 1500l-225 300h250l125 -300h-150zM675 1500l-225 300h250l125 -300h-150z" />
    <glyph glyph-name="Einvbreve" unicode="&#x206;" horiz-adv-x="1200" 
d="M250 1600v-575h625v-200h-625v-625h750v-200h-1000v1800h1000v-200h-750zM900 1900v-50h-150q0 150 -250 150t-250 -150h-150v50q0 250 400 250t400 -250z" />
    <glyph glyph-name="einvbreve" unicode="&#x207;" 
d="M550 1325q550 0 550 -325v-450h-850v-200q0 -175 300 -175t300 175v100h250v-150q0 -325 -550 -325t-550 325v700q0 325 550 325zM850 750v200q0 175 -300 175t-300 -175v-200h600zM950 1500v-50h-150q0 150 -250 150t-250 -150h-150v50q0 250 400 250t400 -250z" />
    <glyph glyph-name="Idblgrave" unicode="&#x208;" horiz-adv-x="650" 
d="M0 0v200h100v1400h-100v200h450v-200h-100v-1400h100v-200h-450zM-25 1900l-225 300h250l125 -300h-150zM325 1900l-225 300h250l125 -300h-150z" />
    <glyph glyph-name="idblgrave" unicode="&#x209;" horiz-adv-x="450" 
d="M0 1300v-1300h250v1300h-250zM-75 1500l-225 300h250l125 -300h-150zM275 1500l-225 300h250l125 -300h-150z" />
    <glyph glyph-name="Iinvbreve" unicode="&#x20a;" horiz-adv-x="650" 
d="M0 0v200h100v1400h-100v200h450v-200h-100v-1400h100v-200h-450zM453.613 1900v-50h-85.0527q0 150 -141.754 150t-141.754 -150h-85.0527v50q0 250 226.807 250t226.807 -250z" />
    <glyph glyph-name="iinvbreve" unicode="&#x20b;" horiz-adv-x="450" 
d="M0 1300v-1300h250v1300h-250zM352.002 1500v-50h-84.75q0 150 -141.251 150t-141.251 -150h-84.75v50q0 250 226.001 250t226.001 -250z" />
    <glyph glyph-name="Odblgrave" unicode="&#x20c;" horiz-adv-x="1400" 
d="M950 1450q0 175 -350 175t-350 -175v-1100q0 -175 350 -175t350 175v1100zM1200 300q0 -325 -600 -325t-600 325v1200q0 325 600 325t600 -325v-1200zM350 1900l-225 300h250l125 -300h-150zM700 1900l-225 300h250l125 -300h-150z" />
    <glyph glyph-name="odblgrave" unicode="&#x20d;" 
d="M850 950q0 175 -300 175t-300 -175v-600q0 -175 300 -175t300 175v600zM1100 300q0 -325 -550 -325t-550 325v700q0 325 550 325t550 -325v-700zM325 1500l-225 300h250l125 -300h-150zM675 1500l-225 300h250l125 -300h-150z" />
    <glyph glyph-name="Oinvbreve" unicode="&#x20e;" horiz-adv-x="1400" 
d="M950 1450q0 175 -350 175t-350 -175v-1100q0 -175 350 -175t350 175v1100zM1200 300q0 -325 -600 -325t-600 325v1200q0 325 600 325t600 -325v-1200zM1000 1900v-50h-150q0 150 -250 150t-250 -150h-150v50q0 250 400 250t400 -250z" />
    <glyph glyph-name="oinvbreve" unicode="&#x20f;" 
d="M850 950q0 175 -300 175t-300 -175v-600q0 -175 300 -175t300 175v600zM1100 300q0 -325 -550 -325t-550 325v700q0 325 550 325t550 -325v-700zM950 1500v-50h-150q0 150 -250 150t-250 -150h-150v50q0 250 400 250t400 -250z" />
    <glyph glyph-name="Rdblgrave" unicode="&#x210;" horiz-adv-x="1400" 
d="M0 1800h800q400 0 400 -300v-300q0 -300 -250 -300q250 0 250 -300v-500q0 -100 100 -100h-250q-100 0 -100 100v550q0 150 -200 150h-500v-800h-250v1800zM750 1000q200 0 200 150v300q0 150 -200 150h-500v-600h500zM350 1900l-225 300h250l125 -300h-150zM700 1900
l-225 300h250l125 -300h-150z" />
    <glyph glyph-name="rdblgrave" unicode="&#x211;" horiz-adv-x="1140" 
d="M0 1300h250v-175q0 200 345 200t345 -325v-150h-250v100q0 175 -220 175t-220 -175v-950h-250v1300zM225 1500l-225 300h250l125 -300h-150zM575 1500l-225 300h250l125 -300h-150z" />
    <glyph glyph-name="Rinvbreve" unicode="&#x212;" horiz-adv-x="1400" 
d="M0 1800h800q400 0 400 -300v-300q0 -300 -250 -300q250 0 250 -300v-500q0 -100 100 -100h-250q-100 0 -100 100v550q0 150 -200 150h-500v-800h-250v1800zM750 1000q200 0 200 150v300q0 150 -200 150h-500v-600h500zM1000 1900v-50h-150q0 150 -250 150t-250 -150h-150
v50q0 250 400 250t400 -250z" />
    <glyph glyph-name="rinvbreve" unicode="&#x213;" horiz-adv-x="1140" 
d="M0 1300h250v-175q0 200 345 200t345 -325v-150h-250v100q0 175 -220 175t-220 -175v-950h-250v1300zM850 1500v-50h-150q0 150 -250 150t-250 -150h-150v50q0 250 400 250t400 -250z" />
    <glyph glyph-name="Udblgrave" unicode="&#x214;" horiz-adv-x="1400" 
d="M1200 300q0 -325 -600 -325t-600 325v1500h250v-1450q0 -175 350 -175t350 175v1450h250v-1500zM375 1900l-225 300h250l125 -300h-150zM725 1900l-225 300h250l125 -300h-150z" />
    <glyph glyph-name="udblgrave" unicode="&#x215;" 
d="M1100 0h-250v175q0 -200 -425 -200t-425 325v1000h250v-950q0 -175 300 -175t300 175v950h250v-1300zM325 1500l-225 300h250l125 -300h-150zM675 1500l-225 300h250l125 -300h-150z" />
    <glyph glyph-name="Uinvbreve" unicode="&#x216;" horiz-adv-x="1400" 
d="M1200 300q0 -325 -600 -325t-600 325v1500h250v-1450q0 -175 350 -175t350 175v1450h250v-1500zM1000 1900v-50h-150q0 150 -250 150t-250 -150h-150v50q0 250 400 250t400 -250z" />
    <glyph glyph-name="uinvbreve" unicode="&#x217;" 
d="M1100 0h-250v175q0 -200 -425 -200t-425 325v1000h250v-950q0 -175 300 -175t300 175v950h250v-1300zM950 1500v-50h-150q0 150 -250 150t-250 -150h-150v50q0 250 400 250t400 -250z" />
    <glyph glyph-name="Scommabelow" unicode="&#x218;" horiz-adv-x="1400" 
d="M480 1112l240 -37q480 -75 480 -375v-400q0 -325 -600 -325t-600 325v250h250v-200q0 -175 350 -175t350 175v300q5 150 -230 188l-240 37q-480 75 -480 325v300q0 325 600 325t600 -325v-250h-250v200q0 175 -350 175t-350 -175v-150q0 -150 230 -188zM475 -225
q0 125 125 125t125 -125q0 -275 -250 -275v75q125 0 125 75q-125 0 -125 125z" />
    <glyph glyph-name="scommabelow" unicode="&#x219;" 
d="M275 892v58q0 175 275 175t275 -175v-100h250v150q0 325 -525 325t-525 -325v-125q0 -304 525 -325q300 -18 300 -125v-75q0 -175 -300 -175t-300 175v100h-250v-150q0 -325 550 -325t550 325v175q0 277 -550 300q-275 12 -275 117zM425 -225q0 125 125 125t125 -125
q0 -275 -250 -275v75q125 0 125 75q-125 0 -125 125z" />
    <glyph glyph-name="Tcommabelow" unicode="&#x21a;" horiz-adv-x="1450" 
d="M500 0v1600h-500v200h1250v-200h-500v-1600h-250zM500 -225q0 125 125 125t125 -125q0 -275 -250 -275v75q125 0 125 75q-125 0 -125 125z" />
    <glyph glyph-name="tcommabelow" unicode="&#x21b;" horiz-adv-x="840" 
d="M390 1700v-400h250v-200h-250v-700q0 -200 250 -200v-200h-250q-250 0 -250 300v800h-140v200h140v400h250zM150 -225q0 125 125 125t125 -125q0 -275 -250 -275v75q125 0 125 75q-125 0 -125 125z" />
    <glyph glyph-name="Yogh" unicode="&#x21c;" horiz-adv-x="1400" 
d="M950 1175v275q0 175 -350 175t-350 -175v-200h-250v250q0 325 600 325t600 -325v-400q0 -165 -112 -245l-107 -70q219 -85 219 -275v-360q0 -250 -415 -370l-675 -195l-110 170l650 210q300 85 300 235v260q0 140 -215 175l-385 -190l-155 150l563 307q192 98 192 273z
" />
    <glyph glyph-name="yogh" unicode="&#x21d;" 
d="M850 850v100q0 175 -300 175t-300 -175v-150h-250v200q0 325 550 325t550 -325v-200q0 -180 -112 -260l-107 -70q219 -85 219 -275v-195q0 -250 -415 -370l-575 -170l-110 170l550 185q300 85 300 235v95q0 140 -215 175l-385 -190l-155 150l563 308q192 97 192 262z" />
    <glyph glyph-name="Hcaron" unicode="&#x21e;" 
d="M250 1800v-800h600v800h250v-1800h-250v800h-600v-800h-250v1800h250zM475 1800l-275 300h200l150 -225l150 225h200l-275 -300h-150z" />
    <glyph glyph-name="hcaron" unicode="&#x21f;" 
d="M0 1850h250v-725q0 200 425 200t425 -325v-1000h-250v950q0 175 -300 175t-300 -175v-950h-250v1850zM543.75 1400l-206.25 300h150l112.5 -225l112.5 225h150l-206.25 -300h-112.5z" />
    <glyph glyph-name="Nlongleg" unicode="&#x220;" horiz-adv-x="1400" 
d="M0 1800h250v-175q0 200 475 200t475 -375v-1900h-250v1850q0 225 -350 225t-350 -225v-1400h-250v1800z" />
    <glyph glyph-name="dcurl" unicode="&#x221;" 
d="M850 0v175q0 -200 -425 -200t-425 325v700q0 325 425 325t425 -200v725h250v-1850q300 0 300 -200t-275 -200t-275 250h-100v150h100zM550 1125q-300 0 -300 -175v-600q0 -175 300 -175t300 175v600q0 175 -300 175zM1100 -150q0 -100 62.5 -100t62.5 50t-125 50z" />
    <glyph glyph-name="OU" unicode="&#x222;" horiz-adv-x="1400" 
d="M0 1250v200q0 325 550 325v-200q-300 0 -300 -175v-200q0 -150 350 -150t350 150v300q0 175 -300 172v203q550 0 550 -325v-300q0 -300 -250 -300q250 0 250 -300v-350q0 -325 -600 -325t-600 325v350q0 300 250 300q-250 0 -250 300zM600 850q-350 0 -350 -150v-350
q0 -175 350 -175t350 175v350q0 150 -350 150z" />
    <glyph glyph-name="ou" unicode="&#x223;" 
d="M0 1250v200q0 325 500 325v-200q-250 0 -250 -175v-200q0 -150 300 -150t300 150v300q0 175 -250 172v203q500 0 500 -325v-300q0 -300 -250 -300q250 0 250 -300v-350q0 -325 -550 -325t-550 325v350q0 300 250 300q-250 0 -250 300zM550 850q-300 0 -300 -150v-350
q0 -175 300 -175t300 175v350q0 150 -300 150z" />
    <glyph glyph-name="Zhook" unicode="&#x224;" horiz-adv-x="1250" 
d="M275 200h375q400 0 400 -350h-250q0 150 -150 150h-650v200l775 1400h-775v200h1050v-200z" />
    <glyph glyph-name="zhook" unicode="&#x225;" horiz-adv-x="1200" 
d="M290 200h310q400 0 400 -350h-250q0 150 -150 150h-600v200l710 900h-710v200h1000v-200z" />
    <glyph glyph-name="Adot" unicode="&#x226;" horiz-adv-x="1620" 
d="M610 1800h280l610 -1800h-300l-160 500h-580l-160 -500h-300zM975 700l-225 720l-225 -720h450zM896 1991q-8 -140 -147 -144q-134 0 -146 140q0 135 146 143q143 -4 147 -139z" />
    <glyph glyph-name="adot" unicode="&#x227;" horiz-adv-x="1200" 
d="M440 -25q-440 0 -440 325v170q0 310 500 310q250 0 250 120v50q0 175 -250 175q-215 0 -215 -175v-100h-250v150q0 325 465 325q500 0 500 -325v-825q0 -175 100 -175h-250q-100 0 -100 175q0 -200 -310 -200zM500 580q-250 0 -250 -160v-70q0 -175 250 -175t250 236v259
q0 -90 -250 -90zM646 1591q-8 -140 -147 -144q-134 0 -146 140q0 135 146 143q143 -4 147 -139z" />
    <glyph glyph-name="Ecedilla" unicode="&#x228;" horiz-adv-x="1200" 
d="M250 1600v-575h625v-200h-625v-625h750v-200h-1000v1800h1000v-200h-750zM575 50v-197q0 47 87.5 47t87.5 -111v-127q0 -112 -225 -112t-225 112v58l100 1v-33q0 -63 125 -63t125 65v85q0 50 -37.5 50t-37.5 -40v-35h-100v300h100z" />
    <glyph glyph-name="ecedilla" unicode="&#x229;" 
d="M550 1325q550 0 550 -325v-450h-850v-200q0 -175 300 -175t300 175v100h250v-150q0 -325 -550 -325t-550 325v700q0 325 550 325zM850 750v200q0 175 -300 175t-300 -175v-200h600zM575 50v-197q0 47 87.5 47t87.5 -111v-127q0 -112 -225 -112t-225 112v58l100 1v-33
q0 -63 125 -63t125 65v85q0 50 -37.5 50t-37.5 -40v-35h-100v300h100z" />
    <glyph glyph-name="Odiaeresismacron" unicode="&#x22a;" horiz-adv-x="1400" 
d="M950 1450q0 175 -350 175t-350 -175v-1100q0 -175 350 -175t350 175v1100zM1200 300q0 -325 -600 -325t-600 325v1200q0 325 600 325t600 -325v-1200zM225 2075q0 125 125 125t125 -125t-125 -125t-125 125zM725 2075q0 125 125 125t125 -125t-125 -125t-125 125z
M200 2250v100h800v-100h-800z" />
    <glyph glyph-name="odiaeresismacron" unicode="&#x22b;" 
d="M850 950q0 175 -300 175t-300 -175v-600q0 -175 300 -175t300 175v600zM1100 300q0 -325 -550 -325t-550 325v700q0 325 550 325t550 -325v-700zM175 1575q0 125 125 125t125 -125t-125 -125t-125 125zM675 1575q0 125 125 125t125 -125t-125 -125t-125 125zM150 1750
v100h800v-100h-800z" />
    <glyph glyph-name="Otildemacron" unicode="&#x22c;" horiz-adv-x="1400" 
d="M950 1450q0 175 -350 175t-350 -175v-1100q0 -175 350 -175t350 175v1100zM1200 300q0 -325 -600 -325t-600 325v1200q0 325 600 325t600 -325v-1200zM837.5 2000q112.5 0 112.5 100v50h150v-50q0 -250 -300 -250q-125 0 -200 75t-187.5 75t-112.5 -100v-50h-150v50
q0 250 300 250q125 0 200 -75t187.5 -75zM200 2200v100h800v-100h-800z" />
    <glyph glyph-name="Otildemacron" unicode="&#x22d;" 
d="M850 950q0 175 -300 175t-300 -175v-600q0 -175 300 -175t300 175v600zM1100 300q0 -325 -550 -325t-550 325v700q0 325 550 325t550 -325v-700zM762.5 1650q112.5 0 112.5 100v50h150v-50q0 -250 -300 -250q-125 0 -200 75t-187.5 75t-112.5 -100v-50h-150v50
q0 250 300 250q125 0 200 -75t187.5 -75zM150 1850v100h800v-100h-800z" />
    <glyph glyph-name="Odot" unicode="&#x22e;" horiz-adv-x="1400" 
d="M950 1450q0 175 -350 175t-350 -175v-1100q0 -175 350 -175t350 175v1100zM1200 300q0 -325 -600 -325t-600 325v1200q0 325 600 325t600 -325v-1200zM746 1991q-8 -140 -147 -144q-134 0 -146 140q0 135 146 143q143 -4 147 -139z" />
    <glyph glyph-name="odot" unicode="&#x22f;" 
d="M850 950q0 175 -300 175t-300 -175v-600q0 -175 300 -175t300 175v600zM1100 300q0 -325 -550 -325t-550 325v700q0 325 550 325t550 -325v-700zM696 1591q-8 -140 -147 -144q-134 0 -146 140q0 135 146 143q143 -4 147 -139z" />
    <glyph glyph-name="Odotmacron" unicode="&#x230;" horiz-adv-x="1400" 
d="M950 1450q0 175 -350 175t-350 -175v-1100q0 -175 350 -175t350 175v1100zM1200 300q0 -325 -600 -325t-600 325v1200q0 325 600 325t600 -325v-1200zM746 1991q-8 -140 -147 -144q-134 0 -146 140q0 135 146 143q143 -4 147 -139zM200 2200v100h800v-100h-800z" />
    <glyph glyph-name="odotmacron" unicode="&#x231;" 
d="M850 950q0 175 -300 175t-300 -175v-600q0 -175 300 -175t300 175v600zM1100 300q0 -325 -550 -325t-550 325v700q0 325 550 325t550 -325v-700zM696 1591q-8 -140 -147 -144q-134 0 -146 140q0 135 146 143q143 -4 147 -139zM150 1800v100h800v-100h-800z" />
    <glyph glyph-name="Ymacron" unicode="&#x232;" horiz-adv-x="1570" 
d="M850 650v-650h-250v650l-600 1150h300l425 -900l425 900h300zM320 1950v100h800v-100h-800z" />
    <glyph glyph-name="ymacron" unicode="&#x233;" horiz-adv-x="1400" 
d="M691 -216q-83 -259 -285 -259h-186v200h154q87 0 121 124l47 151l-542 1300h300l350 -1008l330 1008h300zM250 1550v100h800v-100h-800z" />
    <glyph glyph-name="ymacron" unicode="&#x4ef;" horiz-adv-x="1400" 
d="M691 -216q-83 -259 -285 -259h-186v200h154q87 0 121 124l47 151l-542 1300h300l350 -1008l330 1008h300zM250 1550v100h800v-100h-800z" />
    <glyph glyph-name="lcurl" unicode="&#x234;" horiz-adv-x="450" 
d="M0 0v1850h250v-1850q300 0 300 -200t-275 -200t-275 250h-100v150h100zM250 -150q0 -100 62.5 -100t62.5 50t-125 50z" />
    <glyph glyph-name="ncurl" unicode="&#x235;" 
d="M0 1300h250v-175q0 200 425 200t425 -325v-1000q300 0 300 -200t-275 -200t-275 250h-100v150h100v950q0 175 -300 175t-300 -175v-950h-250v1300zM1100 -150q0 -100 62.5 -100t62.5 50t-125 50z" />
    <glyph glyph-name="tcurl" unicode="&#x236;" horiz-adv-x="840" 
d="M140 0v1100h-140v200h140v400h250v-400h250v-200h-250v-1100q300 0 300 -200t-275 -200t-275 250h-100v150h100zM390 -150q0 -100 62.5 -100t62.5 50t-125 50z" />
    <glyph glyph-name="turneda" unicode="&#x250;" horiz-adv-x="1200" 
d="M660 1325q440 0 440 -325v-170q0 -310 -500 -310q-250 0 -250 -120v-50q0 -175 250 -175q215 0 215 175v100h250v-150q0 -325 -465 -325q-500 0 -500 325v825q0 175 -100 175h250q100 0 100 -175q0 200 310 200zM600 720q250 0 250 160v70q0 175 -250 175t-250 -236v-259
q0 90 250 90z" />
    <glyph glyph-name="latinalpha" unicode="&#x251;" 
d="M850 0v175q0 -200 -425 -200t-425 325v700q0 325 425 325t425 -200v175h250v-1300h-250zM550 1125q-300 0 -300 -175v-600q0 -175 300 -175t300 175v600q0 175 -300 175z" />
    <glyph glyph-name="turnedlatinalpha" unicode="&#x252;" 
d="M250 1300v-175q0 200 425 200t425 -325v-700q0 -325 -425 -325t-425 200v-175h-250v1300h250zM550 175q300 0 300 175v600q0 175 -300 175t-300 -175v-600q0 -175 300 -175z" />
    <glyph glyph-name="bhook" unicode="&#x253;" 
d="M0 0v1450q0 400 400 400v-200q-150 0 -150 -200v-325q0 200 425 200t425 -325v-700q0 -325 -425 -325t-425 200v-175h-250zM250 950v-600q0 -175 300 -175t300 175v600q0 175 -300 175t-300 -175z" />
    <glyph glyph-name="turnedc" unicode="&#x254;" 
d="M0 1000q0 325 550 325t550 -325v-700q0 -325 -550 -325t-550 325v200h250v-150q0 -175 300 -175t300 175v600q0 175 -300 175t-300 -175v-150h-250v200z" />
    <glyph glyph-name="ccurl" unicode="&#x255;" 
d="M550 -25q-125 0 -275 25l-85 -120l-190 120l75 100q-70 75 -75 200v700q0 325 550 325t550 -325v-200h-250v150q0 175 -300 175t-300 -175v-635q270 285 500 285q350 0 350 -312.5t-550 -312.5zM550 175q300 0 300 112.5t-100 112.5q-135 0 -330 -215q50 -10 130 -10z
" />
    <glyph glyph-name="dtail" unicode="&#x256;" 
d="M850 0v175q0 -200 -425 -200t-425 325v700q0 325 425 325t425 -200v725h250v-1850q0 -200 150 -200v-200q-400 0 -400 400zM550 1125q-300 0 -300 -175v-600q0 -175 300 -175t300 175v600q0 175 -300 175z" />
    <glyph glyph-name="dhook" unicode="&#x257;" 
d="M850 0v175q0 -200 -425 -200t-425 325v700q0 325 425 325t425 -200v325q0 400 400 400v-200q-150 0 -150 -200v-1450h-250zM550 1125q-300 0 -300 -175v-600q0 -175 300 -175t300 175v600q0 175 -300 175z" />
    <glyph glyph-name="reve" unicode="&#x258;" 
d="M1100 1000v-700q0 -325 -550 -325t-550 325v150h250v-100q0 -175 300 -175t300 175v200h-850v450q0 325 550 325t550 -325zM850 750v200q0 175 -300 175t-300 -175v-200h600z" />
    <glyph glyph-name="schwahook" unicode="&#x25a;" horiz-adv-x="1525" 
d="M550 -25q-550 0 -550 325v450h850v200q0 175 -300 175t-300 -175v-100h-250v150q0 325 550 325t550 -325v-250q150 -150 200 0l125 -200q-100 -150 -325 0v-250q0 -325 -550 -325zM250 550v-200q0 -175 300 -175t300 175v200h-600z" />
    <glyph glyph-name="opene" unicode="&#x25b;" 
d="M550 1125q-300 0 -300 -175v-50q0 -150 200 -150h200v-200h-200q-200 0 -200 -150v-50q0 -175 300 -175t300 175v100h250v-150q0 -325 -550 -325t-550 325v100q0 250 250 250q-250 0 -250 250v100q0 325 550 325t550 -325v-150h-250v100q0 175 -300 175z" />
    <glyph glyph-name="revopene" unicode="&#x25c;" 
d="M250 950v-100h-250v150q0 325 550 325t550 -325v-100q0 -250 -250 -250q250 0 250 -250v-100q0 -325 -550 -325t-550 325v150h250v-100q0 -175 300 -175t300 175v50q0 150 -200 150h-200v200h200q200 0 200 150v50q0 175 -300 175t-300 -175z" />
    <glyph glyph-name="revopene" unicode="&#x437;" 
d="M250 950v-100h-250v150q0 325 550 325t550 -325v-100q0 -250 -250 -250q250 0 250 -250v-100q0 -325 -550 -325t-550 325v150h250v-100q0 -175 300 -175t300 175v50q0 150 -200 150h-200v200h200q200 0 200 150v50q0 175 -300 175t-300 -175z" />
    <glyph glyph-name="revopenehook" unicode="&#x25d;" horiz-adv-x="1525" 
d="M250 950v-100h-250v150q0 325 550 325t550 -275q150 -150 200 0l125 -200q-100 -150 -325 0q0 -200 -250 -200q250 0 250 -250v-100q0 -325 -550 -325t-550 325v150h250v-100q0 -175 300 -175t300 175v50q0 150 -200 150h-200v200h200q200 0 200 150v50q0 175 -300 175
t-300 -175z" />
    <glyph glyph-name="closedrevopene" unicode="&#x25e;" 
d="M250 950v-100v-400v-100q0 -175 300 -175t300 175v50q0 150 -200 150h-200v200h200q200 0 200 150v50q0 175 -300 175t-300 -175zM0 1000q0 325 550 325t550 -325v-100q0 -250 -250 -250q250 0 250 -250v-100q0 -325 -550 -325t-550 325v700z" />
    <glyph glyph-name="dotlessjstroke" unicode="&#x25f;" horiz-adv-x="780" 
d="M430 1300v-1100h150v-200h-150v-215q0 -260 -251 -260h-179v200q180 0 180 175v100h-180v200h180v1100h250z" />
    <glyph glyph-name="ghook" unicode="&#x260;" 
d="M1100 1300v-1500q0 -275 -550 -275t-550 275v125h250v-75q0 -125 300 -125t300 125v325q0 -200 -425 -200t-425 325v700q0 325 425 325t425 -200v175q0 400 400 400v-200q-150 0 -150 -200zM850 350v600q0 175 -300 175t-300 -175v-600q0 -175 300 -175t300 175z" />
    <glyph glyph-name="scriptg" unicode="&#x261;" 
d="M1100 1000v-1200q0 -275 -550 -275t-550 275v125h250v-75q0 -125 300 -125t300 125v325q0 -200 -425 -200t-425 325v700q0 325 375 325t475 -200l250 200v-325zM850 350v600q0 175 -300 175t-300 -175v-600q0 -175 300 -175t300 175z" />
    <glyph glyph-name="smallcapG" unicode="&#x262;" 
d="M1100 0h-113l-78 175q-59 -200 -359 -200q-550 0 -550 325v700q0 325 550 325t550 -325v-150h-250v100q0 175 -300 175t-300 -175v-600q0 -175 300 -175t300 175v150h-450v200h700v-700z" />
    <glyph glyph-name="latingamma" unicode="&#x263;" horiz-adv-x="1235" 
d="M655 125q250 -575 -100 -575t-100 575l-455 1175h265l290 -920l290 920h270zM555 -50q-50 -200 0 -200t0 200z" />
    <glyph glyph-name="ramshorn" unicode="&#x264;" 
d="M650 575q250 -575 -100 -575t-100 575l-150 375q-55 150 -125 150h-175v200h200q200 0 275 -235l75 -235l75 235q75 235 275 235h200v-200h-175q-70 0 -125 -150zM550 400q-50 -200 0 -200t0 200z" />
    <glyph glyph-name="turnedh" unicode="&#x265;" 
d="M1100 -450h-250v625q0 -200 -425 -200t-425 325v1000h250v-950q0 -175 300 -175t300 175v950h250v-1750z" />
    <glyph glyph-name="hhook" unicode="&#x266;" 
d="M400 1850v-200q-150 0 -150 -200v-325q0 200 425 200t425 -325v-1000h-250v950q0 175 -300 175t-300 -175v-950h-250v1450q0 400 400 400z" />
    <glyph glyph-name="henghook" unicode="&#x267;" 
d="M400 1850v-200q-150 0 -150 -200v-325q0 200 425 200t425 -325v-1100q0 -375 -420 -375v200q170 0 170 175v1050q0 175 -300 175t-300 -175v-950h-250v1450q0 400 400 400z" />
    <glyph glyph-name="istroke" unicode="&#x268;" horiz-adv-x="650" 
d="M0 0v550h-200v150h200v600h250v-600h200v-150h-200v-550h-250zM125 1550q-145 0 -145 137.5t145 137.5t145 -137.5t-145 -137.5z" />
    <glyph glyph-name="latiniota" unicode="&#x269;" horiz-adv-x="1010" 
d="M250 1300v-925q0 -175 180 -175t180 175v150h200v-250q0 -275 -380 -275q-430 0 -430 275v1025h250z" />
    <glyph glyph-name="smallcapI" unicode="&#x26a;" horiz-adv-x="650" 
d="M0 0v200h100v900h-100v200h450v-200h-100v-900h100v-200h-450z" />
    <glyph glyph-name="lmiddletilde" unicode="&#x26b;" horiz-adv-x="850" 
d="M300 0v925q-100 75 -200 0l-100 75q150 150 300 75v775h250v-925q100 -75 200 0l100 -75q-150 -150 -300 -75v-775h-250z" />
    <glyph glyph-name="lbelt" unicode="&#x26c;" horiz-adv-x="850" 
d="M300 0v825h-150q-150 0 -150 175t150 175q125 -35 150 -100v775h250v-875h200v-150h-200v-825h-250zM265 975q-80 100 -122.5 100t-42.5 -50t75 -50h90z" />
    <glyph glyph-name="lhook" unicode="&#x26d;" horiz-adv-x="450" 
d="M400 -150v-200q-400 0 -400 350v1850h250v-1850q0 -150 150 -150z" />
    <glyph glyph-name="lezh" unicode="&#x26e;" horiz-adv-x="1400" 
d="M250 1100v-1100h-250v1850h250v-550h950v-200l-385 -400q385 0 385 -300v-600q0 -275 -550 -275t-550 275v125h250v-75q0 -125 300 -125t300 125v500q0 150 -250 150q-150 0 -195 -85l-170 105l540 580h-625z" />
    <glyph glyph-name="turnedm" unicode="&#x26f;" horiz-adv-x="1910" 
d="M1710 1300h-250v-950q0 -175 -240 -175t-240 175v950h-250v-950q0 -175 -240 -175t-240 175v950h-250v-1000q0 -325 342 -325t413 160q55 -160 380 -160t325 200v-175h250v1300z" />
    <glyph glyph-name="turnedmlongleg" unicode="&#x270;" horiz-adv-x="1910" 
d="M1710 1300h-250v-950q0 -175 -240 -175t-240 175v950h-250v-950q0 -175 -240 -175t-240 175v950h-250v-1000q0 -325 342 -325t413 160q55 -160 380 -160t325 200v-625h250v1750z" />
    <glyph glyph-name="mhook" unicode="&#x271;" horiz-adv-x="1910" 
d="M0 1300h250v-175q0 200 325 200t380 -160q71 160 413 160t342 -325v-1000q0 -400 -400 -400v200q150 0 150 200v950q0 175 -240 175t-240 -175v-950h-250v950q0 175 -240 175t-240 -175v-950h-250v1300z" />
    <glyph glyph-name="nlefthook" unicode="&#x272;" 
d="M0 1300h250v-175q0 200 425 200t425 -325v-1000h-250v950q0 175 -300 175t-300 -175v-950q0 -400 -400 -400v200q150 0 150 200v1300z" />
    <glyph glyph-name="nretroflexhook" unicode="&#x273;" 
d="M0 1300h250v-175q0 200 425 200t425 -325v-1100q0 -100 150 -100v-200q-400 0 -400 300v1050q0 175 -300 175t-300 -175v-950h-250v1300z" />
    <glyph glyph-name="smallcapN" unicode="&#x274;" horiz-adv-x="1200" 
d="M300 1300l450 -900v900h250v-1300h-300l-450 900v-900h-250v1300h300z" />
    <glyph glyph-name="barredo" unicode="&#x275;" 
d="M250 350q0 -175 300 -175t300 175v200h-600v-200zM1100 300q0 -325 -550 -325t-550 325v700q0 325 550 325t550 -325v-700zM850 950q0 175 -300 175t-300 -175v-200h600v200z" />
    <glyph glyph-name="barredo" unicode="&#x4e9;" 
d="M250 350q0 -175 300 -175t300 175v200h-600v-200zM1100 300q0 -325 -550 -325t-550 325v700q0 325 550 325t550 -325v-700zM850 950q0 175 -300 175t-300 -175v-200h600v200z" />
    <glyph glyph-name="smallcapOE" unicode="&#x276;" horiz-adv-x="1950" 
d="M1200 1100v-350h525v-200h-525v-350h650v-200h-900v100q-100 -125 -300 -125q-550 0 -550 325v700q0 325 550 325q200 0 300 -125v100h900v-200h-650zM950 950q0 175 -300 175t-300 -175v-600q0 -175 300 -175t300 175v600z" />
    <glyph glyph-name="closedlatinomega" unicode="&#x277;" horiz-adv-x="1650" 
d="M950 1300q500 0 500 -300v-700q0 -300 -375 -300q-350 0 -350 350q0 -350 -350 -350q-375 0 -375 300v700q0 300 500 300h450zM950 1100h-450q-250 0 -250 -150v-600q0 -150 175 -150t175 350v350h250v-350q0 -350 175 -350t175 150v600q0 150 -250 150z" />
    <glyph glyph-name="latinphi" unicode="&#x278;" horiz-adv-x="1400" 
d="M950 950q0 175 -225 175v-950q225 0 225 175v600zM1200 300q0 -325 -475 -325v-425h-250v425q-475 0 -475 325v700q0 325 475 325v525h250v-525q475 0 475 -325v-700zM250 350q0 -175 225 -175v950q-225 0 -225 -175v-600z" />
    <glyph glyph-name="latinphi" unicode="&#x3d5;" horiz-adv-x="1400" 
d="M950 950q0 175 -225 175v-950q225 0 225 175v600zM1200 300q0 -325 -475 -325v-425h-250v425q-475 0 -475 325v700q0 325 475 325v525h250v-525q475 0 475 -325v-700zM250 350q0 -175 225 -175v950q-225 0 -225 -175v-600z" />
    <glyph glyph-name="turnedr" unicode="&#x279;" horiz-adv-x="1140" 
d="M940 0h-250v175q0 -200 -345 -200t-345 325v150h250v-100q0 -175 220 -175t220 175v950h250v-1300z" />
    <glyph glyph-name="turnedrlongleg" unicode="&#x27a;" horiz-adv-x="1140" 
d="M940 0h-250v175q0 -200 -345 -200t-345 325v150h250v-100q0 -175 220 -175t220 175v1500h250v-1850z" />
    <glyph glyph-name="turnedrhook" unicode="&#x27b;" horiz-adv-x="1140" 
d="M940 0q0 -200 150 -200v-200q-400 0 -400 400v175q0 -200 -345 -200t-345 325v150h250v-100q0 -175 220 -175t220 175v950h250v-1300z" />
    <glyph glyph-name="rlongleg" unicode="&#x27c;" horiz-adv-x="1140" 
d="M0 1300h250v-175q0 200 345 200t345 -325v-150h-250v100q0 175 -220 175t-220 -175v-1400h-250v1750z" />
    <glyph glyph-name="rtail" unicode="&#x27d;" horiz-adv-x="1140" 
d="M0 1300h250v-175q0 200 345 200t345 -325v-150h-250v100q0 175 -220 175t-220 -175v-950q0 -200 150 -200v-200q-400 0 -400 400v1300z" />
    <glyph glyph-name="rfishhook" unicode="&#x27e;" horiz-adv-x="1140" 
d="M0 1000q0 325 470 325t470 -325v-150h-250v100q0 175 -220 175t-220 -175v-950h-250v1000z" />
    <glyph glyph-name="revrfishhook" unicode="&#x27f;" horiz-adv-x="1140" 
d="M940 0h-250v950q0 175 -220 175t-220 -175v-100h-250v150q0 325 470 325t470 -325v-1000z" />
    <glyph glyph-name="smallcapR" unicode="&#x280;" horiz-adv-x="1250" 
d="M0 1300h650q400 0 400 -300v-50q0 -300 -250 -300q250 0 250 -300v-250q0 -100 100 -100h-250q-100 0 -100 100v300q0 150 -200 150h-350v-550h-250v1300zM600 750q200 0 200 150v50q0 150 -200 150h-350v-350h350z" />
    <glyph glyph-name="invsmallcapR" unicode="&#x281;" horiz-adv-x="1250" 
d="M0 1300h250v-550h350q200 0 200 150v300q0 100 100 100h250q-100 0 -100 -100v-250q0 -300 -250 -300q250 0 250 -300v-50q0 -300 -400 -300h-650v1300zM250 550v-350h350q200 0 200 150v50q0 150 -200 150h-350z" />
    <glyph glyph-name="shook" unicode="&#x282;" 
d="M550 550q-550 23 -550 300v150q0 325 550 325t550 -325v-150h-250v100q0 175 -300 175t-300 -175v-48q0 -109 300 -128q550 -20 550 -324v-150q0 -325 -550 -325q-375 0 -375 325q0 -400 225 -400v-200q-400 0 -400 342v308v100h250v-100q0 -175 300 -175t300 175v83
q0 105 -300 117z" />
    <glyph glyph-name="esh" unicode="&#x283;" horiz-adv-x="1410" 
d="M750 1450v-1550q0 -325 -400 -325q-350 0 -350 325v200h200v-150q0 -175 150 -175t150 175v1550q0 325 400 325q350 0 350 -325v-200h-200v150q0 175 -150 174q-150 1 -150 -174z" />
    <glyph glyph-name="dotlessjstrokehook" unicode="&#x284;" horiz-adv-x="780" 
d="M430 1300v-1100h150v-200h-150v-215q0 -260 -251 -260h-179v200q180 0 180 175v100h-180v200h180v1100q0 400 400 400v-200q-150 0 -150 -200z" />
    <glyph glyph-name="squatesh" unicode="&#x285;" horiz-adv-x="1450" 
d="M350 1124q-150 1 -150 -174v-150h-200v200q0 325 350 325q400 0 400 -325v-1050q0 -175 150 -175t150 175v150h200v-200q0 -325 -350 -325q-400 0 -400 325v1050q0 175 -150 174z" />
    <glyph glyph-name="eshcurl" unicode="&#x286;" horiz-adv-x="1350" 
d="M750 1450v-1150h230v-200h-230v-200q0 -325 -400 -325q-350 0 -350 325v100q0 300 350 300h150v1200q0 325 400 325q350 0 350 -325v-200h-200v150q0 175 -150 174q-150 1 -150 -174zM500 100h-130q-145 0 -145 -162.5t137.5 -162.5t137.5 125v200z" />
    <glyph glyph-name="invt" unicode="&#x287;" horiz-adv-x="840" 
d="M250 -400v400h-250v200h250v700q0 200 -250 200v200h250q250 0 250 -300v-800h140v-200h-140v-400h-250z" />
    <glyph glyph-name="tretroflexhook" unicode="&#x288;" horiz-adv-x="840" 
d="M390 1700v-400h250v-200h-250v-1150q0 -200 250 -200v-200h-250q-250 0 -250 300v1250h-140v200h140v400h250z" />
    <glyph glyph-name="ubar" unicode="&#x289;" 
d="M1100 0h-250v175q0 -200 -425 -200t-425 325v275h-100v150h100v575h250v-575h600v575h250v-575h100v-150h-100v-575zM250 575v-225q0 -175 300 -175t300 175v225h-600z" />
    <glyph glyph-name="latinupsilon" unicode="&#x28a;" 
d="M1100 300q0 -325 -550 -325t-550 325v500q0 200 200 300h-200v200h475v-200q-225 0 -225 -350v-400q0 -175 300 -175t300 175v400q0 350 -225 350v200h475v-200h-200q200 -100 200 -300v-500z" />
    <glyph glyph-name="vhook" unicode="&#x28b;" 
d="M1100 450q0 -450 -550 -450h-550v1300h250v-1100h300q300 0 300 300v800h250v-850z" />
    <glyph glyph-name="invv" unicode="&#x28c;" horiz-adv-x="1380" 
d="M480 1300h300l480 -1300h-300l-330 1010l-330 -1010h-300z" />
    <glyph glyph-name="invw" unicode="&#x28d;" horiz-adv-x="1600" 
d="M1110 1300l290 -1300h-250l-170 840l-155 -840h-250l-145 840l-180 -840h-250l290 1300h250l160 -730l160 730h250z" />
    <glyph glyph-name="invy" unicode="&#x28e;" horiz-adv-x="1400" 
d="M589 1516q83 259 285 259h186v-200h-154q-87 0 -121 -124l-47 -151l542 -1300h-300l-350 1008l-330 -1008h-300z" />
    <glyph glyph-name="smallcapY" unicode="&#x28f;" horiz-adv-x="1230" 
d="M680 0h-250v550l-430 750h280l275 -550l275 550h280l-430 -750v-550z" />
    <glyph glyph-name="zretroflexhook" unicode="&#x290;" horiz-adv-x="1200" 
d="M290 200h710v-200q0 -200 150 -200v-200q-400 0 -400 400h-750v200l710 900h-710v200h1000v-200z" />
    <glyph glyph-name="zcurl" unicode="&#x291;" horiz-adv-x="1200" 
d="M290 200h210l90 125q90 125 250 125q210 0 210 -225t-262 -225h-213l-75 -100h-225l75 100h-350v200l710 900h-710v200h1000v-200zM725 200h63q62 0 62 50t-25 50t-63 -50z" />
    <glyph glyph-name="ezh" unicode="&#x292;" 
d="M0 1100v200h1100v-200l-385 -400q385 0 385 -300v-600q0 -275 -550 -275t-550 275v125h250v-75q0 -125 300 -125t300 125v500q0 150 -250 150q-150 0 -290 -145l-170 105l635 640h-775z" />
    <glyph glyph-name="ezh" unicode="&#x4e1;" 
d="M0 1100v200h1100v-200l-385 -400q385 0 385 -300v-600q0 -275 -550 -275t-550 275v125h250v-75q0 -125 300 -125t300 125v500q0 150 -250 150q-150 0 -290 -145l-170 105l635 640h-775z" />
    <glyph glyph-name="ezhcurl" unicode="&#x293;" 
d="M0 -62.5q0 312.5 350 312.5q230 0 500 -285v385q0 150 -250 150q-150 0 -290 -145l-170 105l635 640h-775v200h1100v-200l-385 -400q385 0 385 -300v-450q-5 -125 -75 -200l75 -100l-190 -120l-85 120q-150 -25 -275 -25q-550 0 -550 312.5zM680 -165q-195 215 -330 215
q-100 0 -100 -112.5t300 -112.5q80 0 130 10z" />
    <glyph glyph-name="glottalstop" unicode="&#x294;" horiz-adv-x="1400" 
d="M950 1175v275q0 175 -359 175q-341 0 -341 -175v-200h-250v250q0 325 593 325q607 0 607 -325v-350q0 -350 -475 -350v-800h-250v1000h125q350 0 350 175z" />
    <glyph glyph-name="revglottalstop" unicode="&#x295;" horiz-adv-x="1400" 
d="M600 1000h125v-1000h-250v800q-475 0 -475 350v350q0 325 607 325q593 0 593 -325v-250h-250v200q0 175 -341 175q-359 0 -359 -175v-275q0 -175 350 -175z" />
    <glyph glyph-name="invglottalstop" unicode="&#x296;" horiz-adv-x="1400" 
d="M600 800h-125v1000h250v-800q475 0 475 -350v-350q0 -325 -607 -325q-593 0 -593 325v250h250v-200q0 -175 341 -175q359 0 359 175v275q0 175 -350 175z" />
    <glyph glyph-name="stretchedc" unicode="&#x297;" 
d="M1100 -150q0 -325 -550 -325t-550 325v1150q0 325 550 325t550 -325v-200h-250v150q0 175 -300 175t-300 -175v-1050q0 -175 300 -175t300 175v150h250v-200z" />
    <glyph glyph-name="bullseye" unicode="&#x298;" horiz-adv-x="1400" 
d="M750 650q0 -175 -150 -175t-150 175v500q0 175 150 175t150 -175v-500zM1200 300q0 -325 -600 -325t-600 325v1200q0 325 600 325t600 -325v-1200zM950 1450q0 175 -350 175t-350 -175v-1100q0 -175 350 -175t350 175v1100z" />
    <glyph glyph-name="smallcapB" unicode="&#x299;" horiz-adv-x="1250" 
d="M0 0h700q350 0 350 300v150q0 200 -250 200q250 0 250 250v100q0 300 -350 300h-700v-1300zM250 750v350h350q200 0 200 -150v-50q0 -150 -200 -150h-350zM800 400v-50q0 -150 -200 -150h-350v350h350q200 0 200 -150z" />
    <glyph glyph-name="smallcapB" unicode="&#x432;" horiz-adv-x="1250" 
d="M0 0h700q350 0 350 300v150q0 200 -250 200q250 0 250 250v100q0 300 -350 300h-700v-1300zM250 750v350h350q200 0 200 -150v-50q0 -150 -200 -150h-350zM800 400v-50q0 -150 -200 -150h-350v350h350q200 0 200 -150z" />
    <glyph glyph-name="closedopene" unicode="&#x29a;" 
d="M850 350v100v400v100q0 175 -300 175t-300 -175v-50q0 -150 200 -150h200v-200h-200q-200 0 -200 -150v-50q0 -175 300 -175t300 175zM1100 300q0 -325 -550 -325t-550 325v100q0 250 250 250q-250 0 -250 250v100q0 325 550 325t550 -325v-700z" />
    <glyph glyph-name="smallcapGhook" unicode="&#x29b;" horiz-adv-x="1350" 
d="M1100 0h-113l-78 175q-59 -200 -359 -200q-550 0 -550 325v700q0 325 550 325q425 0 425 -325q0 325 275 325v-200q-150 0 -150 -225v-50h-250v50q0 225 -300 225t-300 -175v-600q0 -175 300 -175t300 175v150h-450v200h700v-700z" />
    <glyph glyph-name="smallcapH" unicode="&#x29c;" horiz-adv-x="1200" 
d="M250 1300v-550h500v550h250v-1300h-250v550h-500v-550h-250v1300h250z" />
    <glyph glyph-name="smallcapH" unicode="&#x43d;" horiz-adv-x="1200" 
d="M250 1300v-550h500v550h250v-1300h-250v550h-500v-550h-250v1300h250z" />
    <glyph glyph-name="jcrossedtail" unicode="&#x29d;" horiz-adv-x="1080" 
d="M750 1300v-1000h230v-200h-230v-200q0 -325 -400 -325q-350 0 -350 325v100q0 300 350 300h150v1000h250zM500 100h-130q-145 0 -145 -162.5t137.5 -162.5t137.5 125v200zM625 1550q-145 0 -145 137.5t145 137.5t145 -137.5t-145 -137.5z" />
    <glyph glyph-name="invk" unicode="&#x29e;" horiz-adv-x="1200" 
d="M1001 1300v-1750h-250v1104l-462 -654h-289l404 587l-421 713h287l293 -484l188 265v219h250z" />
    <glyph glyph-name="smallcapL" unicode="&#x29f;" horiz-adv-x="1100" 
d="M0 0v1300h250v-1100h650v-200h-900z" />
    <glyph glyph-name="qhook" unicode="&#x2a0;" 
d="M1100 1300v-1775h-250v650q0 -200 -415 -200t-435 325v700q25 325 437.5 325t412.5 -200v175q0 400 400 400v-200q-150 0 -150 -200zM850 350v600q0 175 -300 175t-300 -175v-600q0 -175 300 -175t300 175z" />
    <glyph glyph-name="glottalstopstroke" unicode="&#x2a1;" horiz-adv-x="1400" 
d="M950 1175v275q0 175 -359 175q-341 0 -341 -175v-200h-250v250q0 325 593 325q607 0 607 -325v-350q0 -350 -475 -350v-300h250v-200h-250v-300h-250v300h-250v200h250v500h125q350 0 350 175z" />
    <glyph glyph-name="revglottalstopstroke" unicode="&#x2a2;" horiz-adv-x="1400" 
d="M600 1000h125v-500h250v-200h-250v-300h-250v300h-250v200h250v300q-475 0 -475 350v350q0 325 607 325q593 0 593 -325v-250h-250v200q0 175 -341 175q-359 0 -359 -175v-275q0 -175 350 -175z" />
    <glyph glyph-name="dzligature" unicode="&#x2a3;" horiz-adv-x="2200" 
d="M850 0v175q0 -200 -425 -200t-425 325v700q0 325 425 325t425 -200v725h250v-550h900v-200l-710 -900h710v-200h-1150zM550 1125q-300 0 -300 -175v-600q0 -175 300 -175t300 175v600q0 175 -300 175zM1100 330l610 770h-610v-770z" />
    <glyph glyph-name="dezh" unicode="&#x2a4;" horiz-adv-x="2250" 
d="M1100 1100v-1100h-250v175q0 -200 -425 -200t-425 325v700q0 325 425 325t425 -200v725h250v-550h950v-200l-385 -400q385 0 385 -300v-600q0 -275 -550 -275t-550 275v125h250v-75q0 -125 300 -125t300 125v500q0 150 -250 150q-150 0 -195 -85l-170 105l540 580h-625z
M550 1125q-300 0 -300 -175v-600q0 -175 300 -175t300 175v600q0 175 -300 175z" />
    <glyph glyph-name="dzcurl" unicode="&#x2a5;" horiz-adv-x="2200" 
d="M850 0v175q0 -200 -425 -200t-425 325v700q0 325 425 325t425 -200v725h250v-550h900v-200l-710 -900h210l90 125q90 125 275 125t185 -225t-250 -225h-225l-75 -100h-225l75 100h-500zM550 1125q-300 0 -300 -175v-600q0 -175 300 -175t300 175v600q0 175 -300 175z
M1100 330l610 770h-610v-770zM1725 200h63q62 0 62 50t-25 50t-63 -50z" />
    <glyph glyph-name="tsligature" unicode="&#x2a6;" horiz-adv-x="1850" 
d="M1150 750q500 -23 500 -300v-150q0 -300 -500 -300h-760q-250 0 -250 300v800h-140v200h140v400h250v-400h210v-200h-210v-700q0 -200 250 -200h510q250 0 250 150v48q0 109 -250 128q-500 20 -500 324v150q0 325 500 325t500 -325v-150h-250v100q0 175 -250 175
t-250 -175v-83q0 -105 250 -117z" />
    <glyph glyph-name="tesh" unicode="&#x2a7;" horiz-adv-x="1640" 
d="M940 1450v-1550q0 -325 -400 -325t-400 325v1200h-140v200h140v400h250v-400h250v-200h-250v-1000v-150q0 -175 150 -175t150 175v1550q0 325 400 325q350 0 350 -325v-200h-200v150q0 175 -150 174q-150 1 -150 -174z" />
    <glyph glyph-name="tccurl" unicode="&#x2a8;" horiz-adv-x="1970" 
d="M1220 -25q-125 0 -275 25q-120 -150 -350 -150q-455 0 -455 300v950h-140v200h140v400h250v-400h230v-200h-230v-950q0 -100 205 -100q100 0 150 50q-70 75 -75 200v700q0 325 550 325t550 -325v-200h-250v150q0 175 -300 175t-300 -175v-635q270 285 500 285
q350 0 350 -312.5t-550 -312.5zM1220 175q300 0 300 112.5t-100 112.5q-135 0 -330 -215q50 -10 130 -10z" />
    <glyph glyph-name="feng" unicode="&#x2a9;" horiz-adv-x="1850" 
d="M550 1100h-160v-1100h-250v1100h-140v200h140v250q0 300 260 300h240v-200q-250 0 -250 -150v-200h410v-175q0 200 425 200t425 -325v-1100q0 -375 -420 -375v200q170 0 170 175v1050q0 175 -300 175t-300 -175v-950h-250v1100z" />
    <glyph glyph-name="lsligature" unicode="&#x2aa;" horiz-adv-x="1600" 
d="M900 750q500 -23 500 -300v-150q0 -300 -500 -300h-650q-250 0 -250 300v1550h250v-1500q0 -150 140 -150h510q250 0 250 150v48q0 109 -250 128q-500 20 -500 324v150q0 325 500 325t500 -325v-150h-250v100q0 175 -250 175t-250 -175v-83q0 -105 250 -117z" />
    <glyph glyph-name="lzligature" unicode="&#x2ab;" horiz-adv-x="1350" 
d="M0 0v1850h250v-550h900v-200l-710 -900h710v-200h-1150zM250 330l610 770h-610v-770z" />
    <glyph glyph-name="bilabialpercussive" unicode="&#x2ac;" horiz-adv-x="1400" 
d="M463 1000l137 449l137 -449h214l249 800h-214l-155 -517l-124 517h-214l-133 -517l-146 517h-214l249 -800h214zM463 0l137 449l137 -449h214l249 800h-214l-155 -517l-124 517h-214l-133 -517l-146 517h-214l249 -800h214z" />
    <glyph glyph-name="bidentalpercussive" unicode="&#x2ad;" horiz-adv-x="1400" 
d="M0 1000v800h1200v-800h-250v600h-700v-600h-250zM0 0v800h1200v-800h-250v600h-700v-600h-250z" />
    <glyph glyph-name="turnedhfishhook" unicode="&#x2ae;" horiz-adv-x="1400" 
d="M1100 -400h-250v575q0 -200 -425 -200t-425 325v625q0 175 -200 175v200q450 0 450 -375v-575q0 -175 300 -175t300 175v950h250v-1700z" />
    <glyph glyph-name="turnedhfishhooktail" unicode="&#x2af;" horiz-adv-x="1400" 
d="M1250 -250v-200q-400 0 -400 400v225q0 -200 -425 -200t-425 325v625q0 175 -200 175v200q450 0 450 -375v-575q0 -175 300 -175t300 175v950h250v-1350q0 -200 150 -200z" />
    <glyph glyph-name="superh" unicode="&#x2b0;" horiz-adv-x="1000" 
d="M0 1850h250v-475q0 200 275 200t275 -375v-300h-250v300q0 175 -150 175t-150 -175v-300h-250v950z" />
    <glyph glyph-name="superhhook" unicode="&#x2b1;" horiz-adv-x="1000" 
d="M350 1850v-125q-100 0 -100 -125v-225q0 200 275 200t275 -375v-300h-250v300q0 175 -150 175t-150 -175v-300h-250v700q0 250 350 250z" />
    <glyph glyph-name="superj" unicode="&#x2b2;" horiz-adv-x="630" 
d="M250 1600v-590q0 -260 -251 -260h-179l1 150q179 0 179 100v600h250zM125 1700q-145 0 -145 75t145 75t145 -75t-145 -75z" />
    <glyph glyph-name="superr" unicode="&#x2b3;" horiz-adv-x="940" 
d="M0 1600h250v-175q0 200 245 200t245 -300v-75h-250v75q0 100 -120 100t-120 -100v-425h-250v700z" />
    <glyph glyph-name="superturnedr" unicode="&#x2b4;" horiz-adv-x="940" 
d="M740 900h-250v175q0 -200 -245 -200t-245 300v75h250v-75q0 -100 120 -100t120 100v425h250v-700z" />
    <glyph glyph-name="superturnedrhook" unicode="&#x2b5;" horiz-adv-x="940" 
d="M740 900q0 -75 100 -75v-125q-350 0 -350 200v175q0 -200 -245 -200t-245 300v75h250v-75q0 -100 120 -100t120 100v425h250v-700z" />
    <glyph glyph-name="superinvR" unicode="&#x2b6;" horiz-adv-x="1000" 
d="M250 1600h250v-200h150q150 0 150 70v30q0 100 100 100h250q-100 0 -100 -100v-30q0 -145 -200 -145q200 0 200 -130v-70q0 -225 -400 -225h-400v700zM500 1250v-150h150q150 0 150 75t-150 75h-150z" />
    <glyph glyph-name="superw" unicode="&#x2b7;" horiz-adv-x="1250" 
d="M450 900l75 450l75 -450h250l200 700h-250l-75 -450l-106 450h-188l-106 -450l-75 450h-250l200 -700h250z" />
    <glyph glyph-name="supery" unicode="&#x2b8;" horiz-adv-x="1000" 
d="M501 974q-101 -224 -315 -224h-136v150h104q87 0 131 99l-285 601h260l150 -408l130 408h260z" />
    <glyph glyph-name="prime" unicode="&#x2b9;" horiz-adv-x="500" 
d="M300 1850q0 -83 -70 -160l-230 -290v450q0 150 150 150t150 -150z" />
    <glyph glyph-name="prime" unicode="&#x374;" horiz-adv-x="500" 
d="M300 1850q0 -83 -70 -160l-230 -290v450q0 150 150 150t150 -150z" />
    <glyph glyph-name="doubleprime" unicode="&#x2ba;" horiz-adv-x="1000" 
d="M300 1850q0 -83 -70 -160l-230 -290v450q0 150 150 150t150 -150zM800 1850q0 -83 -70 -160l-230 -290v450q0 150 150 150t150 -150z" />
    <glyph glyph-name="quoteleft" unicode="&#x2bb;" horiz-adv-x="450" 
d="M125 1650q0 75 125 75v75q-250 0 -250 -275q0 -125 125 -125t125 125t-125 125z" />
    <glyph glyph-name="quoteleft" unicode="&#x2018;" horiz-adv-x="450" 
d="M125 1650q0 75 125 75v75q-250 0 -250 -275q0 -125 125 -125t125 125t-125 125z" />
    <glyph glyph-name="quoteright" unicode="&#x2bc;" horiz-adv-x="450" 
d="M125 1550q0 -75 -125 -75v-75q250 0 250 275q0 125 -125 125t-125 -125t125 -125z" />
    <glyph glyph-name="quoteright" unicode="&#x2019;" horiz-adv-x="450" 
d="M125 1550q0 -75 -125 -75v-75q250 0 250 275q0 125 -125 125t-125 -125t125 -125z" />
    <glyph glyph-name="revcomma" unicode="&#x2bd;" horiz-adv-x="450" 
d="M250 1675q0 125 -125 125t-125 -125q0 -275 250 -275v75q-125 0 -125 75q125 0 125 125z" />
    <glyph glyph-name="modrighthalfring" unicode="&#x2be;" horiz-adv-x="600" 
d="M400 1750q0 250 -400 250v-150q200 0 200 -150v-100q0 -150 -200 -150v-150q400 0 400 250v200z" />
    <glyph glyph-name="modlefthalfring" unicode="&#x2bf;" horiz-adv-x="600" 
d="M0 1550q0 -250 400 -250v150q-200 0 -200 150v100q0 150 200 150v150q-400 0 -400 -250v-200z" />
    <glyph glyph-name="modglottalstop" unicode="&#x2c0;" horiz-adv-x="1000" 
d="M600 1775v75q0 125 -200 125t-200 -125v-50h-200v100q0 225 400 225t400 -225v-150q0 -250 -300 -250l-50 -200h-100l-50 350h100q200 0 200 125z" />
    <glyph glyph-name="modrevglottalstop" unicode="&#x2c1;" horiz-adv-x="1000" 
d="M400 1650h100l-50 -350h-100l-50 200q-300 0 -300 250v150q0 225 400 225t400 -225v-100h-200v50q0 125 -200 125t-200 -125v-75q0 -125 200 -125z" />
    <glyph glyph-name="modleftarrowhead" unicode="&#x2c2;" horiz-adv-x="1000" 
d="M800 2100l-267 -400l267 -400l-800 400z" />
    <glyph glyph-name="modrightarrowhead" unicode="&#x2c3;" horiz-adv-x="1000" 
d="M0 1300l267 400l-267 400l800 -400z" />
    <glyph glyph-name="moduparrowhead" unicode="&#x2c4;" horiz-adv-x="1000" 
d="M800 1300l-400 267l-400 -267l400 800z" />
    <glyph glyph-name="moddownarrowhead" unicode="&#x2c5;" horiz-adv-x="1000" 
d="M0 2100l400 -267l400 267l-400 -800z" />
    <glyph glyph-name="circumflex" unicode="&#x2c6;" horiz-adv-x="800" 
d="M419 1906l281 -192l-94 -113l-206 150l-206 -150l-92 113l279 192h38z" />
    <glyph glyph-name="caron" unicode="&#x2c7;" horiz-adv-x="822" 
d="M325 1500l-275 300h200l150 -225l150 225h200l-275 -300h-150z" />
    <glyph glyph-name="verticalline" unicode="&#x2c8;" horiz-adv-x="400" 
d="M0 1600v400h200v-400h-200z" />
    <glyph glyph-name="realgrave" unicode="&#x2cb;" horiz-adv-x="600" 
d="M250 1600l-250 300h300l100 -300h-150z" />
    <glyph glyph-name="lowverticalline" unicode="&#x2cc;" horiz-adv-x="400" 
d="M0 -500v400h200v-400h-200z" />
    <glyph glyph-name="lowmacron" unicode="&#x2cd;" horiz-adv-x="1000" 
d="M0 -200v100h800v-100h-800z" />
    <glyph glyph-name="lowgrave" unicode="&#x2ce;" horiz-adv-x="600" 
d="M150 -100l250 -300h-300l-100 300h150z" />
    <glyph glyph-name="lowacute" unicode="&#x2cf;" horiz-adv-x="600" 
d="M400 -100l-125 -300h-275l250 300h150z" />
    <glyph glyph-name="triangularcolon" unicode="&#x2d0;" horiz-adv-x="700" 
d="M250 900l-250 400h500zM250 400l250 -400h-500z" />
    <glyph glyph-name="halftriangularcolon" unicode="&#x2d1;" horiz-adv-x="700" 
d="M250 900l-250 400h500z" />
    <glyph glyph-name="centerrighthalfring" unicode="&#x2d2;" horiz-adv-x="600" 
d="M400 1000q0 250 -400 250v-150q200 0 200 -150v-100q0 -150 -200 -150v-150q400 0 400 250v200z" />
    <glyph glyph-name="centerlefthalfring" unicode="&#x2d3;" horiz-adv-x="600" 
d="M0 800q0 -250 400 -250v150q-200 0 -200 150v100q0 150 200 150v150q-400 0 -400 -250v-200z" />
    <glyph glyph-name="centeruptack" unicode="&#x2d4;" horiz-adv-x="950" 
d="M0 825v150h300v300h150v-300h300v-150h-750z" />
    <glyph glyph-name="centerdowntack" unicode="&#x2d5;" horiz-adv-x="950" 
d="M300 525v300h-300v150h750v-150h-300v-300h-150z" />
    <glyph glyph-name="centerplusaccent" unicode="&#x2d6;" horiz-adv-x="950" 
d="M300 525v300h-300v150h300v300h150v-300h300v-150h-300v-300h-150z" />
    <glyph glyph-name="centerminusaccent" unicode="&#x2d7;" horiz-adv-x="950" 
d="M0 825v150h750v-150h-750z" />
    <glyph glyph-name="breve" unicode="&#x2d8;" horiz-adv-x="1000" 
d="M0 1800v50h150q0 -150 250 -150t250 150h150v-50q0 -250 -400 -250t-400 250z" />
    <glyph glyph-name="dotaccent" unicode="&#x2d9;" horiz-adv-x="383" 
d="M346 1691q-8 -140 -147 -144q-134 0 -146 140q0 135 146 143q143 -4 147 -139z" />
    <glyph glyph-name="ring" unicode="&#x2da;" horiz-adv-x="600" 
d="M400 1525q0 -150 -200 -150t-200 150v100q0 150 200 150t200 -150v-100zM300 1600q0 75 -100 75t-100 -75v-50q0 -75 100 -75t100 75v50z" />
    <glyph glyph-name="ogonek" unicode="&#x2db;" horiz-adv-x="740" 
d="M180 0q-150 -185 255 -350h-380q-295 165 -55 350h180z" />
    <glyph glyph-name="tilde" unicode="&#x2dc;" horiz-adv-x="1150" 
d="M687.5 1700q112.5 0 112.5 100v50h150v-50q0 -250 -300 -250q-125 0 -200 75t-187.5 75t-112.5 -100v-50h-150v50q0 250 300 250q125 0 200 -75t187.5 -75z" />
    <glyph glyph-name="hungarumlaut" unicode="&#x2dd;" horiz-adv-x="950" 
d="M350 1600l125 300h250l-225 -300h-150zM0 1600l125 300h250l-225 -300h-150z" />
    <glyph glyph-name="rhotichook" unicode="&#x2de;" horiz-adv-x="275" 
d="M0 750q150 -150 200 0l125 -200q-100 -150 -325 0v200z" />
    <glyph glyph-name="crossaccent" unicode="&#x2df;" horiz-adv-x="979" 
d="M1 1407l283 283l-283 283l106 106l283 -283l283 283l106 -106l-283 -283l283 -283l-106 -106l-283 283l-283 -283z" />
    <glyph glyph-name="supergamma" unicode="&#x2e0;" horiz-adv-x="1000" 
d="M500 1100q250 -350 -100 -350t-100 350l-300 500h265l135 -420l130 420h270zM400 1025q-50 -125 0 -125t0 125z" />
    <glyph glyph-name="superl" unicode="&#x2e1;" horiz-adv-x="450" 
d="M0 900v950h250v-950h-250z" />
    <glyph glyph-name="supers" unicode="&#x2e2;" horiz-adv-x="1000" 
d="M400 1300q400 -23 400 -175q0 -250 -400 -250t-400 250v25h250v-25q0 -50 150 -50t150 50q0 57 -150 50q-400 21 -400 175q0 275 400 275t400 -275v-25h-250v50q0 50 -150 50t-150 -50q0 -63 150 -75z" />
    <glyph glyph-name="superx" unicode="&#x2e3;" horiz-adv-x="1000" 
d="M290 900l110 200l110 -200h290l-280 350l280 350h-290l-110 -200l-110 200h-290l280 -350l-280 -350h290z" />
    <glyph glyph-name="superrevglottalstop" unicode="&#x2e4;" horiz-adv-x="1000" 
d="M400 1375h125v-475h-250v275q-275 0 -275 250v175q0 225 400 225t400 -225v-100h-250v50q0 75 -150 75t-150 -75v-100q0 -75 150 -75z" />
    <glyph glyph-name="extrahightone" unicode="&#x2e5;" horiz-adv-x="1000" 
d="M800 0h-200v1650h-600v150h800v-1800z" />
    <glyph glyph-name="hightone" unicode="&#x2e6;" horiz-adv-x="1000" 
d="M800 0h-200v1275h-600v150h600v375h200v-1800z" />
    <glyph glyph-name="midtone" unicode="&#x2e7;" horiz-adv-x="1000" 
d="M800 0h-200v825h-600v150h600v825h200v-1800z" />
    <glyph glyph-name="lowtone" unicode="&#x2e8;" horiz-adv-x="1000" 
d="M800 0h-200v375h-600v150h600v1275h200v-1800z" />
    <glyph glyph-name="extralowtone" unicode="&#x2e9;" horiz-adv-x="1000" 
d="M800 0h-800v150h600v1650h200v-1800z" />
    <glyph glyph-name="yindepartingtonemark" unicode="&#x2ea;" horiz-adv-x="1000" 
d="M0 1300h200v-1150h600v-150h-800v1300z" />
    <glyph glyph-name="yangdepartingtonemark" unicode="&#x2eb;" horiz-adv-x="1000" 
d="M0 1300h200v-575h600v-150h-600v-575h-200v1300z" />
    <glyph glyph-name="voicing" unicode="&#x2ec;" horiz-adv-x="700" 
d="M500 -100h-119l-131 -250l-131 250h-119l190 -350h120z" />
    <glyph glyph-name="unaspirated" unicode="&#x2ed;" horiz-adv-x="1000" 
d="M0 1850v100h800v-100h-800zM0 1650v100h800v-100h-800z" />
    <glyph glyph-name="quotedblright" unicode="&#x2ee;" horiz-adv-x="800" 
d="M475 1550q0 -75 -125 -75v-75q250 0 250 275q0 125 -125 125t-125 -125t125 -125zM125 1550q0 -75 -125 -75v-75q250 0 250 275q0 125 -125 125t-125 -125t125 -125z" />
    <glyph glyph-name="quotedblright" unicode="&#x201d;" horiz-adv-x="800" 
d="M475 1550q0 -75 -125 -75v-75q250 0 250 275q0 125 -125 125t-125 -125t125 -125zM125 1550q0 -75 -125 -75v-75q250 0 250 275q0 125 -125 125t-125 -125t125 -125z" />
    <glyph glyph-name="modlowdownarrowhead" unicode="&#x2ef;" horiz-adv-x="1000" 
d="M0 400l400 -267l400 267l-400 -800z" />
    <glyph glyph-name="modlowdownarrowhead" unicode="&#x2f0;" horiz-adv-x="900" 
d="M800 -400l-400 267l-400 -267l400 800z" />
    <glyph glyph-name="modlowleftarrowhead" unicode="&#x2f1;" horiz-adv-x="1000" 
d="M800 400l-267 -400l267 -400l-800 400z" />
    <glyph glyph-name="modlowrightarrowhead" unicode="&#x2f2;" horiz-adv-x="1000" 
d="M0 -400l267 400l-267 400l800 -400z" />
    <glyph glyph-name="modlowring" unicode="&#x2f3;" horiz-adv-x="600" 
d="M400 -250q0 -150 -200 -150t-200 150v100q0 150 200 150t200 -150v-100zM300 -175q0 75 -100 75t-100 -75v-50q0 -75 100 -75t100 75v50z" />
    <glyph glyph-name="middlegraveaccent" unicode="&#x2f4;" horiz-adv-x="600" 
d="M250 775l-250 300h300l100 -300h-150z" />
    <glyph glyph-name="middledblgrave" unicode="&#x2f5;" horiz-adv-x="925" 
d="M225 775l-225 300h250l125 -300h-150zM575 775l-225 300h250l125 -300h-150z" />
    <glyph glyph-name="middledblacute" unicode="&#x2f6;" horiz-adv-x="925" 
d="M350 775l125 300h250l-225 -300h-150zM0 775l125 300h250l-225 -300h-150z" />
    <glyph glyph-name="lowtilde" unicode="&#x2f7;" horiz-adv-x="1050" 
d="M687.5 -200q112.5 0 112.5 100v50h150v-50q0 -250 -300 -250q-125 0 -200 75t-187.5 75t-112.5 -100v-50h-150v50q0 250 300 250q125 0 200 -75t187.5 -75z" />
    <glyph glyph-name="raisedcolon" unicode="&#x2f8;" horiz-adv-x="450" 
d="M125 1600q125 0 125 125t-125 125t-125 -125t125 -125zM125 850q125 0 125 125t-125 125t-125 -125t125 -125z" />
    <glyph glyph-name="beginhightone" unicode="&#x2f9;" horiz-adv-x="350" 
d="M0 2000h300v-100h-150v-400h-150v500z" />
    <glyph glyph-name="endhightone" unicode="&#x2fa;" horiz-adv-x="350" 
d="M300 1500h-150v400h-150v100h300v-500z" />
    <glyph glyph-name="beginlowtone" unicode="&#x2fb;" horiz-adv-x="350" 
d="M0 350h150v-400h150v-100h-300v500z" />
    <glyph glyph-name="endlowtone" unicode="&#x2fc;" horiz-adv-x="350" 
d="M300 -150h-300v100h150v400h150v-500z" />
    <glyph glyph-name="shelf" unicode="&#x2fd;" horiz-adv-x="1200" 
d="M0 -350v300h150v-150h700v150h150v-300h-1000z" />
    <glyph glyph-name="openshelf" unicode="&#x2fe;" horiz-adv-x="1200" 
d="M0 -350v300h150v-150h850v-150h-1000z" />
    <glyph glyph-name="lowleftarrow" unicode="&#x2ff;" horiz-adv-x="1400" 
d="M400 -450l-400 200l400 200v-100h800v-200h-800v-100z" />
    <glyph glyph-name="+grave" unicode="&#x300;" horiz-adv-x="0" 
d="M525 1900l-250 300h300l100 -300h-150z" />
    <glyph glyph-name="+acute" unicode="&#x301;" horiz-adv-x="0" 
d="M525 1900l125 300h275l-250 -300h-150z" />
    <glyph glyph-name="+circumflex" unicode="&#x302;" horiz-adv-x="0" 
d="M619 2206l281 -192l-94 -113l-206 149l-206 -149l-92 113l279 192h38z" />
    <glyph glyph-name="+tilde" unicode="&#x303;" horiz-adv-x="0" 
d="M812.5 2050q112.5 0 112.5 100v50h150v-50q0 -250 -300 -250q-125 0 -200 75t-187.5 75t-112.5 -100v-50h-150v50q0 250 300 250q125 0 200 -75t187.5 -75z" />
    <glyph glyph-name="+tilde" unicode="&#x342;" horiz-adv-x="0" 
d="M812.5 2050q112.5 0 112.5 100v50h150v-50q0 -250 -300 -250q-125 0 -200 75t-187.5 75t-112.5 -100v-50h-150v50q0 250 300 250q125 0 200 -75t187.5 -75z" />
    <glyph glyph-name="+macron" unicode="&#x304;" horiz-adv-x="0" 
d="M200 1950v100h800v-100h-800z" />
    <glyph glyph-name="+overline" unicode="&#x305;" horiz-adv-x="0" 
d="M-100 1950v100h1400v-100h-1400z" />
    <glyph glyph-name="+breve" unicode="&#x306;" horiz-adv-x="0" 
d="M200 2150v50h150q0 -150 250 -150t250 150h150v-50q0 -250 -400 -250t-400 250z" />
    <glyph glyph-name="+dot" unicode="&#x307;" horiz-adv-x="0" 
d="M600 1900q-145 0 -145 137.5t145 137.5t145 -137.5t-145 -137.5z" />
    <glyph glyph-name="+diaeresis" unicode="&#x308;" horiz-adv-x="0" 
d="M225 2025q0 125 125 125t125 -125t-125 -125t-125 125zM725 2025q0 125 125 125t125 -125t-125 -125t-125 125z" />
    <glyph glyph-name="+hook" unicode="&#x309;" horiz-adv-x="0" 
d="M550 1850v100q0 125 100 125q75 0 75 50v85q0 65 -125 65t-125 -63v-33l-100 1v58q0 112 225 112t225 -112v-127q0 -111 -100 -111q-75 0 -75 -50v-100h-100z" />
    <glyph glyph-name="+ring" unicode="&#x30a;" horiz-adv-x="0" 
d="M800 2000q0 -150 -200 -150t-200 150v100q0 150 200 150t200 -150v-100zM700 2075q0 75 -100 75t-100 -75v-50q0 -75 100 -75t100 75v50z" />
    <glyph glyph-name="+dblacute" unicode="&#x30b;" horiz-adv-x="0" 
d="M700 1900l125 300h250l-225 -300h-150zM350 1900l125 300h250l-225 -300h-150z" />
    <glyph glyph-name="+caron" unicode="&#x30c;" horiz-adv-x="0" 
d="M525 1900l-275 300h200l150 -225l150 225h200l-275 -300h-150z" />
    <glyph glyph-name="+verticalline" unicode="&#x30d;" horiz-adv-x="0" 
d="M500 1900v400h200v-400h-200z" />
    <glyph glyph-name="+dblverticalline" unicode="&#x30e;" horiz-adv-x="0" 
d="M700 1900v400h200v-400h-200zM300 1900v400h200v-400h-200z" />
    <glyph glyph-name="+dblgrave" unicode="&#x30f;" horiz-adv-x="0" 
d="M350 1900l-225 300h250l125 -300h-150zM700 1900l-225 300h250l125 -300h-150z" />
    <glyph glyph-name="+candrabindu" unicode="&#x310;" horiz-adv-x="0" 
d="M250 2150v50h100q0 -150 250 -150t250 150h100v-50q0 -250 -350 -250t-350 250zM725 2225q0 -125 -125 -125t-125 125t125 125t125 -125z" />
    <glyph glyph-name="+invbreve" unicode="&#x311;" horiz-adv-x="0" 
d="M1000 1950v-50h-150q0 150 -250 150t-250 -150h-150v50q0 250 400 250t400 -250z" />
    <glyph glyph-name="+turnedcomma" unicode="&#x312;" horiz-adv-x="0" 
d="M600 2150q0 75 125 75v75q-250 0 -250 -275q0 -125 125 -125t125 125t-125 125z" />
    <glyph glyph-name="+comma" unicode="&#x313;" horiz-adv-x="0" 
d="M600 2050q0 -75 -125 -75v-75q250 0 250 275q0 125 -125 125t-125 -125t125 -125z" />
    <glyph glyph-name="+comma" unicode="&#x343;" horiz-adv-x="0" 
d="M600 2050q0 -75 -125 -75v-75q250 0 250 275q0 125 -125 125t-125 -125t125 -125z" />
    <glyph glyph-name="+revcomma" unicode="&#x314;" horiz-adv-x="0" 
d="M725 2175q0 125 -125 125t-125 -125q0 -275 250 -275v75q-125 0 -125 75q125 0 125 125z" />
    <glyph glyph-name="+commaaboveright" unicode="&#x315;" horiz-adv-x="350" 
d="M125 2050q0 -75 -125 -75v-75q250 0 250 275q0 125 -125 125t-125 -125t125 -125z" />
    <glyph glyph-name="+lowgrave" unicode="&#x316;" horiz-adv-x="0" 
d="M675 -100l250 -300h-300l-100 300h150z" />
    <glyph glyph-name="+lowacute" unicode="&#x317;" horiz-adv-x="0" 
d="M675 -100l-125 -300h-275l250 300h150z" />
    <glyph glyph-name="+lowlefttack" unicode="&#x318;" horiz-adv-x="0" 
d="M550 -500v150h-150v100h150v150h100v-400h-100z" />
    <glyph glyph-name="+lowrighttack" unicode="&#x319;" horiz-adv-x="0" 
d="M550 -500v400h100v-150h150v-100h-150v-150h-100z" />
    <glyph glyph-name="+leftangle" unicode="&#x31a;" horiz-adv-x="0" 
d="M200 2050v100h800v-250h-200v150h-600z" />
    <glyph glyph-name="+horn" unicode="&#x31b;" horiz-adv-x="205" 
d="M0 1000q100 0 100 300h200q0 -400 -300 -400h-100v100h100z" />
    <glyph glyph-name="+lowlefthalfring" unicode="&#x31c;" horiz-adv-x="0" 
d="M600 -325q0 -75 100 -75v-100q-200 0 -200 150v100q0 150 200 150v-100q-100 0 -100 -75v-50z" />
    <glyph glyph-name="+lowuptack" unicode="&#x31d;" horiz-adv-x="0" 
d="M400 -350v100h150v150h100v-150h150v-100h-400z" />
    <glyph glyph-name="+lowdowntack" unicode="&#x31e;" horiz-adv-x="0" 
d="M550 -350v150h-150v100h400v-100h-150v-150h-100z" />
    <glyph glyph-name="+lowplus" unicode="&#x31f;" horiz-adv-x="0" 
d="M550 -500v150h-150v100h150v150h100v-150h150v-100h-150v-150h-100z" />
    <glyph glyph-name="+lowminus" unicode="&#x320;" horiz-adv-x="0" 
d="M400 -350v100h400v-100h-400z" />
    <glyph glyph-name="+palatizedhook" unicode="&#x321;" horiz-adv-x="0" 
d="M300 -400v150q200 0 200 250v100h200v-100q0 -400 -400 -400z" />
    <glyph glyph-name="+retroflexhook" unicode="&#x322;" horiz-adv-x="0" 
d="M500 0v100h200v-100q0 -250 200 -250v-150q-400 0 -400 400z" />
    <glyph glyph-name="+lowdot" unicode="&#x323;" horiz-adv-x="0" 
d="M600 -375q-145 0 -145 137.5t145 137.5t145 -137.5t-145 -137.5z" />
    <glyph glyph-name="+lowdiaeresis" unicode="&#x324;" horiz-adv-x="0" 
d="M225 -225q0 125 125 125t125 -125t-125 -125t-125 125zM725 -225q0 125 125 125t125 -125t-125 -125t-125 125z" />
    <glyph glyph-name="+lowring" unicode="&#x325;" horiz-adv-x="0" 
d="M800 -300q0 -150 -200 -150t-200 150v100q0 150 200 150t200 -150v-100zM700 -225q0 75 -100 75t-100 -75v-50q0 -75 100 -75t100 75v50z" />
    <glyph glyph-name="+lowcomma" unicode="&#x326;" horiz-adv-x="0" 
d="M600 -350q0 -75 -125 -75v-75q250 0 250 275q0 125 -125 125t-125 -125t125 -125z" />
    <glyph glyph-name="+cedilla" unicode="&#x327;" horiz-adv-x="0" 
d="M650 50v-197q0 47 87.5 47t87.5 -111v-127q0 -112 -225 -112t-225 112v58l100 1v-33q0 -63 125 -63t125 65v85q0 50 -37.5 50t-37.5 -40v-35h-100v300h100z" />
    <glyph glyph-name="+ogonek" unicode="&#x328;" horiz-adv-x="0" 
d="M690 0q-150 -185 255 -350h-380q-295 165 -55 350h180z" />
    <glyph glyph-name="+lowverticallinebelow" unicode="&#x329;" horiz-adv-x="0" 
d="M500 -500v400h200v-400h-200z" />
    <glyph glyph-name="+lowbridge" unicode="&#x32a;" horiz-adv-x="0" 
d="M1000 -100v-300h-200v150h-400v-150h-200v300h800z" />
    <glyph glyph-name="+lowdblarch" unicode="&#x32b;" horiz-adv-x="0" 
d="M850 -100h-100v-201q0 -49 -50 -49t-50 49v201h-100v-201q0 -49 -50 -49t-50 49v201h-100v-216q0 -134 112.5 -134t137.5 84q25 -84 137.5 -84t112.5 134v216z" />
    <glyph glyph-name="+lowcaron" unicode="&#x32c;" horiz-adv-x="0" 
d="M525 -400l-275 300h200l150 -225l150 225h200l-275 -300h-150z" />
    <glyph glyph-name="+lowcircumflex" unicode="&#x32d;" horiz-adv-x="0" 
d="M619 -94l281 -192l-94 -113l-206 149l-206 -149l-92 113l279 192h38z" />
    <glyph glyph-name="+lowbreve" unicode="&#x32e;" horiz-adv-x="0" 
d="M200 -150v50h150q0 -150 250 -150t250 150h150v-50q0 -250 -400 -250t-400 250z" />
    <glyph glyph-name="+lowinvbreve" unicode="&#x32f;" horiz-adv-x="0" 
d="M1000 -350v-50h-150q0 150 -250 150t-250 -150h-150v50q0 250 400 250t400 -250z" />
    <glyph glyph-name="+lowtilde" unicode="&#x330;" horiz-adv-x="0" 
d="M812.5 -250q112.5 0 112.5 100v50h150v-50q0 -250 -300 -250q-125 0 -200 75t-187.5 75t-112.5 -100v-50h-150v50q0 250 300 250q125 0 200 -75t187.5 -75z" />
    <glyph glyph-name="+lowmacron" unicode="&#x331;" horiz-adv-x="0" 
d="M200 -250v100h800v-100h-800z" />
    <glyph glyph-name="+lowline" unicode="&#x332;" horiz-adv-x="0" 
d="M-100 -250v100h1400v-100h-1400z" />
    <glyph glyph-name="+lowdblline" unicode="&#x333;" horiz-adv-x="0" 
d="M-100 -450v100h1400v-100h-1400zM-100 -250v100h1400v-100h-1400z" />
    <glyph glyph-name="+tildeoverlay" unicode="&#x334;" horiz-adv-x="0" 
d="M812.5 650q112.5 0 112.5 100v50h150v-50q0 -250 -300 -250q-125 0 -200 75t-187.5 75t-112.5 -100v-50h-150v50q0 250 300 250q125 0 200 -75t187.5 -75z" />
    <glyph glyph-name="+shortstrokeoverlay" unicode="&#x335;" horiz-adv-x="0" 
d="M200 600v100h800v-100h-800z" />
    <glyph glyph-name="+longstrokeoverlay" unicode="&#x336;" horiz-adv-x="0" 
d="M-50 600v100h1300v-100h-1300z" />
    <glyph glyph-name="+shortsolidusoverlay" unicode="&#x337;" horiz-adv-x="0" 
d="M279 407l-50 86l692 400l50 -86z" />
    <glyph glyph-name="+longsolidusoverlay" unicode="&#x338;" horiz-adv-x="0" 
d="M-14 -35l-71 71l1299 1299l71 -71z" />
    <glyph glyph-name="+lowrigbyhalfring" unicode="&#x339;" horiz-adv-x="0" 
d="M600 -275q0 75 -100 75v100q200 0 200 -150v-100q0 -150 -200 -150v100q100 0 100 75v50z" />
    <glyph glyph-name="+lowinvbridge" unicode="&#x33a;" horiz-adv-x="0" 
d="M200 -400v300h200v-150h400v150h200v-300h-800z" />
    <glyph glyph-name="+lowsquare" unicode="&#x33b;" horiz-adv-x="0" 
d="M700 -350v200h-200v-200h200zM400 -450v400h400v-400h-400z" />
    <glyph glyph-name="+lowseagull" unicode="&#x33c;" horiz-adv-x="0" 
d="M425 -150q125 0 175 -100q50 100 175 100q175 0 175 -250q-50 150 -175 150t-175 -200q-50 200 -175 200t-175 -150q0 250 175 250z" />
    <glyph glyph-name="+cross" unicode="&#x33d;" horiz-adv-x="0" 
d="M423 2392l177 -176l177 176l70 -70l-176 -177l176 -177l-70 -70l-177 176l-177 -176l-70 70l176 177l-176 177z" />
    <glyph glyph-name="+verticaltilde" unicode="&#x33e;" horiz-adv-x="0" 
d="M750 2067q0 -167 -250 -167h-50v100h50q100 0 100 42.5t-75 80t-75 110.5q0 167 250 167h50v-100h-50q-100 0 -100 -42.5t75 -80t75 -110.5z" />
    <glyph glyph-name="+dblline" unicode="&#x33f;" horiz-adv-x="0" 
d="M-100 2150v100h1400v-100h-1400zM-100 1950v100h1400v-100h-1400z" />
    <glyph glyph-name="+gravetonemark" unicode="&#x340;" horiz-adv-x="0" 
d="M250 1900l-250 300h300l100 -300h-150z" />
    <glyph glyph-name="+acutetonemark" unicode="&#x341;" horiz-adv-x="0" 
d="M800 1900l125 300h275l-250 -300h-150z" />
    <glyph glyph-name="+dialytikatonos" unicode="&#x344;" horiz-adv-x="0" 
d="M225 2025q0 125 125 125t125 -125t-125 -125t-125 125zM725 2025q0 125 125 125t125 -125t-125 -125t-125 125zM742 2238q0 -63 -52 -120l-172 -218v338q0 112 112 112t112 -112z" />
    <glyph glyph-name="+ypogegrammeni" unicode="&#x345;" horiz-adv-x="0" 
d="M525 100v-410q0 -65 75 -65t75 63v33l150 -1v-58q0 -137 -225 -137t-225 137v438h150z" />
    <glyph glyph-name="+bridge" unicode="&#x346;" horiz-adv-x="0" 
d="M1000 2200v-300h-200v150h-400v-150h-200v300h800z" />
    <glyph glyph-name="+lowequals" unicode="&#x347;" horiz-adv-x="0" 
d="M400 -250v100h400v-100h-400zM400 -450v100h400v-100h-400z" />
    <glyph glyph-name="+lowdblverticalline" unicode="&#x348;" horiz-adv-x="0" 
d="M700 -500v400h200v-400h-200zM300 -500v400h200v-400h-200z" />
    <glyph glyph-name="+lowleftangle" unicode="&#x349;" horiz-adv-x="0" 
d="M200 -200v100h800v-250h-200v150h-600z" />
    <glyph glyph-name="+nottilde" unicode="&#x34a;" horiz-adv-x="0" 
d="M812.5 2050q112.5 0 112.5 100v50h150v-50q0 -250 -300 -250q-125 0 -163 38l-52 -93l-111 64l63 113q-12 28 -124.5 28t-112.5 -100v-50h-150v50q0 250 300 250q125 0 163 -38l62 98l106 -66l-64 -122q8 -22 120.5 -22z" />
    <glyph glyph-name="+homothetic" unicode="&#x34b;" horiz-adv-x="0" 
d="M812.5 2050q112.5 0 112.5 150v100h150v-100q0 -300 -300 -300q-150 0 -212.5 125t-175 125t-112.5 -150v-100h-150v100q0 300 300 300q150 0 212.5 -125t175 -125zM800 2125q-31 0 -53 22t-22 53t22 53t53 22t53 -22t22 -53t-22 -53t-53 -22zM400 1925q-31 0 -53 22
t-22 53t22 53t53 22t53 -22t22 -53t-22 -53t-53 -22z" />
    <glyph glyph-name="+almostequaltoaccent" unicode="&#x34c;" horiz-adv-x="0" 
d="M802.5 2050q102.5 0 122.5 50v-145q0 -40 -150 -55q-100 0 -212.5 42.5t-200 42.5t-87.5 -75v170q0 45 112.5 50t212.5 -37.5t202.5 -42.5zM837.5 2290q87.5 0 87.5 75v-170q0 -40 -112.5 -47.5t-212.5 35t-200 42.5t-125 -50v145q0 40 150 55q100 0 212.5 -42.5
t200 -42.5z" />
    <glyph glyph-name="+lowleftrightarrow" unicode="&#x34d;" horiz-adv-x="0" 
d="M400 -450l-400 200l400 200v-100h400v100l400 -200l-400 -200v100h-400v-100z" />
    <glyph glyph-name="+lowuparrow" unicode="&#x34e;" horiz-adv-x="0" 
d="M400 -350l200 300l200 -300h-100v-150h-200v150h-100z" />
    <glyph glyph-name="+rightarrowhead" unicode="&#x350;" horiz-adv-x="0" 
d="M500 1850l134 200l-134 200l400 -200z" />
    <glyph glyph-name="+lefthalfring" unicode="&#x351;" horiz-adv-x="0" 
d="M500 2025q0 -75 100 -75v-100q-200 0 -200 150v100q0 150 200 150v-100q-100 0 -100 -75v-50z" />
    <glyph glyph-name="+fermata" unicode="&#x352;" horiz-adv-x="0" 
d="M950 2100v-50h-100q0 150 -250 150t-250 -150h-100v50q0 250 350 250t350 -250zM475 2025q0 125 125 125t125 -125t-125 -125t-125 125z" />
    <glyph glyph-name="+xbelow" unicode="&#x353;" horiz-adv-x="0" 
d="M458 -50l142 -142l142 142l58 -58l-142 -142l142 -142l-58 -58l-142 142l-142 -142l-58 58l142 142l-142 142z" />
    <glyph glyph-name="+leftarrowheadbelow" unicode="&#x354;" horiz-adv-x="0" 
d="M900 -50l-134 -200l134 -200l-400 200z" />
    <glyph glyph-name="+rightarrowheadbelow" unicode="&#x355;" horiz-adv-x="0" 
d="M500 -450l134 200l-134 200l400 -200z" />
    <glyph glyph-name="+rightanduparrowheadsbelow" unicode="&#x356;" horiz-adv-x="0" 
d="M200 -450l134 200l-134 200l400 -200zM1000 -450l-200 134l-200 -134l200 400z" />
    <glyph glyph-name="+righthalfring" unicode="&#x357;" horiz-adv-x="0" 
d="M700 2075q0 75 -100 75v100q200 0 200 -150v-100q0 -150 -200 -150v100q100 0 100 75v50z" />
    <glyph glyph-name="+dblbreve" unicode="&#x35d;" horiz-adv-x="0" 
d="M0 2150v50h200q0 -150 900 -150t900 150h200v-50q0 -250 -1100 -250t-1100 250z" />
    <glyph glyph-name="+dblmacron" unicode="&#x35e;" horiz-adv-x="0" 
d="M2200 2000h-2200v200h2200v-200z" />
    <glyph glyph-name="+dblmacronbelow" unicode="&#x35f;" horiz-adv-x="0" 
d="M2200 -350h-2200v200h2200v-200z" />
    <glyph glyph-name="+dbltilde" unicode="&#x360;" horiz-adv-x="0" 
d="M1850 2050q350 0 350 100v50h200v-50q0 -250 -550 -250q-400 0 -600 75t-500 75q-350 0 -350 -100v-50h-200v50q0 250 550 250q400 0 600 -75t500 -75z" />
    <glyph glyph-name="+dblinvbreve" unicode="&#x361;" horiz-adv-x="0" 
d="M2400 1950v-50h-200q0 150 -900 150t-900 -150h-200v50q0 250 1100 250t1100 -250z" />
    <glyph glyph-name="+dblarrow" unicode="&#x362;" horiz-adv-x="0" 
d="M1800 2300l400 -200l-400 -200v100h-1800v200h1800v100z" />
    <glyph glyph-name="+a" unicode="&#x363;" horiz-adv-x="0" 
d="M580 1900q-146 0 -146 108v57q0 103 166 103q84 0 84 40v17q0 58 -84 58q-83 0 -83 -58v-33h-83v50q0 108 166 108q167 0 167 -108v-275q0 -59 33 -59h-83q-33 0 -33 59q0 -67 -104 -67zM600 2102q-83 0 -83 -54v-23q0 -58 83 -58q84 0 84 78v87q0 -30 -84 -30z" />
    <glyph glyph-name="+e" unicode="&#x364;" horiz-adv-x="0" 
d="M600 2350q183 0 183 -108v-150h-283v-67q0 -58 100 -58t100 58v33h83v-50q0 -108 -183 -108t-183 108v234q0 108 183 108zM700 2158v67q0 58 -100 58t-100 -58v-67h200z" />
    <glyph glyph-name="+i" unicode="&#x365;" horiz-adv-x="0" 
d="M642 2208v-308h-84v308h84zM600 2292q-48 0 -48 45.5t48 45.5t48 -45.5t-48 -45.5z" />
    <glyph glyph-name="+o" unicode="&#x366;" horiz-adv-x="0" 
d="M700 2225q0 58 -100 58t-100 -58v-200q0 -58 100 -58t100 58v200zM783 2008q0 -108 -183 -108t-183 108v234q0 108 183 108t183 -108v-234z" />
    <glyph glyph-name="+u" unicode="&#x367;" horiz-adv-x="0" 
d="M783 1907h-83v58q0 -67 -141.5 -67t-141.5 109v333h83v-317q0 -58 100 -58t100 58v317h83v-433z" />
    <glyph glyph-name="+c" unicode="&#x368;" horiz-adv-x="0" 
d="M783 2008q0 -108 -183 -108t-183 108v234q0 108 183 108t183 -108v-67h-83v50q0 58 -100 58t-100 -58v-200q0 -58 100 -58t100 58v50h83v-67z" />
    <glyph glyph-name="+d" unicode="&#x369;" horiz-adv-x="0" 
d="M700 1910v58q0 -66 -141.5 -66t-141.5 108v158q0 109 141.5 109t141.5 -67v190h83v-490h-83zM600 2210q-100 0 -100 -58v-125q0 -59 100 -59t100 59v125q0 58 -100 58z" />
    <glyph glyph-name="+h" unicode="&#x36a;" horiz-adv-x="0" 
d="M417 2400h83v-227q0 67 141.5 67t141.5 -108v-234h-83v217q0 58 -100 58t-100 -58v-217h-83v502z" />
    <glyph glyph-name="+m" unicode="&#x36b;" horiz-adv-x="0" 
d="M315 1898h83v317q0 58 80 58t80 -58v-317h84v317q0 58 80 58t80 -58v-317h83v334q0 108 -114 108t-138 -53q-18 53 -126.5 53t-108.5 -67v59h-83v-434z" />
    <glyph glyph-name="+r" unicode="&#x36c;" horiz-adv-x="0" 
d="M443 2332h84v-59q0 67 115 67t115 -108v-50h-84v33q0 58 -73 58t-73 -58v-317h-84v434z" />
    <glyph glyph-name="+t" unicode="&#x36d;" horiz-adv-x="0" 
d="M623 2398v-133h84v-67h-84v-163q0 -67 84 -67v-66h-84q-83 0 -83 100v196h-47v67h47v133h83z" />
    <glyph glyph-name="+v" unicode="&#x36e;" horiz-adv-x="0" 
d="M810 2332h-100l-110 -337l-110 337h-100l160 -434h100z" />
    <glyph glyph-name="+x" unicode="&#x36f;" horiz-adv-x="0" 
d="M502 1898l98 155l98 -155h97l-155 212l155 222h-97l-98 -172l-98 172h-97l155 -222l-155 -212h97z" />
    <glyph glyph-name="lowernumeralsign" unicode="&#x375;" horiz-adv-x="500" 
d="M0 -50q0 83 70 160l230 290v-450q0 -150 -150 -150t-150 150z" />
    <glyph glyph-name="ypogegrammeni" unicode="&#x37a;" horiz-adv-x="700" 
d="M150 500v-275q0 -105 100 -105q105 0 125 105l125 -60q-50 -165 -250 -165q-250 0 -250 165v335h150z" />
    <glyph glyph-name="dialytikatonos" unicode="&#x385;" horiz-adv-x="950" 
d="M300 1850l125 300h275l-250 -300h-150zM0 1775q0 125 125 125t125 -125t-125 -125t-125 125zM500 1775q0 125 125 125t125 -125t-125 -125t-125 125z" />
    <glyph glyph-name="Alphatonos" unicode="&#x386;" horiz-adv-x="1620" 
d="M610 1800h280l610 -1800h-300l-160 500h-580l-160 -500h-300zM975 700l-225 720l-225 -720h450zM200 1600l125 300h275l-250 -300h-150z" />
    <glyph glyph-name="Epsilontonos" unicode="&#x388;" horiz-adv-x="1600" 
d="M0 1600l125 300h275l-250 -300h-150zM650 1600v-575h625v-200h-625v-625h750v-200h-1000v1800h1000v-200h-750z" />
    <glyph glyph-name="Etatonos" unicode="&#x389;" horiz-adv-x="1700" 
d="M0 1600l125 300h275l-250 -300h-150zM650 1800v-800h600v800h250v-1800h-250v800h-600v-800h-250v1800h250z" />
    <glyph glyph-name="Iotatonos" unicode="&#x38a;" horiz-adv-x="1050" 
d="M0 1600l125 300h275l-250 -300h-150zM400 0v200h100v1400h-100v200h450v-200h-100v-1400h100v-200h-450z" />
    <glyph glyph-name="Omicrontonos" unicode="&#x38c;" horiz-adv-x="1700" 
d="M0 1600l125 300h275l-250 -300h-150zM1250 1450q0 175 -350 175t-350 -175v-1100q0 -175 350 -175t350 175v1100zM1500 300q0 -325 -600 -325t-600 325v1200q0 325 600 325t600 -325v-1200z" />
    <glyph glyph-name="Upsilontonos" unicode="&#x38e;" horiz-adv-x="2010" 
d="M1250 650v-650h-250v650l-600 1150h300l425 -900l425 900h300zM0 1600l125 300h275l-250 -300h-150z" />
    <glyph glyph-name="Omegatonos" unicode="&#x38f;" horiz-adv-x="1700" 
d="M0 1600l125 300h275l-250 -300h-150zM300 1480q0 325 600 325t600 -325v-1000q0 -200 -200 -300h200v-200h-500v200q250 0 250 350v900q0 175 -350 175t-350 -175v-900q0 -350 250 -350v-200h-500v200h200q-200 100 -200 300v1000z" />
    <glyph glyph-name="iotadialytikatonos" unicode="&#x390;" horiz-adv-x="580" 
d="M250 1300v-925q0 -175 180 -175v-200q-430 0 -430 275v1025h250zM50 1650l125 300h275l-250 -300h-150zM-250 1575q0 125 125 125t125 -125t-125 -125t-125 125zM250 1575q0 125 125 125t125 -125t-125 -125t-125 125z" />
    <glyph glyph-name="Gamma" unicode="&#x393;" horiz-adv-x="1200" 
d="M1000 1800v-200h-750v-1600h-250v1800h1000z" />
    <glyph glyph-name="Gamma" unicode="&#x413;" horiz-adv-x="1200" 
d="M1000 1800v-200h-750v-1600h-250v1800h1000z" />
    <glyph glyph-name="uni0394" unicode="&#x394;" horiz-adv-x="1620" 
d="M610 1800h280l610 -1800h-1500zM1130 200l-380 1220l-380 -1220h760z" />
    <glyph glyph-name="Theta" unicode="&#x398;" horiz-adv-x="1400" 
d="M950 1450q0 175 -350 175t-350 -175v-1100q0 -175 350 -175t350 175v1100zM1200 300q0 -325 -600 -325t-600 325v1200q0 325 600 325t600 -325v-1200zM300 800v200h600v-200h-600z" />
    <glyph glyph-name="Lambda" unicode="&#x39b;" horiz-adv-x="1620" 
d="M0 0h300l450 1420l450 -1420h300l-610 1800h-280z" />
    <glyph glyph-name="Xi" unicode="&#x39e;" horiz-adv-x="1400" 
d="M0 1800h1200v-350h-200v100h-800v-100h-200v350zM1200 0h-1200v350h200v-100h800v100h200v-350zM100 800v200h1000v-200h-1000z" />
    <glyph glyph-name="Pi" unicode="&#x3a0;" horiz-adv-x="1400" 
d="M0 0v1800h1200v-1800h-250v1600h-700v-1600h-250z" />
    <glyph glyph-name="Pi" unicode="&#x41f;" horiz-adv-x="1400" 
d="M0 0v1800h1200v-1800h-250v1600h-700v-1600h-250z" />
    <glyph glyph-name="Phi" unicode="&#x3a6;" horiz-adv-x="1500" 
d="M1050 1175q0 175 -275 175v-900q275 0 275 175v550zM1300 575q0 -325 -525 -325v-250h-250v250q-525 0 -525 325v650q0 325 525 325v250h250v-250q525 0 525 -325v-650zM250 625q0 -175 275 -175v900q-275 0 -275 -175v-550z" />
    <glyph glyph-name="Phi" unicode="&#x424;" horiz-adv-x="1500" 
d="M1050 1175q0 175 -275 175v-900q275 0 275 175v550zM1300 575q0 -325 -525 -325v-250h-250v250q-525 0 -525 325v650q0 325 525 325v250h250v-250q525 0 525 -325v-650zM250 625q0 -175 275 -175v900q-275 0 -275 -175v-550z" />
    <glyph glyph-name="Psi" unicode="&#x3a8;" horiz-adv-x="1500" 
d="M1300 575q0 -325 -525 -325v-250h-250v250q-525 0 -525 325v975h250v-925q0 -175 275 -175v1350h250v-1350q275 0 275 175v925h250v-975z" />
    <glyph glyph-name="uni03A9" unicode="&#x3a9;" horiz-adv-x="1400" 
d="M0 1480q0 325 600 325t600 -325v-1000q0 -200 -200 -300h200v-200h-500v200q250 0 250 350v900q0 175 -350 175t-350 -175v-900q0 -350 250 -350v-200h-500v200h200q-200 100 -200 300v1000z" />
    <glyph glyph-name="alphatonos" unicode="&#x3ac;" horiz-adv-x="1400" 
d="M1000 -35q-51 54 -62 123l-13 87q-75 -200 -500 -200t-425 325v700q0 325 425 325t500 -200l25 175h250l-100 -650l75 -488q13 -81 75 -132zM550 1125q-300 0 -300 -175v-600q0 -175 300 -175q250 0 275 175l50 300l-50 300q-25 175 -275 175zM450 1400l125 300h275
l-250 -300h-150z" />
    </font>
</defs>
</svg>
